<?xml version="1.0" encoding="utf-8" standalone="no"?>
<!DOCTYPE svg PUBLIC "-//W3C//DTD SVG 1.1//EN"
  "http://www.w3.org/Graphics/SVG/1.1/DTD/svg11.dtd">
<svg xmlns:xlink="http://www.w3.org/1999/xlink" width="792pt" height="547.2pt" viewBox="0 0 792 547.2" xmlns="http://www.w3.org/2000/svg" version="1.1">
 <metadata>
  <rdf:RDF xmlns:dc="http://purl.org/dc/elements/1.1/" xmlns:cc="http://creativecommons.org/ns#" xmlns:rdf="http://www.w3.org/1999/02/22-rdf-syntax-ns#">
   <cc:Work>
    <dc:type rdf:resource="http://purl.org/dc/dcmitype/StillImage"/>
    <dc:date>2026-02-17T10:27:06.789019</dc:date>
    <dc:format>image/svg+xml</dc:format>
    <dc:creator>
     <cc:Agent>
      <dc:title>Matplotlib v3.10.8, https://matplotlib.org/</dc:title>
     </cc:Agent>
    </dc:creator>
   </cc:Work>
  </rdf:RDF>
 </metadata>
 <defs>
  <style type="text/css">*{stroke-linejoin: round; stroke-linecap: butt}</style>
 </defs>
 <g id="figure_1">
  <g id="patch_1">
   <path d="M 0 547.2 
L 792 547.2 
L 792 0 
L 0 0 
z
" style="fill: #ffffff"/>
  </g>
  <g id="axes_1">
   <g id="patch_2">
    <path d="M 56.964286 267.963231 
L 781.2 267.963231 
L 781.2 47.657143 
L 56.964286 47.657143 
z
" style="fill: #ffffff"/>
   </g>
   <g id="matplotlib.axis_1">
    <g id="xtick_1">
     <g id="line2d_1">
      <path d="M 89.884091 267.963231 
L 89.884091 47.657143 
" clip-path="url(#p470b232a8f)" style="fill: none; stroke: #b0b0b0; stroke-opacity: 0.25; stroke-width: 0.8; stroke-linecap: square"/>
     </g>
     <g id="line2d_2">
      <defs>
       <path id="m6662d1be42" d="M 0 0 
L 0 3.5 
" style="stroke: #000000; stroke-width: 0.8"/>
      </defs>
      <g>
       <use xlink:href="#m6662d1be42" x="89.884091" y="267.963231" style="stroke: #000000; stroke-width: 0.8"/>
      </g>
     </g>
    </g>
    <g id="xtick_2">
     <g id="line2d_3">
      <path d="M 192.758482 267.963231 
L 192.758482 47.657143 
" clip-path="url(#p470b232a8f)" style="fill: none; stroke: #b0b0b0; stroke-opacity: 0.25; stroke-width: 0.8; stroke-linecap: square"/>
     </g>
     <g id="line2d_4">
      <g>
       <use xlink:href="#m6662d1be42" x="192.758482" y="267.963231" style="stroke: #000000; stroke-width: 0.8"/>
      </g>
     </g>
    </g>
    <g id="xtick_3">
     <g id="line2d_5">
      <path d="M 295.632873 267.963231 
L 295.632873 47.657143 
" clip-path="url(#p470b232a8f)" style="fill: none; stroke: #b0b0b0; stroke-opacity: 0.25; stroke-width: 0.8; stroke-linecap: square"/>
     </g>
     <g id="line2d_6">
      <g>
       <use xlink:href="#m6662d1be42" x="295.632873" y="267.963231" style="stroke: #000000; stroke-width: 0.8"/>
      </g>
     </g>
    </g>
    <g id="xtick_4">
     <g id="line2d_7">
      <path d="M 398.507265 267.963231 
L 398.507265 47.657143 
" clip-path="url(#p470b232a8f)" style="fill: none; stroke: #b0b0b0; stroke-opacity: 0.25; stroke-width: 0.8; stroke-linecap: square"/>
     </g>
     <g id="line2d_8">
      <g>
       <use xlink:href="#m6662d1be42" x="398.507265" y="267.963231" style="stroke: #000000; stroke-width: 0.8"/>
      </g>
     </g>
    </g>
    <g id="xtick_5">
     <g id="line2d_9">
      <path d="M 501.381656 267.963231 
L 501.381656 47.657143 
" clip-path="url(#p470b232a8f)" style="fill: none; stroke: #b0b0b0; stroke-opacity: 0.25; stroke-width: 0.8; stroke-linecap: square"/>
     </g>
     <g id="line2d_10">
      <g>
       <use xlink:href="#m6662d1be42" x="501.381656" y="267.963231" style="stroke: #000000; stroke-width: 0.8"/>
      </g>
     </g>
    </g>
    <g id="xtick_6">
     <g id="line2d_11">
      <path d="M 604.256047 267.963231 
L 604.256047 47.657143 
" clip-path="url(#p470b232a8f)" style="fill: none; stroke: #b0b0b0; stroke-opacity: 0.25; stroke-width: 0.8; stroke-linecap: square"/>
     </g>
     <g id="line2d_12">
      <g>
       <use xlink:href="#m6662d1be42" x="604.256047" y="267.963231" style="stroke: #000000; stroke-width: 0.8"/>
      </g>
     </g>
    </g>
    <g id="xtick_7">
     <g id="line2d_13">
      <path d="M 707.130438 267.963231 
L 707.130438 47.657143 
" clip-path="url(#p470b232a8f)" style="fill: none; stroke: #b0b0b0; stroke-opacity: 0.25; stroke-width: 0.8; stroke-linecap: square"/>
     </g>
     <g id="line2d_14">
      <g>
       <use xlink:href="#m6662d1be42" x="707.130438" y="267.963231" style="stroke: #000000; stroke-width: 0.8"/>
      </g>
     </g>
    </g>
   </g>
   <g id="matplotlib.axis_2">
    <g id="ytick_1">
     <g id="line2d_15">
      <path d="M 56.964286 259.402912 
L 781.2 259.402912 
" clip-path="url(#p470b232a8f)" style="fill: none; stroke: #b0b0b0; stroke-opacity: 0.25; stroke-width: 0.8; stroke-linecap: square"/>
     </g>
     <g id="line2d_16">
      <defs>
       <path id="mfffcf54a74" d="M 0 0 
L -3.5 0 
" style="stroke: #000000; stroke-width: 0.8"/>
      </defs>
      <g>
       <use xlink:href="#mfffcf54a74" x="56.964286" y="259.402912" style="stroke: #000000; stroke-width: 0.8"/>
      </g>
     </g>
     <g id="text_1">
      <!-- 0 -->
      <g transform="translate(43.601786 263.202131) scale(0.1 -0.1)">
       <defs>
        <path id="DejaVuSans-30" d="M 2034 4250 
Q 1547 4250 1301 3770 
Q 1056 3291 1056 2328 
Q 1056 1369 1301 889 
Q 1547 409 2034 409 
Q 2525 409 2770 889 
Q 3016 1369 3016 2328 
Q 3016 3291 2770 3770 
Q 2525 4250 2034 4250 
z
M 2034 4750 
Q 2819 4750 3233 4129 
Q 3647 3509 3647 2328 
Q 3647 1150 3233 529 
Q 2819 -91 2034 -91 
Q 1250 -91 836 529 
Q 422 1150 422 2328 
Q 422 3509 836 4129 
Q 1250 4750 2034 4750 
z
" transform="scale(0.015625)"/>
       </defs>
       <use xlink:href="#DejaVuSans-30"/>
      </g>
     </g>
    </g>
    <g id="ytick_2">
     <g id="line2d_17">
      <path d="M 56.964286 219.941445 
L 781.2 219.941445 
" clip-path="url(#p470b232a8f)" style="fill: none; stroke: #b0b0b0; stroke-opacity: 0.25; stroke-width: 0.8; stroke-linecap: square"/>
     </g>
     <g id="line2d_18">
      <g>
       <use xlink:href="#mfffcf54a74" x="56.964286" y="219.941445" style="stroke: #000000; stroke-width: 0.8"/>
      </g>
     </g>
     <g id="text_2">
      <!-- 500 -->
      <g transform="translate(30.876786 223.740664) scale(0.1 -0.1)">
       <defs>
        <path id="DejaVuSans-35" d="M 691 4666 
L 3169 4666 
L 3169 4134 
L 1269 4134 
L 1269 2991 
Q 1406 3038 1543 3061 
Q 1681 3084 1819 3084 
Q 2600 3084 3056 2656 
Q 3513 2228 3513 1497 
Q 3513 744 3044 326 
Q 2575 -91 1722 -91 
Q 1428 -91 1123 -41 
Q 819 9 494 109 
L 494 744 
Q 775 591 1075 516 
Q 1375 441 1709 441 
Q 2250 441 2565 725 
Q 2881 1009 2881 1497 
Q 2881 1984 2565 2268 
Q 2250 2553 1709 2553 
Q 1456 2553 1204 2497 
Q 953 2441 691 2322 
L 691 4666 
z
" transform="scale(0.015625)"/>
       </defs>
       <use xlink:href="#DejaVuSans-35"/>
       <use xlink:href="#DejaVuSans-30" transform="translate(63.623047 0)"/>
       <use xlink:href="#DejaVuSans-30" transform="translate(127.246094 0)"/>
      </g>
     </g>
    </g>
    <g id="ytick_3">
     <g id="line2d_19">
      <path d="M 56.964286 180.479978 
L 781.2 180.479978 
" clip-path="url(#p470b232a8f)" style="fill: none; stroke: #b0b0b0; stroke-opacity: 0.25; stroke-width: 0.8; stroke-linecap: square"/>
     </g>
     <g id="line2d_20">
      <g>
       <use xlink:href="#mfffcf54a74" x="56.964286" y="180.479978" style="stroke: #000000; stroke-width: 0.8"/>
      </g>
     </g>
     <g id="text_3">
      <!-- 1000 -->
      <g transform="translate(24.514286 184.279196) scale(0.1 -0.1)">
       <defs>
        <path id="DejaVuSans-31" d="M 794 531 
L 1825 531 
L 1825 4091 
L 703 3866 
L 703 4441 
L 1819 4666 
L 2450 4666 
L 2450 531 
L 3481 531 
L 3481 0 
L 794 0 
L 794 531 
z
" transform="scale(0.015625)"/>
       </defs>
       <use xlink:href="#DejaVuSans-31"/>
       <use xlink:href="#DejaVuSans-30" transform="translate(63.623047 0)"/>
       <use xlink:href="#DejaVuSans-30" transform="translate(127.246094 0)"/>
       <use xlink:href="#DejaVuSans-30" transform="translate(190.869141 0)"/>
      </g>
     </g>
    </g>
    <g id="ytick_4">
     <g id="line2d_21">
      <path d="M 56.964286 141.018511 
L 781.2 141.018511 
" clip-path="url(#p470b232a8f)" style="fill: none; stroke: #b0b0b0; stroke-opacity: 0.25; stroke-width: 0.8; stroke-linecap: square"/>
     </g>
     <g id="line2d_22">
      <g>
       <use xlink:href="#mfffcf54a74" x="56.964286" y="141.018511" style="stroke: #000000; stroke-width: 0.8"/>
      </g>
     </g>
     <g id="text_4">
      <!-- 1500 -->
      <g transform="translate(24.514286 144.817729) scale(0.1 -0.1)">
       <use xlink:href="#DejaVuSans-31"/>
       <use xlink:href="#DejaVuSans-35" transform="translate(63.623047 0)"/>
       <use xlink:href="#DejaVuSans-30" transform="translate(127.246094 0)"/>
       <use xlink:href="#DejaVuSans-30" transform="translate(190.869141 0)"/>
      </g>
     </g>
    </g>
    <g id="ytick_5">
     <g id="line2d_23">
      <path d="M 56.964286 101.557044 
L 781.2 101.557044 
" clip-path="url(#p470b232a8f)" style="fill: none; stroke: #b0b0b0; stroke-opacity: 0.25; stroke-width: 0.8; stroke-linecap: square"/>
     </g>
     <g id="line2d_24">
      <g>
       <use xlink:href="#mfffcf54a74" x="56.964286" y="101.557044" style="stroke: #000000; stroke-width: 0.8"/>
      </g>
     </g>
     <g id="text_5">
      <!-- 2000 -->
      <g transform="translate(24.514286 105.356262) scale(0.1 -0.1)">
       <defs>
        <path id="DejaVuSans-32" d="M 1228 531 
L 3431 531 
L 3431 0 
L 469 0 
L 469 531 
Q 828 903 1448 1529 
Q 2069 2156 2228 2338 
Q 2531 2678 2651 2914 
Q 2772 3150 2772 3378 
Q 2772 3750 2511 3984 
Q 2250 4219 1831 4219 
Q 1534 4219 1204 4116 
Q 875 4013 500 3803 
L 500 4441 
Q 881 4594 1212 4672 
Q 1544 4750 1819 4750 
Q 2544 4750 2975 4387 
Q 3406 4025 3406 3419 
Q 3406 3131 3298 2873 
Q 3191 2616 2906 2266 
Q 2828 2175 2409 1742 
Q 1991 1309 1228 531 
z
" transform="scale(0.015625)"/>
       </defs>
       <use xlink:href="#DejaVuSans-32"/>
       <use xlink:href="#DejaVuSans-30" transform="translate(63.623047 0)"/>
       <use xlink:href="#DejaVuSans-30" transform="translate(127.246094 0)"/>
       <use xlink:href="#DejaVuSans-30" transform="translate(190.869141 0)"/>
      </g>
     </g>
    </g>
    <g id="ytick_6">
     <g id="line2d_25">
      <path d="M 56.964286 62.095577 
L 781.2 62.095577 
" clip-path="url(#p470b232a8f)" style="fill: none; stroke: #b0b0b0; stroke-opacity: 0.25; stroke-width: 0.8; stroke-linecap: square"/>
     </g>
     <g id="line2d_26">
      <g>
       <use xlink:href="#mfffcf54a74" x="56.964286" y="62.095577" style="stroke: #000000; stroke-width: 0.8"/>
      </g>
     </g>
     <g id="text_6">
      <!-- 2500 -->
      <g transform="translate(24.514286 65.894795) scale(0.1 -0.1)">
       <use xlink:href="#DejaVuSans-32"/>
       <use xlink:href="#DejaVuSans-35" transform="translate(63.623047 0)"/>
       <use xlink:href="#DejaVuSans-30" transform="translate(127.246094 0)"/>
       <use xlink:href="#DejaVuSans-30" transform="translate(190.869141 0)"/>
      </g>
     </g>
    </g>
    <g id="text_7">
     <!-- Pixel error (0..255) -->
     <g transform="translate(18.434598 204.455499) rotate(-90) scale(0.1 -0.1)">
      <defs>
       <path id="DejaVuSans-50" d="M 1259 4147 
L 1259 2394 
L 2053 2394 
Q 2494 2394 2734 2622 
Q 2975 2850 2975 3272 
Q 2975 3691 2734 3919 
Q 2494 4147 2053 4147 
L 1259 4147 
z
M 628 4666 
L 2053 4666 
Q 2838 4666 3239 4311 
Q 3641 3956 3641 3272 
Q 3641 2581 3239 2228 
Q 2838 1875 2053 1875 
L 1259 1875 
L 1259 0 
L 628 0 
L 628 4666 
z
" transform="scale(0.015625)"/>
       <path id="DejaVuSans-69" d="M 603 3500 
L 1178 3500 
L 1178 0 
L 603 0 
L 603 3500 
z
M 603 4863 
L 1178 4863 
L 1178 4134 
L 603 4134 
L 603 4863 
z
" transform="scale(0.015625)"/>
       <path id="DejaVuSans-78" d="M 3513 3500 
L 2247 1797 
L 3578 0 
L 2900 0 
L 1881 1375 
L 863 0 
L 184 0 
L 1544 1831 
L 300 3500 
L 978 3500 
L 1906 2253 
L 2834 3500 
L 3513 3500 
z
" transform="scale(0.015625)"/>
       <path id="DejaVuSans-65" d="M 3597 1894 
L 3597 1613 
L 953 1613 
Q 991 1019 1311 708 
Q 1631 397 2203 397 
Q 2534 397 2845 478 
Q 3156 559 3463 722 
L 3463 178 
Q 3153 47 2828 -22 
Q 2503 -91 2169 -91 
Q 1331 -91 842 396 
Q 353 884 353 1716 
Q 353 2575 817 3079 
Q 1281 3584 2069 3584 
Q 2775 3584 3186 3129 
Q 3597 2675 3597 1894 
z
M 3022 2063 
Q 3016 2534 2758 2815 
Q 2500 3097 2075 3097 
Q 1594 3097 1305 2825 
Q 1016 2553 972 2059 
L 3022 2063 
z
" transform="scale(0.015625)"/>
       <path id="DejaVuSans-6c" d="M 603 4863 
L 1178 4863 
L 1178 0 
L 603 0 
L 603 4863 
z
" transform="scale(0.015625)"/>
       <path id="DejaVuSans-20" transform="scale(0.015625)"/>
       <path id="DejaVuSans-72" d="M 2631 2963 
Q 2534 3019 2420 3045 
Q 2306 3072 2169 3072 
Q 1681 3072 1420 2755 
Q 1159 2438 1159 1844 
L 1159 0 
L 581 0 
L 581 3500 
L 1159 3500 
L 1159 2956 
Q 1341 3275 1631 3429 
Q 1922 3584 2338 3584 
Q 2397 3584 2469 3576 
Q 2541 3569 2628 3553 
L 2631 2963 
z
" transform="scale(0.015625)"/>
       <path id="DejaVuSans-6f" d="M 1959 3097 
Q 1497 3097 1228 2736 
Q 959 2375 959 1747 
Q 959 1119 1226 758 
Q 1494 397 1959 397 
Q 2419 397 2687 759 
Q 2956 1122 2956 1747 
Q 2956 2369 2687 2733 
Q 2419 3097 1959 3097 
z
M 1959 3584 
Q 2709 3584 3137 3096 
Q 3566 2609 3566 1747 
Q 3566 888 3137 398 
Q 2709 -91 1959 -91 
Q 1206 -91 779 398 
Q 353 888 353 1747 
Q 353 2609 779 3096 
Q 1206 3584 1959 3584 
z
" transform="scale(0.015625)"/>
       <path id="DejaVuSans-28" d="M 1984 4856 
Q 1566 4138 1362 3434 
Q 1159 2731 1159 2009 
Q 1159 1288 1364 580 
Q 1569 -128 1984 -844 
L 1484 -844 
Q 1016 -109 783 600 
Q 550 1309 550 2009 
Q 550 2706 781 3412 
Q 1013 4119 1484 4856 
L 1984 4856 
z
" transform="scale(0.015625)"/>
       <path id="DejaVuSans-2e" d="M 684 794 
L 1344 794 
L 1344 0 
L 684 0 
L 684 794 
z
" transform="scale(0.015625)"/>
       <path id="DejaVuSans-29" d="M 513 4856 
L 1013 4856 
Q 1481 4119 1714 3412 
Q 1947 2706 1947 2009 
Q 1947 1309 1714 600 
Q 1481 -109 1013 -844 
L 513 -844 
Q 928 -128 1133 580 
Q 1338 1288 1338 2009 
Q 1338 2731 1133 3434 
Q 928 4138 513 4856 
z
" transform="scale(0.015625)"/>
      </defs>
      <use xlink:href="#DejaVuSans-50"/>
      <use xlink:href="#DejaVuSans-69" transform="translate(58.052734 0)"/>
      <use xlink:href="#DejaVuSans-78" transform="translate(85.835938 0)"/>
      <use xlink:href="#DejaVuSans-65" transform="translate(141.890625 0)"/>
      <use xlink:href="#DejaVuSans-6c" transform="translate(203.414062 0)"/>
      <use xlink:href="#DejaVuSans-20" transform="translate(231.197266 0)"/>
      <use xlink:href="#DejaVuSans-65" transform="translate(262.984375 0)"/>
      <use xlink:href="#DejaVuSans-72" transform="translate(324.507812 0)"/>
      <use xlink:href="#DejaVuSans-72" transform="translate(363.871094 0)"/>
      <use xlink:href="#DejaVuSans-6f" transform="translate(402.734375 0)"/>
      <use xlink:href="#DejaVuSans-72" transform="translate(463.916016 0)"/>
      <use xlink:href="#DejaVuSans-20" transform="translate(505.029297 0)"/>
      <use xlink:href="#DejaVuSans-28" transform="translate(536.816406 0)"/>
      <use xlink:href="#DejaVuSans-30" transform="translate(575.830078 0)"/>
      <use xlink:href="#DejaVuSans-2e" transform="translate(639.453125 0)"/>
      <use xlink:href="#DejaVuSans-2e" transform="translate(671.240234 0)"/>
      <use xlink:href="#DejaVuSans-32" transform="translate(703.027344 0)"/>
      <use xlink:href="#DejaVuSans-35" transform="translate(766.650391 0)"/>
      <use xlink:href="#DejaVuSans-35" transform="translate(830.273438 0)"/>
      <use xlink:href="#DejaVuSans-29" transform="translate(893.896484 0)"/>
     </g>
    </g>
   </g>
   <g id="line2d_27">
    <path d="M 89.884091 137.333247 
L 100.17153 140.008187 
L 110.458969 102.459667 
L 120.746408 103.697308 
L 131.033847 126.537713 
L 141.321287 89.939669 
L 151.608726 123.990223 
L 161.896165 118.036628 
L 172.183604 119.900836 
L 182.471043 134.948006 
L 192.758482 135.30497 
L 203.045921 141.524043 
L 213.33336 141.441556 
L 223.6208 137.858308 
L 233.908239 137.253852 
L 244.195678 113.105082 
L 254.483117 124.005628 
L 264.770556 68.405847 
L 275.057995 139.360117 
L 285.345434 131.888894 
L 295.632873 123.183614 
L 305.920313 146.154484 
L 316.207752 146.145891 
L 326.495191 138.954944 
L 336.78263 137.300231 
L 347.070069 96.192307 
L 357.357508 123.411018 
L 367.644947 124.456352 
L 377.932386 136.773156 
L 388.219825 137.248158 
L 398.507265 148.974871 
L 408.794704 150.440003 
L 419.082143 129.647558 
L 429.369582 142.506485 
L 439.657021 141.65264 
L 449.94446 135.185478 
L 460.231899 134.912195 
L 470.519338 136.389958 
L 480.806778 131.030771 
L 491.094217 129.010259 
L 501.381656 127.805519 
L 511.669095 127.977681 
L 521.956534 109.699623 
L 532.243973 77.787907 
L 542.531412 139.479513 
L 552.818851 139.040216 
L 563.106291 142.909231 
L 573.39373 144.811561 
L 583.681169 143.301717 
L 593.968608 142.008169 
L 604.256047 78.619237 
L 614.543486 60.993584 
L 624.830925 78.54623 
L 635.118364 83.137151 
L 645.405804 57.671056 
L 655.693243 134.622776 
L 665.980682 135.098819 
L 676.268121 131.694005 
L 686.55556 132.497425 
L 696.842999 138.287972 
L 707.130438 138.575676 
L 717.417877 123.260851 
L 727.705317 128.575017 
L 737.992756 142.680411 
L 748.280195 138.328657 
" clip-path="url(#p470b232a8f)" style="fill: none; stroke: #1f77b4; stroke-width: 1.7; stroke-linecap: square"/>
   </g>
   <g id="line2d_28">
    <path d="M 89.884091 257.893389 
L 100.17153 257.901381 
L 110.458969 257.722332 
L 120.746408 257.728814 
L 131.033847 257.828481 
L 141.321287 257.68257 
L 151.608726 257.801917 
L 161.896165 257.784969 
L 172.183604 257.796014 
L 182.471043 257.881276 
L 192.758482 257.884094 
L 203.045921 257.909829 
L 213.33336 257.908229 
L 223.6208 257.885135 
L 233.908239 257.884359 
L 244.195678 257.765844 
L 254.483117 257.812227 
L 264.770556 257.594839 
L 275.057995 257.91357 
L 285.345434 257.862568 
L 295.632873 257.827143 
L 305.920313 257.932347 
L 316.207752 257.931888 
L 326.495191 257.886613 
L 336.78263 257.875888 
L 347.070069 257.674823 
L 357.357508 257.804021 
L 367.644947 257.808591 
L 377.932386 257.871648 
L 388.219825 257.873326 
L 398.507265 257.944861 
L 408.794704 257.949318 
L 419.082143 257.851634 
L 429.369582 257.908624 
L 439.657021 257.909542 
L 449.94446 257.875043 
L 460.231899 257.874983 
L 470.519338 257.886578 
L 480.806778 257.858815 
L 491.094217 257.852985 
L 501.381656 257.842711 
L 511.669095 257.846661 
L 521.956534 257.732862 
L 532.243973 257.585415 
L 542.531412 257.901265 
L 552.818851 257.897054 
L 563.106291 257.917205 
L 573.39373 257.925747 
L 583.681169 257.91066 
L 593.968608 257.906062 
L 604.256047 257.596332 
L 614.543486 257.513451 
L 624.830925 257.579829 
L 635.118364 257.596694 
L 645.405804 257.4833 
L 655.693243 257.835655 
L 665.980682 257.838091 
L 676.268121 257.857283 
L 686.55556 257.862884 
L 696.842999 257.8863 
L 707.130438 257.88895 
L 717.417877 257.810312 
L 727.705317 257.835666 
L 737.992756 257.912746 
L 748.280195 257.886094 
" clip-path="url(#p470b232a8f)" style="fill: none; stroke: #ff7f0e; stroke-width: 1.7; stroke-linecap: square"/>
   </g>
   <g id="patch_3">
    <path d="M 56.964286 267.963231 
L 56.964286 47.657143 
" style="fill: none; stroke: #000000; stroke-width: 0.8; stroke-linejoin: miter; stroke-linecap: square"/>
   </g>
   <g id="patch_4">
    <path d="M 781.2 267.963231 
L 781.2 47.657143 
" style="fill: none; stroke: #000000; stroke-width: 0.8; stroke-linejoin: miter; stroke-linecap: square"/>
   </g>
   <g id="patch_5">
    <path d="M 56.964286 267.963231 
L 781.2 267.963231 
" style="fill: none; stroke: #000000; stroke-width: 0.8; stroke-linejoin: miter; stroke-linecap: square"/>
   </g>
   <g id="patch_6">
    <path d="M 56.964286 47.657143 
L 781.2 47.657143 
" style="fill: none; stroke: #000000; stroke-width: 0.8; stroke-linejoin: miter; stroke-linecap: square"/>
   </g>
   <g id="text_8">
    <!-- Frame-wise output difference -->
    <g transform="translate(331.01808 41.657143) scale(0.12 -0.12)">
     <defs>
      <path id="DejaVuSans-46" d="M 628 4666 
L 3309 4666 
L 3309 4134 
L 1259 4134 
L 1259 2759 
L 3109 2759 
L 3109 2228 
L 1259 2228 
L 1259 0 
L 628 0 
L 628 4666 
z
" transform="scale(0.015625)"/>
      <path id="DejaVuSans-61" d="M 2194 1759 
Q 1497 1759 1228 1600 
Q 959 1441 959 1056 
Q 959 750 1161 570 
Q 1363 391 1709 391 
Q 2188 391 2477 730 
Q 2766 1069 2766 1631 
L 2766 1759 
L 2194 1759 
z
M 3341 1997 
L 3341 0 
L 2766 0 
L 2766 531 
Q 2569 213 2275 61 
Q 1981 -91 1556 -91 
Q 1019 -91 701 211 
Q 384 513 384 1019 
Q 384 1609 779 1909 
Q 1175 2209 1959 2209 
L 2766 2209 
L 2766 2266 
Q 2766 2663 2505 2880 
Q 2244 3097 1772 3097 
Q 1472 3097 1187 3025 
Q 903 2953 641 2809 
L 641 3341 
Q 956 3463 1253 3523 
Q 1550 3584 1831 3584 
Q 2591 3584 2966 3190 
Q 3341 2797 3341 1997 
z
" transform="scale(0.015625)"/>
      <path id="DejaVuSans-6d" d="M 3328 2828 
Q 3544 3216 3844 3400 
Q 4144 3584 4550 3584 
Q 5097 3584 5394 3201 
Q 5691 2819 5691 2113 
L 5691 0 
L 5113 0 
L 5113 2094 
Q 5113 2597 4934 2840 
Q 4756 3084 4391 3084 
Q 3944 3084 3684 2787 
Q 3425 2491 3425 1978 
L 3425 0 
L 2847 0 
L 2847 2094 
Q 2847 2600 2669 2842 
Q 2491 3084 2119 3084 
Q 1678 3084 1418 2786 
Q 1159 2488 1159 1978 
L 1159 0 
L 581 0 
L 581 3500 
L 1159 3500 
L 1159 2956 
Q 1356 3278 1631 3431 
Q 1906 3584 2284 3584 
Q 2666 3584 2933 3390 
Q 3200 3197 3328 2828 
z
" transform="scale(0.015625)"/>
      <path id="DejaVuSans-2d" d="M 313 2009 
L 1997 2009 
L 1997 1497 
L 313 1497 
L 313 2009 
z
" transform="scale(0.015625)"/>
      <path id="DejaVuSans-77" d="M 269 3500 
L 844 3500 
L 1563 769 
L 2278 3500 
L 2956 3500 
L 3675 769 
L 4391 3500 
L 4966 3500 
L 4050 0 
L 3372 0 
L 2619 2869 
L 1863 0 
L 1184 0 
L 269 3500 
z
" transform="scale(0.015625)"/>
      <path id="DejaVuSans-73" d="M 2834 3397 
L 2834 2853 
Q 2591 2978 2328 3040 
Q 2066 3103 1784 3103 
Q 1356 3103 1142 2972 
Q 928 2841 928 2578 
Q 928 2378 1081 2264 
Q 1234 2150 1697 2047 
L 1894 2003 
Q 2506 1872 2764 1633 
Q 3022 1394 3022 966 
Q 3022 478 2636 193 
Q 2250 -91 1575 -91 
Q 1294 -91 989 -36 
Q 684 19 347 128 
L 347 722 
Q 666 556 975 473 
Q 1284 391 1588 391 
Q 1994 391 2212 530 
Q 2431 669 2431 922 
Q 2431 1156 2273 1281 
Q 2116 1406 1581 1522 
L 1381 1569 
Q 847 1681 609 1914 
Q 372 2147 372 2553 
Q 372 3047 722 3315 
Q 1072 3584 1716 3584 
Q 2034 3584 2315 3537 
Q 2597 3491 2834 3397 
z
" transform="scale(0.015625)"/>
      <path id="DejaVuSans-75" d="M 544 1381 
L 544 3500 
L 1119 3500 
L 1119 1403 
Q 1119 906 1312 657 
Q 1506 409 1894 409 
Q 2359 409 2629 706 
Q 2900 1003 2900 1516 
L 2900 3500 
L 3475 3500 
L 3475 0 
L 2900 0 
L 2900 538 
Q 2691 219 2414 64 
Q 2138 -91 1772 -91 
Q 1169 -91 856 284 
Q 544 659 544 1381 
z
M 1991 3584 
L 1991 3584 
z
" transform="scale(0.015625)"/>
      <path id="DejaVuSans-74" d="M 1172 4494 
L 1172 3500 
L 2356 3500 
L 2356 3053 
L 1172 3053 
L 1172 1153 
Q 1172 725 1289 603 
Q 1406 481 1766 481 
L 2356 481 
L 2356 0 
L 1766 0 
Q 1100 0 847 248 
Q 594 497 594 1153 
L 594 3053 
L 172 3053 
L 172 3500 
L 594 3500 
L 594 4494 
L 1172 4494 
z
" transform="scale(0.015625)"/>
      <path id="DejaVuSans-70" d="M 1159 525 
L 1159 -1331 
L 581 -1331 
L 581 3500 
L 1159 3500 
L 1159 2969 
Q 1341 3281 1617 3432 
Q 1894 3584 2278 3584 
Q 2916 3584 3314 3078 
Q 3713 2572 3713 1747 
Q 3713 922 3314 415 
Q 2916 -91 2278 -91 
Q 1894 -91 1617 61 
Q 1341 213 1159 525 
z
M 3116 1747 
Q 3116 2381 2855 2742 
Q 2594 3103 2138 3103 
Q 1681 3103 1420 2742 
Q 1159 2381 1159 1747 
Q 1159 1113 1420 752 
Q 1681 391 2138 391 
Q 2594 391 2855 752 
Q 3116 1113 3116 1747 
z
" transform="scale(0.015625)"/>
      <path id="DejaVuSans-64" d="M 2906 2969 
L 2906 4863 
L 3481 4863 
L 3481 0 
L 2906 0 
L 2906 525 
Q 2725 213 2448 61 
Q 2172 -91 1784 -91 
Q 1150 -91 751 415 
Q 353 922 353 1747 
Q 353 2572 751 3078 
Q 1150 3584 1784 3584 
Q 2172 3584 2448 3432 
Q 2725 3281 2906 2969 
z
M 947 1747 
Q 947 1113 1208 752 
Q 1469 391 1925 391 
Q 2381 391 2643 752 
Q 2906 1113 2906 1747 
Q 2906 2381 2643 2742 
Q 2381 3103 1925 3103 
Q 1469 3103 1208 2742 
Q 947 2381 947 1747 
z
" transform="scale(0.015625)"/>
      <path id="DejaVuSans-66" d="M 2375 4863 
L 2375 4384 
L 1825 4384 
Q 1516 4384 1395 4259 
Q 1275 4134 1275 3809 
L 1275 3500 
L 2222 3500 
L 2222 3053 
L 1275 3053 
L 1275 0 
L 697 0 
L 697 3053 
L 147 3053 
L 147 3500 
L 697 3500 
L 697 3744 
Q 697 4328 969 4595 
Q 1241 4863 1831 4863 
L 2375 4863 
z
" transform="scale(0.015625)"/>
      <path id="DejaVuSans-6e" d="M 3513 2113 
L 3513 0 
L 2938 0 
L 2938 2094 
Q 2938 2591 2744 2837 
Q 2550 3084 2163 3084 
Q 1697 3084 1428 2787 
Q 1159 2491 1159 1978 
L 1159 0 
L 581 0 
L 581 3500 
L 1159 3500 
L 1159 2956 
Q 1366 3272 1645 3428 
Q 1925 3584 2291 3584 
Q 2894 3584 3203 3211 
Q 3513 2838 3513 2113 
z
" transform="scale(0.015625)"/>
      <path id="DejaVuSans-63" d="M 3122 3366 
L 3122 2828 
Q 2878 2963 2633 3030 
Q 2388 3097 2138 3097 
Q 1578 3097 1268 2742 
Q 959 2388 959 1747 
Q 959 1106 1268 751 
Q 1578 397 2138 397 
Q 2388 397 2633 464 
Q 2878 531 3122 666 
L 3122 134 
Q 2881 22 2623 -34 
Q 2366 -91 2075 -91 
Q 1284 -91 818 406 
Q 353 903 353 1747 
Q 353 2603 823 3093 
Q 1294 3584 2113 3584 
Q 2378 3584 2631 3529 
Q 2884 3475 3122 3366 
z
" transform="scale(0.015625)"/>
     </defs>
     <use xlink:href="#DejaVuSans-46"/>
     <use xlink:href="#DejaVuSans-72" transform="translate(50.269531 0)"/>
     <use xlink:href="#DejaVuSans-61" transform="translate(91.382812 0)"/>
     <use xlink:href="#DejaVuSans-6d" transform="translate(152.662109 0)"/>
     <use xlink:href="#DejaVuSans-65" transform="translate(250.074219 0)"/>
     <use xlink:href="#DejaVuSans-2d" transform="translate(311.597656 0)"/>
     <use xlink:href="#DejaVuSans-77" transform="translate(347.681641 0)"/>
     <use xlink:href="#DejaVuSans-69" transform="translate(429.46875 0)"/>
     <use xlink:href="#DejaVuSans-73" transform="translate(457.251953 0)"/>
     <use xlink:href="#DejaVuSans-65" transform="translate(509.351562 0)"/>
     <use xlink:href="#DejaVuSans-20" transform="translate(570.875 0)"/>
     <use xlink:href="#DejaVuSans-6f" transform="translate(602.662109 0)"/>
     <use xlink:href="#DejaVuSans-75" transform="translate(663.84375 0)"/>
     <use xlink:href="#DejaVuSans-74" transform="translate(727.222656 0)"/>
     <use xlink:href="#DejaVuSans-70" transform="translate(766.431641 0)"/>
     <use xlink:href="#DejaVuSans-75" transform="translate(829.908203 0)"/>
     <use xlink:href="#DejaVuSans-74" transform="translate(893.287109 0)"/>
     <use xlink:href="#DejaVuSans-20" transform="translate(932.496094 0)"/>
     <use xlink:href="#DejaVuSans-64" transform="translate(964.283203 0)"/>
     <use xlink:href="#DejaVuSans-69" transform="translate(1027.759766 0)"/>
     <use xlink:href="#DejaVuSans-66" transform="translate(1055.542969 0)"/>
     <use xlink:href="#DejaVuSans-66" transform="translate(1090.748047 0)"/>
     <use xlink:href="#DejaVuSans-65" transform="translate(1125.953125 0)"/>
     <use xlink:href="#DejaVuSans-72" transform="translate(1187.476562 0)"/>
     <use xlink:href="#DejaVuSans-65" transform="translate(1226.339844 0)"/>
     <use xlink:href="#DejaVuSans-6e" transform="translate(1287.863281 0)"/>
     <use xlink:href="#DejaVuSans-63" transform="translate(1351.242188 0)"/>
     <use xlink:href="#DejaVuSans-65" transform="translate(1406.222656 0)"/>
    </g>
   </g>
   <g id="legend_1">
    <g id="patch_7">
     <path d="M 720.4125 85.013393 
L 774.2 85.013393 
Q 776.2 85.013393 776.2 83.013393 
L 776.2 54.657143 
Q 776.2 52.657143 774.2 52.657143 
L 720.4125 52.657143 
Q 718.4125 52.657143 718.4125 54.657143 
L 718.4125 83.013393 
Q 718.4125 85.013393 720.4125 85.013393 
z
" style="fill: #ffffff; opacity: 0.8; stroke: #cccccc; stroke-linejoin: miter"/>
    </g>
    <g id="line2d_29">
     <path d="M 722.4125 60.75558 
L 732.4125 60.75558 
L 742.4125 60.75558 
" style="fill: none; stroke: #1f77b4; stroke-width: 1.7; stroke-linecap: square"/>
    </g>
    <g id="text_9">
     <!-- MSE -->
     <g transform="translate(750.4125 64.25558) scale(0.1 -0.1)">
      <defs>
       <path id="DejaVuSans-4d" d="M 628 4666 
L 1569 4666 
L 2759 1491 
L 3956 4666 
L 4897 4666 
L 4897 0 
L 4281 0 
L 4281 4097 
L 3078 897 
L 2444 897 
L 1241 4097 
L 1241 0 
L 628 0 
L 628 4666 
z
" transform="scale(0.015625)"/>
       <path id="DejaVuSans-53" d="M 3425 4513 
L 3425 3897 
Q 3066 4069 2747 4153 
Q 2428 4238 2131 4238 
Q 1616 4238 1336 4038 
Q 1056 3838 1056 3469 
Q 1056 3159 1242 3001 
Q 1428 2844 1947 2747 
L 2328 2669 
Q 3034 2534 3370 2195 
Q 3706 1856 3706 1288 
Q 3706 609 3251 259 
Q 2797 -91 1919 -91 
Q 1588 -91 1214 -16 
Q 841 59 441 206 
L 441 856 
Q 825 641 1194 531 
Q 1563 422 1919 422 
Q 2459 422 2753 634 
Q 3047 847 3047 1241 
Q 3047 1584 2836 1778 
Q 2625 1972 2144 2069 
L 1759 2144 
Q 1053 2284 737 2584 
Q 422 2884 422 3419 
Q 422 4038 858 4394 
Q 1294 4750 2059 4750 
Q 2388 4750 2728 4690 
Q 3069 4631 3425 4513 
z
" transform="scale(0.015625)"/>
       <path id="DejaVuSans-45" d="M 628 4666 
L 3578 4666 
L 3578 4134 
L 1259 4134 
L 1259 2753 
L 3481 2753 
L 3481 2222 
L 1259 2222 
L 1259 531 
L 3634 531 
L 3634 0 
L 628 0 
L 628 4666 
z
" transform="scale(0.015625)"/>
      </defs>
      <use xlink:href="#DejaVuSans-4d"/>
      <use xlink:href="#DejaVuSans-53" transform="translate(86.279297 0)"/>
      <use xlink:href="#DejaVuSans-45" transform="translate(149.755859 0)"/>
     </g>
    </g>
    <g id="line2d_30">
     <path d="M 722.4125 75.433705 
L 732.4125 75.433705 
L 742.4125 75.433705 
" style="fill: none; stroke: #ff7f0e; stroke-width: 1.7; stroke-linecap: square"/>
    </g>
    <g id="text_10">
     <!-- MAE -->
     <g transform="translate(750.4125 78.933705) scale(0.1 -0.1)">
      <defs>
       <path id="DejaVuSans-41" d="M 2188 4044 
L 1331 1722 
L 3047 1722 
L 2188 4044 
z
M 1831 4666 
L 2547 4666 
L 4325 0 
L 3669 0 
L 3244 1197 
L 1141 1197 
L 716 0 
L 50 0 
L 1831 4666 
z
" transform="scale(0.015625)"/>
      </defs>
      <use xlink:href="#DejaVuSans-4d"/>
      <use xlink:href="#DejaVuSans-41" transform="translate(86.279297 0)"/>
      <use xlink:href="#DejaVuSans-45" transform="translate(154.6875 0)"/>
     </g>
    </g>
   </g>
  </g>
  <g id="axes_2">
   <g id="patch_8">
    <path d="M 56.964286 505.857143 
L 781.2 505.857143 
L 781.2 285.551055 
L 56.964286 285.551055 
z
" style="fill: #ffffff"/>
   </g>
   <g id="matplotlib.axis_3">
    <g id="xtick_8">
     <g id="line2d_31">
      <path d="M 89.884091 505.857143 
L 89.884091 285.551055 
" clip-path="url(#pc89d849d58)" style="fill: none; stroke: #b0b0b0; stroke-opacity: 0.25; stroke-width: 0.8; stroke-linecap: square"/>
     </g>
     <g id="line2d_32">
      <g>
       <use xlink:href="#m6662d1be42" x="89.884091" y="505.857143" style="stroke: #000000; stroke-width: 0.8"/>
      </g>
     </g>
     <g id="text_11">
      <!-- 0 -->
      <g transform="translate(86.702841 520.45558) scale(0.1 -0.1)">
       <use xlink:href="#DejaVuSans-30"/>
      </g>
     </g>
    </g>
    <g id="xtick_9">
     <g id="line2d_33">
      <path d="M 192.758482 505.857143 
L 192.758482 285.551055 
" clip-path="url(#pc89d849d58)" style="fill: none; stroke: #b0b0b0; stroke-opacity: 0.25; stroke-width: 0.8; stroke-linecap: square"/>
     </g>
     <g id="line2d_34">
      <g>
       <use xlink:href="#m6662d1be42" x="192.758482" y="505.857143" style="stroke: #000000; stroke-width: 0.8"/>
      </g>
     </g>
     <g id="text_12">
      <!-- 10 -->
      <g transform="translate(186.395982 520.45558) scale(0.1 -0.1)">
       <use xlink:href="#DejaVuSans-31"/>
       <use xlink:href="#DejaVuSans-30" transform="translate(63.623047 0)"/>
      </g>
     </g>
    </g>
    <g id="xtick_10">
     <g id="line2d_35">
      <path d="M 295.632873 505.857143 
L 295.632873 285.551055 
" clip-path="url(#pc89d849d58)" style="fill: none; stroke: #b0b0b0; stroke-opacity: 0.25; stroke-width: 0.8; stroke-linecap: square"/>
     </g>
     <g id="line2d_36">
      <g>
       <use xlink:href="#m6662d1be42" x="295.632873" y="505.857143" style="stroke: #000000; stroke-width: 0.8"/>
      </g>
     </g>
     <g id="text_13">
      <!-- 20 -->
      <g transform="translate(289.270373 520.45558) scale(0.1 -0.1)">
       <use xlink:href="#DejaVuSans-32"/>
       <use xlink:href="#DejaVuSans-30" transform="translate(63.623047 0)"/>
      </g>
     </g>
    </g>
    <g id="xtick_11">
     <g id="line2d_37">
      <path d="M 398.507265 505.857143 
L 398.507265 285.551055 
" clip-path="url(#pc89d849d58)" style="fill: none; stroke: #b0b0b0; stroke-opacity: 0.25; stroke-width: 0.8; stroke-linecap: square"/>
     </g>
     <g id="line2d_38">
      <g>
       <use xlink:href="#m6662d1be42" x="398.507265" y="505.857143" style="stroke: #000000; stroke-width: 0.8"/>
      </g>
     </g>
     <g id="text_14">
      <!-- 30 -->
      <g transform="translate(392.144765 520.45558) scale(0.1 -0.1)">
       <defs>
        <path id="DejaVuSans-33" d="M 2597 2516 
Q 3050 2419 3304 2112 
Q 3559 1806 3559 1356 
Q 3559 666 3084 287 
Q 2609 -91 1734 -91 
Q 1441 -91 1130 -33 
Q 819 25 488 141 
L 488 750 
Q 750 597 1062 519 
Q 1375 441 1716 441 
Q 2309 441 2620 675 
Q 2931 909 2931 1356 
Q 2931 1769 2642 2001 
Q 2353 2234 1838 2234 
L 1294 2234 
L 1294 2753 
L 1863 2753 
Q 2328 2753 2575 2939 
Q 2822 3125 2822 3475 
Q 2822 3834 2567 4026 
Q 2313 4219 1838 4219 
Q 1578 4219 1281 4162 
Q 984 4106 628 3988 
L 628 4550 
Q 988 4650 1302 4700 
Q 1616 4750 1894 4750 
Q 2613 4750 3031 4423 
Q 3450 4097 3450 3541 
Q 3450 3153 3228 2886 
Q 3006 2619 2597 2516 
z
" transform="scale(0.015625)"/>
       </defs>
       <use xlink:href="#DejaVuSans-33"/>
       <use xlink:href="#DejaVuSans-30" transform="translate(63.623047 0)"/>
      </g>
     </g>
    </g>
    <g id="xtick_12">
     <g id="line2d_39">
      <path d="M 501.381656 505.857143 
L 501.381656 285.551055 
" clip-path="url(#pc89d849d58)" style="fill: none; stroke: #b0b0b0; stroke-opacity: 0.25; stroke-width: 0.8; stroke-linecap: square"/>
     </g>
     <g id="line2d_40">
      <g>
       <use xlink:href="#m6662d1be42" x="501.381656" y="505.857143" style="stroke: #000000; stroke-width: 0.8"/>
      </g>
     </g>
     <g id="text_15">
      <!-- 40 -->
      <g transform="translate(495.019156 520.45558) scale(0.1 -0.1)">
       <defs>
        <path id="DejaVuSans-34" d="M 2419 4116 
L 825 1625 
L 2419 1625 
L 2419 4116 
z
M 2253 4666 
L 3047 4666 
L 3047 1625 
L 3713 1625 
L 3713 1100 
L 3047 1100 
L 3047 0 
L 2419 0 
L 2419 1100 
L 313 1100 
L 313 1709 
L 2253 4666 
z
" transform="scale(0.015625)"/>
       </defs>
       <use xlink:href="#DejaVuSans-34"/>
       <use xlink:href="#DejaVuSans-30" transform="translate(63.623047 0)"/>
      </g>
     </g>
    </g>
    <g id="xtick_13">
     <g id="line2d_41">
      <path d="M 604.256047 505.857143 
L 604.256047 285.551055 
" clip-path="url(#pc89d849d58)" style="fill: none; stroke: #b0b0b0; stroke-opacity: 0.25; stroke-width: 0.8; stroke-linecap: square"/>
     </g>
     <g id="line2d_42">
      <g>
       <use xlink:href="#m6662d1be42" x="604.256047" y="505.857143" style="stroke: #000000; stroke-width: 0.8"/>
      </g>
     </g>
     <g id="text_16">
      <!-- 50 -->
      <g transform="translate(597.893547 520.45558) scale(0.1 -0.1)">
       <use xlink:href="#DejaVuSans-35"/>
       <use xlink:href="#DejaVuSans-30" transform="translate(63.623047 0)"/>
      </g>
     </g>
    </g>
    <g id="xtick_14">
     <g id="line2d_43">
      <path d="M 707.130438 505.857143 
L 707.130438 285.551055 
" clip-path="url(#pc89d849d58)" style="fill: none; stroke: #b0b0b0; stroke-opacity: 0.25; stroke-width: 0.8; stroke-linecap: square"/>
     </g>
     <g id="line2d_44">
      <g>
       <use xlink:href="#m6662d1be42" x="707.130438" y="505.857143" style="stroke: #000000; stroke-width: 0.8"/>
      </g>
     </g>
     <g id="text_17">
      <!-- 60 -->
      <g transform="translate(700.767938 520.45558) scale(0.1 -0.1)">
       <defs>
        <path id="DejaVuSans-36" d="M 2113 2584 
Q 1688 2584 1439 2293 
Q 1191 2003 1191 1497 
Q 1191 994 1439 701 
Q 1688 409 2113 409 
Q 2538 409 2786 701 
Q 3034 994 3034 1497 
Q 3034 2003 2786 2293 
Q 2538 2584 2113 2584 
z
M 3366 4563 
L 3366 3988 
Q 3128 4100 2886 4159 
Q 2644 4219 2406 4219 
Q 1781 4219 1451 3797 
Q 1122 3375 1075 2522 
Q 1259 2794 1537 2939 
Q 1816 3084 2150 3084 
Q 2853 3084 3261 2657 
Q 3669 2231 3669 1497 
Q 3669 778 3244 343 
Q 2819 -91 2113 -91 
Q 1303 -91 875 529 
Q 447 1150 447 2328 
Q 447 3434 972 4092 
Q 1497 4750 2381 4750 
Q 2619 4750 2861 4703 
Q 3103 4656 3366 4563 
z
" transform="scale(0.015625)"/>
       </defs>
       <use xlink:href="#DejaVuSans-36"/>
       <use xlink:href="#DejaVuSans-30" transform="translate(63.623047 0)"/>
      </g>
     </g>
    </g>
    <g id="text_18">
     <!-- Frame index -->
     <g transform="translate(388.232924 534.133705) scale(0.1 -0.1)">
      <use xlink:href="#DejaVuSans-46"/>
      <use xlink:href="#DejaVuSans-72" transform="translate(50.269531 0)"/>
      <use xlink:href="#DejaVuSans-61" transform="translate(91.382812 0)"/>
      <use xlink:href="#DejaVuSans-6d" transform="translate(152.662109 0)"/>
      <use xlink:href="#DejaVuSans-65" transform="translate(250.074219 0)"/>
      <use xlink:href="#DejaVuSans-20" transform="translate(311.597656 0)"/>
      <use xlink:href="#DejaVuSans-69" transform="translate(343.384766 0)"/>
      <use xlink:href="#DejaVuSans-6e" transform="translate(371.167969 0)"/>
      <use xlink:href="#DejaVuSans-64" transform="translate(434.546875 0)"/>
      <use xlink:href="#DejaVuSans-65" transform="translate(498.023438 0)"/>
      <use xlink:href="#DejaVuSans-78" transform="translate(557.796875 0)"/>
     </g>
    </g>
   </g>
   <g id="matplotlib.axis_4">
    <g id="ytick_7">
     <g id="line2d_45">
      <path d="M 56.964286 498.923939 
L 781.2 498.923939 
" clip-path="url(#pc89d849d58)" style="fill: none; stroke: #b0b0b0; stroke-opacity: 0.25; stroke-width: 0.8; stroke-linecap: square"/>
     </g>
     <g id="line2d_46">
      <g>
       <use xlink:href="#mfffcf54a74" x="56.964286" y="498.923939" style="stroke: #000000; stroke-width: 0.8"/>
      </g>
     </g>
     <g id="text_19">
      <!-- 0.0 -->
      <g transform="translate(34.061161 502.723158) scale(0.1 -0.1)">
       <use xlink:href="#DejaVuSans-30"/>
       <use xlink:href="#DejaVuSans-2e" transform="translate(63.623047 0)"/>
       <use xlink:href="#DejaVuSans-30" transform="translate(95.410156 0)"/>
      </g>
     </g>
    </g>
    <g id="ytick_8">
     <g id="line2d_47">
      <path d="M 56.964286 468.535654 
L 781.2 468.535654 
" clip-path="url(#pc89d849d58)" style="fill: none; stroke: #b0b0b0; stroke-opacity: 0.25; stroke-width: 0.8; stroke-linecap: square"/>
     </g>
     <g id="line2d_48">
      <g>
       <use xlink:href="#mfffcf54a74" x="56.964286" y="468.535654" style="stroke: #000000; stroke-width: 0.8"/>
      </g>
     </g>
     <g id="text_20">
      <!-- 2.5 -->
      <g transform="translate(34.061161 472.334873) scale(0.1 -0.1)">
       <use xlink:href="#DejaVuSans-32"/>
       <use xlink:href="#DejaVuSans-2e" transform="translate(63.623047 0)"/>
       <use xlink:href="#DejaVuSans-35" transform="translate(95.410156 0)"/>
      </g>
     </g>
    </g>
    <g id="ytick_9">
     <g id="line2d_49">
      <path d="M 56.964286 438.147369 
L 781.2 438.147369 
" clip-path="url(#pc89d849d58)" style="fill: none; stroke: #b0b0b0; stroke-opacity: 0.25; stroke-width: 0.8; stroke-linecap: square"/>
     </g>
     <g id="line2d_50">
      <g>
       <use xlink:href="#mfffcf54a74" x="56.964286" y="438.147369" style="stroke: #000000; stroke-width: 0.8"/>
      </g>
     </g>
     <g id="text_21">
      <!-- 5.0 -->
      <g transform="translate(34.061161 441.946588) scale(0.1 -0.1)">
       <use xlink:href="#DejaVuSans-35"/>
       <use xlink:href="#DejaVuSans-2e" transform="translate(63.623047 0)"/>
       <use xlink:href="#DejaVuSans-30" transform="translate(95.410156 0)"/>
      </g>
     </g>
    </g>
    <g id="ytick_10">
     <g id="line2d_51">
      <path d="M 56.964286 407.759084 
L 781.2 407.759084 
" clip-path="url(#pc89d849d58)" style="fill: none; stroke: #b0b0b0; stroke-opacity: 0.25; stroke-width: 0.8; stroke-linecap: square"/>
     </g>
     <g id="line2d_52">
      <g>
       <use xlink:href="#mfffcf54a74" x="56.964286" y="407.759084" style="stroke: #000000; stroke-width: 0.8"/>
      </g>
     </g>
     <g id="text_22">
      <!-- 7.5 -->
      <g transform="translate(34.061161 411.558303) scale(0.1 -0.1)">
       <defs>
        <path id="DejaVuSans-37" d="M 525 4666 
L 3525 4666 
L 3525 4397 
L 1831 0 
L 1172 0 
L 2766 4134 
L 525 4134 
L 525 4666 
z
" transform="scale(0.015625)"/>
       </defs>
       <use xlink:href="#DejaVuSans-37"/>
       <use xlink:href="#DejaVuSans-2e" transform="translate(63.623047 0)"/>
       <use xlink:href="#DejaVuSans-35" transform="translate(95.410156 0)"/>
      </g>
     </g>
    </g>
    <g id="ytick_11">
     <g id="line2d_53">
      <path d="M 56.964286 377.370799 
L 781.2 377.370799 
" clip-path="url(#pc89d849d58)" style="fill: none; stroke: #b0b0b0; stroke-opacity: 0.25; stroke-width: 0.8; stroke-linecap: square"/>
     </g>
     <g id="line2d_54">
      <g>
       <use xlink:href="#mfffcf54a74" x="56.964286" y="377.370799" style="stroke: #000000; stroke-width: 0.8"/>
      </g>
     </g>
     <g id="text_23">
      <!-- 10.0 -->
      <g transform="translate(27.698661 381.170018) scale(0.1 -0.1)">
       <use xlink:href="#DejaVuSans-31"/>
       <use xlink:href="#DejaVuSans-30" transform="translate(63.623047 0)"/>
       <use xlink:href="#DejaVuSans-2e" transform="translate(127.246094 0)"/>
       <use xlink:href="#DejaVuSans-30" transform="translate(159.033203 0)"/>
      </g>
     </g>
    </g>
    <g id="ytick_12">
     <g id="line2d_55">
      <path d="M 56.964286 346.982514 
L 781.2 346.982514 
" clip-path="url(#pc89d849d58)" style="fill: none; stroke: #b0b0b0; stroke-opacity: 0.25; stroke-width: 0.8; stroke-linecap: square"/>
     </g>
     <g id="line2d_56">
      <g>
       <use xlink:href="#mfffcf54a74" x="56.964286" y="346.982514" style="stroke: #000000; stroke-width: 0.8"/>
      </g>
     </g>
     <g id="text_24">
      <!-- 12.5 -->
      <g transform="translate(27.698661 350.781733) scale(0.1 -0.1)">
       <use xlink:href="#DejaVuSans-31"/>
       <use xlink:href="#DejaVuSans-32" transform="translate(63.623047 0)"/>
       <use xlink:href="#DejaVuSans-2e" transform="translate(127.246094 0)"/>
       <use xlink:href="#DejaVuSans-35" transform="translate(159.033203 0)"/>
      </g>
     </g>
    </g>
    <g id="ytick_13">
     <g id="line2d_57">
      <path d="M 56.964286 316.594229 
L 781.2 316.594229 
" clip-path="url(#pc89d849d58)" style="fill: none; stroke: #b0b0b0; stroke-opacity: 0.25; stroke-width: 0.8; stroke-linecap: square"/>
     </g>
     <g id="line2d_58">
      <g>
       <use xlink:href="#mfffcf54a74" x="56.964286" y="316.594229" style="stroke: #000000; stroke-width: 0.8"/>
      </g>
     </g>
     <g id="text_25">
      <!-- 15.0 -->
      <g transform="translate(27.698661 320.393448) scale(0.1 -0.1)">
       <use xlink:href="#DejaVuSans-31"/>
       <use xlink:href="#DejaVuSans-35" transform="translate(63.623047 0)"/>
       <use xlink:href="#DejaVuSans-2e" transform="translate(127.246094 0)"/>
       <use xlink:href="#DejaVuSans-30" transform="translate(159.033203 0)"/>
      </g>
     </g>
    </g>
    <g id="ytick_14">
     <g id="line2d_59">
      <path d="M 56.964286 286.205945 
L 781.2 286.205945 
" clip-path="url(#pc89d849d58)" style="fill: none; stroke: #b0b0b0; stroke-opacity: 0.25; stroke-width: 0.8; stroke-linecap: square"/>
     </g>
     <g id="line2d_60">
      <g>
       <use xlink:href="#mfffcf54a74" x="56.964286" y="286.205945" style="stroke: #000000; stroke-width: 0.8"/>
      </g>
     </g>
     <g id="text_26">
      <!-- 17.5 -->
      <g transform="translate(27.698661 290.005163) scale(0.1 -0.1)">
       <use xlink:href="#DejaVuSans-31"/>
       <use xlink:href="#DejaVuSans-37" transform="translate(63.623047 0)"/>
       <use xlink:href="#DejaVuSans-2e" transform="translate(127.246094 0)"/>
       <use xlink:href="#DejaVuSans-35" transform="translate(159.033203 0)"/>
      </g>
     </g>
    </g>
    <g id="text_27">
     <!-- Quality metrics -->
     <g transform="translate(21.618973 433.865036) rotate(-90) scale(0.1 -0.1)">
      <defs>
       <path id="DejaVuSans-51" d="M 2522 4238 
Q 1834 4238 1429 3725 
Q 1025 3213 1025 2328 
Q 1025 1447 1429 934 
Q 1834 422 2522 422 
Q 3209 422 3611 934 
Q 4013 1447 4013 2328 
Q 4013 3213 3611 3725 
Q 3209 4238 2522 4238 
z
M 3406 84 
L 4238 -825 
L 3475 -825 
L 2784 -78 
Q 2681 -84 2626 -87 
Q 2572 -91 2522 -91 
Q 1538 -91 948 567 
Q 359 1225 359 2328 
Q 359 3434 948 4092 
Q 1538 4750 2522 4750 
Q 3503 4750 4090 4092 
Q 4678 3434 4678 2328 
Q 4678 1516 4351 937 
Q 4025 359 3406 84 
z
" transform="scale(0.015625)"/>
       <path id="DejaVuSans-79" d="M 2059 -325 
Q 1816 -950 1584 -1140 
Q 1353 -1331 966 -1331 
L 506 -1331 
L 506 -850 
L 844 -850 
Q 1081 -850 1212 -737 
Q 1344 -625 1503 -206 
L 1606 56 
L 191 3500 
L 800 3500 
L 1894 763 
L 2988 3500 
L 3597 3500 
L 2059 -325 
z
" transform="scale(0.015625)"/>
      </defs>
      <use xlink:href="#DejaVuSans-51"/>
      <use xlink:href="#DejaVuSans-75" transform="translate(78.710938 0)"/>
      <use xlink:href="#DejaVuSans-61" transform="translate(142.089844 0)"/>
      <use xlink:href="#DejaVuSans-6c" transform="translate(203.369141 0)"/>
      <use xlink:href="#DejaVuSans-69" transform="translate(231.152344 0)"/>
      <use xlink:href="#DejaVuSans-74" transform="translate(258.935547 0)"/>
      <use xlink:href="#DejaVuSans-79" transform="translate(298.144531 0)"/>
      <use xlink:href="#DejaVuSans-20" transform="translate(357.324219 0)"/>
      <use xlink:href="#DejaVuSans-6d" transform="translate(389.111328 0)"/>
      <use xlink:href="#DejaVuSans-65" transform="translate(486.523438 0)"/>
      <use xlink:href="#DejaVuSans-74" transform="translate(548.046875 0)"/>
      <use xlink:href="#DejaVuSans-72" transform="translate(587.255859 0)"/>
      <use xlink:href="#DejaVuSans-69" transform="translate(628.369141 0)"/>
      <use xlink:href="#DejaVuSans-63" transform="translate(656.152344 0)"/>
      <use xlink:href="#DejaVuSans-73" transform="translate(711.132812 0)"/>
     </g>
    </g>
   </g>
   <g id="line2d_61">
    <path d="M 89.884091 301.561062 
L 100.17153 300.391408 
L 110.458969 314.826771 
L 120.746408 314.408802 
L 131.033847 306.034635 
L 141.321287 318.87848 
L 151.608726 307.037222 
L 161.896165 309.308646 
L 172.183604 308.607874 
L 182.471043 302.582637 
L 192.758482 302.431011 
L 203.045921 299.71688 
L 213.33336 299.753813 
L 223.6208 301.333507 
L 233.908239 301.595375 
L 244.195678 311.118793 
L 254.483117 307.031241 
L 264.770556 325.193314 
L 275.057995 300.677156 
L 285.345434 303.864527 
L 295.632873 307.350722 
L 305.920313 297.601395 
L 316.207752 297.605405 
L 326.495191 300.85505 
L 336.78263 301.57532 
L 347.070069 316.893847 
L 357.357508 307.262528 
L 367.644947 306.855225 
L 377.932386 301.802713 
L 388.219825 301.597832 
L 398.507265 296.270052 
L 408.794704 295.564968 
L 419.082143 304.784346 
L 429.369582 299.275078 
L 439.657021 299.65929 
L 449.94446 302.481808 
L 460.231899 302.597823 
L 470.519338 301.967438 
L 480.806778 304.218599 
L 491.094217 305.042991 
L 501.381656 305.528519 
L 511.669095 305.459383 
L 521.956534 312.333518 
L 532.243973 322.534339 
L 542.531412 300.624643 
L 552.818851 300.817653 
L 563.106291 299.092895 
L 573.39373 298.223734 
L 583.681169 298.914746 
L 593.968608 299.499619 
L 604.256047 322.292108 
L 614.543486 327.203218 
L 624.830925 322.313438 
L 635.118364 320.956129 
L 645.405804 328.079913 
L 655.693243 302.720399 
L 665.980682 302.518625 
L 676.268121 303.945116 
L 686.55556 303.612002 
L 696.842999 301.146571 
L 707.130438 301.021004 
L 717.417877 307.320814 
L 727.705317 305.218914 
L 737.992756 299.196483 
L 748.280195 301.128812 
" clip-path="url(#pc89d849d58)" style="fill: none; stroke: #1f77b4; stroke-width: 1.7; stroke-linecap: square"/>
   </g>
   <g id="line2d_62">
    <path d="M 89.884091 495.666202 
L 100.17153 495.704141 
L 110.458969 495.237928 
L 120.746408 495.253788 
L 131.033847 495.52904 
L 141.321287 495.091195 
L 151.608726 495.501945 
L 161.896165 495.422281 
L 172.183604 495.444609 
L 182.471043 495.649471 
L 192.758482 495.654815 
L 203.045921 495.727428 
L 213.33336 495.727572 
L 223.6208 495.670671 
L 233.908239 495.661538 
L 244.195678 495.34173 
L 254.483117 495.487391 
L 264.770556 494.860094 
L 275.057995 495.702453 
L 285.345434 495.577228 
L 295.632873 495.465936 
L 305.920313 495.775162 
L 316.207752 495.77556 
L 326.495191 495.679792 
L 336.78263 495.65652 
L 347.070069 495.149571 
L 357.357508 495.459495 
L 367.644947 495.475632 
L 377.932386 495.660434 
L 388.219825 495.669457 
L 398.507265 495.821177 
L 408.794704 495.84323 
L 419.082143 495.556303 
L 429.369582 495.729406 
L 439.657021 495.691787 
L 449.94446 495.603797 
L 460.231899 495.600177 
L 470.519338 495.648347 
L 480.806778 495.578337 
L 491.094217 495.554597 
L 501.381656 495.536059 
L 511.669095 495.537776 
L 521.956534 495.318015 
L 532.243973 494.943909 
L 542.531412 495.67939 
L 552.818851 495.675842 
L 563.106291 495.723538 
L 573.39373 495.751757 
L 583.681169 495.740385 
L 593.968608 495.726284 
L 604.256047 494.906766 
L 614.543486 494.761642 
L 624.830925 494.951793 
L 635.118364 494.982831 
L 645.405804 494.70971 
L 655.693243 495.627987 
L 665.980682 495.633249 
L 676.268121 495.59894 
L 686.55556 495.609391 
L 696.842999 495.679497 
L 707.130438 495.684755 
L 717.417877 495.472238 
L 727.705317 495.543428 
L 737.992756 495.718567 
L 748.280195 495.664361 
" clip-path="url(#pc89d849d58)" style="fill: none; stroke: #ff7f0e; stroke-width: 1.7; stroke-linecap: square"/>
   </g>
   <g id="patch_9">
    <path d="M 56.964286 505.857143 
L 56.964286 285.551055 
" style="fill: none; stroke: #000000; stroke-width: 0.8; stroke-linejoin: miter; stroke-linecap: square"/>
   </g>
   <g id="patch_10">
    <path d="M 781.2 505.857143 
L 781.2 285.551055 
" style="fill: none; stroke: #000000; stroke-width: 0.8; stroke-linejoin: miter; stroke-linecap: square"/>
   </g>
   <g id="patch_11">
    <path d="M 56.964286 505.857143 
L 781.2 505.857143 
" style="fill: none; stroke: #000000; stroke-width: 0.8; stroke-linejoin: miter; stroke-linecap: square"/>
   </g>
   <g id="patch_12">
    <path d="M 56.964286 285.551055 
L 781.2 285.551055 
" style="fill: none; stroke: #000000; stroke-width: 0.8; stroke-linejoin: miter; stroke-linecap: square"/>
   </g>
   <g id="legend_2">
    <g id="patch_13">
     <path d="M 658.639062 322.907305 
L 774.2 322.907305 
Q 776.2 322.907305 776.2 320.907305 
L 776.2 292.551055 
Q 776.2 290.551055 774.2 290.551055 
L 658.639062 290.551055 
Q 656.639062 290.551055 656.639062 292.551055 
L 656.639062 320.907305 
Q 656.639062 322.907305 658.639062 322.907305 
z
" style="fill: #ffffff; opacity: 0.8; stroke: #cccccc; stroke-linejoin: miter"/>
    </g>
    <g id="line2d_63">
     <path d="M 660.639062 298.649492 
L 670.639062 298.649492 
L 680.639062 298.649492 
" style="fill: none; stroke: #1f77b4; stroke-width: 1.7; stroke-linecap: square"/>
    </g>
    <g id="text_28">
     <!-- PSNR (dB) -->
     <g transform="translate(688.639062 302.149492) scale(0.1 -0.1)">
      <defs>
       <path id="DejaVuSans-4e" d="M 628 4666 
L 1478 4666 
L 3547 763 
L 3547 4666 
L 4159 4666 
L 4159 0 
L 3309 0 
L 1241 3903 
L 1241 0 
L 628 0 
L 628 4666 
z
" transform="scale(0.015625)"/>
       <path id="DejaVuSans-52" d="M 2841 2188 
Q 3044 2119 3236 1894 
Q 3428 1669 3622 1275 
L 4263 0 
L 3584 0 
L 2988 1197 
Q 2756 1666 2539 1819 
Q 2322 1972 1947 1972 
L 1259 1972 
L 1259 0 
L 628 0 
L 628 4666 
L 2053 4666 
Q 2853 4666 3247 4331 
Q 3641 3997 3641 3322 
Q 3641 2881 3436 2590 
Q 3231 2300 2841 2188 
z
M 1259 4147 
L 1259 2491 
L 2053 2491 
Q 2509 2491 2742 2702 
Q 2975 2913 2975 3322 
Q 2975 3731 2742 3939 
Q 2509 4147 2053 4147 
L 1259 4147 
z
" transform="scale(0.015625)"/>
       <path id="DejaVuSans-42" d="M 1259 2228 
L 1259 519 
L 2272 519 
Q 2781 519 3026 730 
Q 3272 941 3272 1375 
Q 3272 1813 3026 2020 
Q 2781 2228 2272 2228 
L 1259 2228 
z
M 1259 4147 
L 1259 2741 
L 2194 2741 
Q 2656 2741 2882 2914 
Q 3109 3088 3109 3444 
Q 3109 3797 2882 3972 
Q 2656 4147 2194 4147 
L 1259 4147 
z
M 628 4666 
L 2241 4666 
Q 2963 4666 3353 4366 
Q 3744 4066 3744 3513 
Q 3744 3084 3544 2831 
Q 3344 2578 2956 2516 
Q 3422 2416 3680 2098 
Q 3938 1781 3938 1306 
Q 3938 681 3513 340 
Q 3088 0 2303 0 
L 628 0 
L 628 4666 
z
" transform="scale(0.015625)"/>
      </defs>
      <use xlink:href="#DejaVuSans-50"/>
      <use xlink:href="#DejaVuSans-53" transform="translate(60.302734 0)"/>
      <use xlink:href="#DejaVuSans-4e" transform="translate(123.779297 0)"/>
      <use xlink:href="#DejaVuSans-52" transform="translate(198.583984 0)"/>
      <use xlink:href="#DejaVuSans-20" transform="translate(268.066406 0)"/>
      <use xlink:href="#DejaVuSans-28" transform="translate(299.853516 0)"/>
      <use xlink:href="#DejaVuSans-64" transform="translate(338.867188 0)"/>
      <use xlink:href="#DejaVuSans-42" transform="translate(402.34375 0)"/>
      <use xlink:href="#DejaVuSans-29" transform="translate(470.947266 0)"/>
     </g>
    </g>
    <g id="line2d_64">
     <path d="M 660.639062 313.327617 
L 670.639062 313.327617 
L 680.639062 313.327617 
" style="fill: none; stroke: #ff7f0e; stroke-width: 1.7; stroke-linecap: square"/>
    </g>
    <g id="text_29">
     <!-- Error/Signal RMS -->
     <g transform="translate(688.639062 316.827617) scale(0.1 -0.1)">
      <defs>
       <path id="DejaVuSans-2f" d="M 1625 4666 
L 2156 4666 
L 531 -594 
L 0 -594 
L 1625 4666 
z
" transform="scale(0.015625)"/>
       <path id="DejaVuSans-67" d="M 2906 1791 
Q 2906 2416 2648 2759 
Q 2391 3103 1925 3103 
Q 1463 3103 1205 2759 
Q 947 2416 947 1791 
Q 947 1169 1205 825 
Q 1463 481 1925 481 
Q 2391 481 2648 825 
Q 2906 1169 2906 1791 
z
M 3481 434 
Q 3481 -459 3084 -895 
Q 2688 -1331 1869 -1331 
Q 1566 -1331 1297 -1286 
Q 1028 -1241 775 -1147 
L 775 -588 
Q 1028 -725 1275 -790 
Q 1522 -856 1778 -856 
Q 2344 -856 2625 -561 
Q 2906 -266 2906 331 
L 2906 616 
Q 2728 306 2450 153 
Q 2172 0 1784 0 
Q 1141 0 747 490 
Q 353 981 353 1791 
Q 353 2603 747 3093 
Q 1141 3584 1784 3584 
Q 2172 3584 2450 3431 
Q 2728 3278 2906 2969 
L 2906 3500 
L 3481 3500 
L 3481 434 
z
" transform="scale(0.015625)"/>
      </defs>
      <use xlink:href="#DejaVuSans-45"/>
      <use xlink:href="#DejaVuSans-72" transform="translate(63.183594 0)"/>
      <use xlink:href="#DejaVuSans-72" transform="translate(102.546875 0)"/>
      <use xlink:href="#DejaVuSans-6f" transform="translate(141.410156 0)"/>
      <use xlink:href="#DejaVuSans-72" transform="translate(202.591797 0)"/>
      <use xlink:href="#DejaVuSans-2f" transform="translate(243.705078 0)"/>
      <use xlink:href="#DejaVuSans-53" transform="translate(277.396484 0)"/>
      <use xlink:href="#DejaVuSans-69" transform="translate(340.873047 0)"/>
      <use xlink:href="#DejaVuSans-67" transform="translate(368.65625 0)"/>
      <use xlink:href="#DejaVuSans-6e" transform="translate(432.132812 0)"/>
      <use xlink:href="#DejaVuSans-61" transform="translate(495.511719 0)"/>
      <use xlink:href="#DejaVuSans-6c" transform="translate(556.791016 0)"/>
      <use xlink:href="#DejaVuSans-20" transform="translate(584.574219 0)"/>
      <use xlink:href="#DejaVuSans-52" transform="translate(616.361328 0)"/>
      <use xlink:href="#DejaVuSans-4d" transform="translate(685.84375 0)"/>
      <use xlink:href="#DejaVuSans-53" transform="translate(772.123047 0)"/>
     </g>
    </g>
   </g>
  </g>
  <g id="text_30">
   <!-- Video pair: ltx2_bf16_distilled_boxing-cats_78_0_72.mp4 vs ltx2_bf16_distilled_boxing-cats_78_1_72.mp4 -->
   <g transform="translate(106.461953 19.302281) scale(0.11 -0.11)">
    <defs>
     <path id="DejaVuSans-56" d="M 1831 0 
L 50 4666 
L 709 4666 
L 2188 738 
L 3669 4666 
L 4325 4666 
L 2547 0 
L 1831 0 
z
" transform="scale(0.015625)"/>
     <path id="DejaVuSans-3a" d="M 750 794 
L 1409 794 
L 1409 0 
L 750 0 
L 750 794 
z
M 750 3309 
L 1409 3309 
L 1409 2516 
L 750 2516 
L 750 3309 
z
" transform="scale(0.015625)"/>
     <path id="DejaVuSans-5f" d="M 3263 -1063 
L 3263 -1509 
L -63 -1509 
L -63 -1063 
L 3263 -1063 
z
" transform="scale(0.015625)"/>
     <path id="DejaVuSans-62" d="M 3116 1747 
Q 3116 2381 2855 2742 
Q 2594 3103 2138 3103 
Q 1681 3103 1420 2742 
Q 1159 2381 1159 1747 
Q 1159 1113 1420 752 
Q 1681 391 2138 391 
Q 2594 391 2855 752 
Q 3116 1113 3116 1747 
z
M 1159 2969 
Q 1341 3281 1617 3432 
Q 1894 3584 2278 3584 
Q 2916 3584 3314 3078 
Q 3713 2572 3713 1747 
Q 3713 922 3314 415 
Q 2916 -91 2278 -91 
Q 1894 -91 1617 61 
Q 1341 213 1159 525 
L 1159 0 
L 581 0 
L 581 4863 
L 1159 4863 
L 1159 2969 
z
" transform="scale(0.015625)"/>
     <path id="DejaVuSans-38" d="M 2034 2216 
Q 1584 2216 1326 1975 
Q 1069 1734 1069 1313 
Q 1069 891 1326 650 
Q 1584 409 2034 409 
Q 2484 409 2743 651 
Q 3003 894 3003 1313 
Q 3003 1734 2745 1975 
Q 2488 2216 2034 2216 
z
M 1403 2484 
Q 997 2584 770 2862 
Q 544 3141 544 3541 
Q 544 4100 942 4425 
Q 1341 4750 2034 4750 
Q 2731 4750 3128 4425 
Q 3525 4100 3525 3541 
Q 3525 3141 3298 2862 
Q 3072 2584 2669 2484 
Q 3125 2378 3379 2068 
Q 3634 1759 3634 1313 
Q 3634 634 3220 271 
Q 2806 -91 2034 -91 
Q 1263 -91 848 271 
Q 434 634 434 1313 
Q 434 1759 690 2068 
Q 947 2378 1403 2484 
z
M 1172 3481 
Q 1172 3119 1398 2916 
Q 1625 2713 2034 2713 
Q 2441 2713 2670 2916 
Q 2900 3119 2900 3481 
Q 2900 3844 2670 4047 
Q 2441 4250 2034 4250 
Q 1625 4250 1398 4047 
Q 1172 3844 1172 3481 
z
" transform="scale(0.015625)"/>
     <path id="DejaVuSans-76" d="M 191 3500 
L 800 3500 
L 1894 563 
L 2988 3500 
L 3597 3500 
L 2284 0 
L 1503 0 
L 191 3500 
z
" transform="scale(0.015625)"/>
    </defs>
    <use xlink:href="#DejaVuSans-56"/>
    <use xlink:href="#DejaVuSans-69" transform="translate(66.158203 0)"/>
    <use xlink:href="#DejaVuSans-64" transform="translate(93.941406 0)"/>
    <use xlink:href="#DejaVuSans-65" transform="translate(157.417969 0)"/>
    <use xlink:href="#DejaVuSans-6f" transform="translate(218.941406 0)"/>
    <use xlink:href="#DejaVuSans-20" transform="translate(280.123047 0)"/>
    <use xlink:href="#DejaVuSans-70" transform="translate(311.910156 0)"/>
    <use xlink:href="#DejaVuSans-61" transform="translate(375.386719 0)"/>
    <use xlink:href="#DejaVuSans-69" transform="translate(436.666016 0)"/>
    <use xlink:href="#DejaVuSans-72" transform="translate(464.449219 0)"/>
    <use xlink:href="#DejaVuSans-3a" transform="translate(503.8125 0)"/>
    <use xlink:href="#DejaVuSans-20" transform="translate(537.503906 0)"/>
    <use xlink:href="#DejaVuSans-6c" transform="translate(569.291016 0)"/>
    <use xlink:href="#DejaVuSans-74" transform="translate(597.074219 0)"/>
    <use xlink:href="#DejaVuSans-78" transform="translate(636.283203 0)"/>
    <use xlink:href="#DejaVuSans-32" transform="translate(695.462891 0)"/>
    <use xlink:href="#DejaVuSans-5f" transform="translate(759.085938 0)"/>
    <use xlink:href="#DejaVuSans-62" transform="translate(809.085938 0)"/>
    <use xlink:href="#DejaVuSans-66" transform="translate(872.5625 0)"/>
    <use xlink:href="#DejaVuSans-31" transform="translate(907.767578 0)"/>
    <use xlink:href="#DejaVuSans-36" transform="translate(971.390625 0)"/>
    <use xlink:href="#DejaVuSans-5f" transform="translate(1035.013672 0)"/>
    <use xlink:href="#DejaVuSans-64" transform="translate(1085.013672 0)"/>
    <use xlink:href="#DejaVuSans-69" transform="translate(1148.490234 0)"/>
    <use xlink:href="#DejaVuSans-73" transform="translate(1176.273438 0)"/>
    <use xlink:href="#DejaVuSans-74" transform="translate(1228.373047 0)"/>
    <use xlink:href="#DejaVuSans-69" transform="translate(1267.582031 0)"/>
    <use xlink:href="#DejaVuSans-6c" transform="translate(1295.365234 0)"/>
    <use xlink:href="#DejaVuSans-6c" transform="translate(1323.148438 0)"/>
    <use xlink:href="#DejaVuSans-65" transform="translate(1350.931641 0)"/>
    <use xlink:href="#DejaVuSans-64" transform="translate(1412.455078 0)"/>
    <use xlink:href="#DejaVuSans-5f" transform="translate(1475.931641 0)"/>
    <use xlink:href="#DejaVuSans-62" transform="translate(1525.931641 0)"/>
    <use xlink:href="#DejaVuSans-6f" transform="translate(1589.408203 0)"/>
    <use xlink:href="#DejaVuSans-78" transform="translate(1647.464844 0)"/>
    <use xlink:href="#DejaVuSans-69" transform="translate(1706.644531 0)"/>
    <use xlink:href="#DejaVuSans-6e" transform="translate(1734.427734 0)"/>
    <use xlink:href="#DejaVuSans-67" transform="translate(1797.806641 0)"/>
    <use xlink:href="#DejaVuSans-2d" transform="translate(1861.283203 0)"/>
    <use xlink:href="#DejaVuSans-63" transform="translate(1897.367188 0)"/>
    <use xlink:href="#DejaVuSans-61" transform="translate(1952.347656 0)"/>
    <use xlink:href="#DejaVuSans-74" transform="translate(2013.626953 0)"/>
    <use xlink:href="#DejaVuSans-73" transform="translate(2052.835938 0)"/>
    <use xlink:href="#DejaVuSans-5f" transform="translate(2104.935547 0)"/>
    <use xlink:href="#DejaVuSans-37" transform="translate(2154.935547 0)"/>
    <use xlink:href="#DejaVuSans-38" transform="translate(2218.558594 0)"/>
    <use xlink:href="#DejaVuSans-5f" transform="translate(2282.181641 0)"/>
    <use xlink:href="#DejaVuSans-30" transform="translate(2332.181641 0)"/>
    <use xlink:href="#DejaVuSans-5f" transform="translate(2395.804688 0)"/>
    <use xlink:href="#DejaVuSans-37" transform="translate(2445.804688 0)"/>
    <use xlink:href="#DejaVuSans-32" transform="translate(2509.427734 0)"/>
    <use xlink:href="#DejaVuSans-2e" transform="translate(2573.050781 0)"/>
    <use xlink:href="#DejaVuSans-6d" transform="translate(2604.837891 0)"/>
    <use xlink:href="#DejaVuSans-70" transform="translate(2702.25 0)"/>
    <use xlink:href="#DejaVuSans-34" transform="translate(2765.726562 0)"/>
    <use xlink:href="#DejaVuSans-20" transform="translate(2829.349609 0)"/>
    <use xlink:href="#DejaVuSans-76" transform="translate(2861.136719 0)"/>
    <use xlink:href="#DejaVuSans-73" transform="translate(2920.316406 0)"/>
    <use xlink:href="#DejaVuSans-20" transform="translate(2972.416016 0)"/>
    <use xlink:href="#DejaVuSans-6c" transform="translate(3004.203125 0)"/>
    <use xlink:href="#DejaVuSans-74" transform="translate(3031.986328 0)"/>
    <use xlink:href="#DejaVuSans-78" transform="translate(3071.195312 0)"/>
    <use xlink:href="#DejaVuSans-32" transform="translate(3130.375 0)"/>
    <use xlink:href="#DejaVuSans-5f" transform="translate(3193.998047 0)"/>
    <use xlink:href="#DejaVuSans-62" transform="translate(3243.998047 0)"/>
    <use xlink:href="#DejaVuSans-66" transform="translate(3307.474609 0)"/>
    <use xlink:href="#DejaVuSans-31" transform="translate(3342.679688 0)"/>
    <use xlink:href="#DejaVuSans-36" transform="translate(3406.302734 0)"/>
    <use xlink:href="#DejaVuSans-5f" transform="translate(3469.925781 0)"/>
    <use xlink:href="#DejaVuSans-64" transform="translate(3519.925781 0)"/>
    <use xlink:href="#DejaVuSans-69" transform="translate(3583.402344 0)"/>
    <use xlink:href="#DejaVuSans-73" transform="translate(3611.185547 0)"/>
    <use xlink:href="#DejaVuSans-74" transform="translate(3663.285156 0)"/>
    <use xlink:href="#DejaVuSans-69" transform="translate(3702.494141 0)"/>
    <use xlink:href="#DejaVuSans-6c" transform="translate(3730.277344 0)"/>
    <use xlink:href="#DejaVuSans-6c" transform="translate(3758.060547 0)"/>
    <use xlink:href="#DejaVuSans-65" transform="translate(3785.84375 0)"/>
    <use xlink:href="#DejaVuSans-64" transform="translate(3847.367188 0)"/>
    <use xlink:href="#DejaVuSans-5f" transform="translate(3910.84375 0)"/>
    <use xlink:href="#DejaVuSans-62" transform="translate(3960.84375 0)"/>
    <use xlink:href="#DejaVuSans-6f" transform="translate(4024.320312 0)"/>
    <use xlink:href="#DejaVuSans-78" transform="translate(4082.376953 0)"/>
    <use xlink:href="#DejaVuSans-69" transform="translate(4141.556641 0)"/>
    <use xlink:href="#DejaVuSans-6e" transform="translate(4169.339844 0)"/>
    <use xlink:href="#DejaVuSans-67" transform="translate(4232.71875 0)"/>
    <use xlink:href="#DejaVuSans-2d" transform="translate(4296.195312 0)"/>
    <use xlink:href="#DejaVuSans-63" transform="translate(4332.279297 0)"/>
    <use xlink:href="#DejaVuSans-61" transform="translate(4387.259766 0)"/>
    <use xlink:href="#DejaVuSans-74" transform="translate(4448.539062 0)"/>
    <use xlink:href="#DejaVuSans-73" transform="translate(4487.748047 0)"/>
    <use xlink:href="#DejaVuSans-5f" transform="translate(4539.847656 0)"/>
    <use xlink:href="#DejaVuSans-37" transform="translate(4589.847656 0)"/>
    <use xlink:href="#DejaVuSans-38" transform="translate(4653.470703 0)"/>
    <use xlink:href="#DejaVuSans-5f" transform="translate(4717.09375 0)"/>
    <use xlink:href="#DejaVuSans-31" transform="translate(4767.09375 0)"/>
    <use xlink:href="#DejaVuSans-5f" transform="translate(4830.716797 0)"/>
    <use xlink:href="#DejaVuSans-37" transform="translate(4880.716797 0)"/>
    <use xlink:href="#DejaVuSans-32" transform="translate(4944.339844 0)"/>
    <use xlink:href="#DejaVuSans-2e" transform="translate(5007.962891 0)"/>
    <use xlink:href="#DejaVuSans-6d" transform="translate(5039.75 0)"/>
    <use xlink:href="#DejaVuSans-70" transform="translate(5137.162109 0)"/>
    <use xlink:href="#DejaVuSans-34" transform="translate(5200.638672 0)"/>
   </g>
  </g>
 </g>
 <defs>
  <clipPath id="p470b232a8f">
   <rect x="56.964286" y="47.657143" width="724.235714" height="220.306088"/>
  </clipPath>
  <clipPath id="pc89d849d58">
   <rect x="56.964286" y="285.551055" width="724.235714" height="220.306088"/>
  </clipPath>
 </defs>
</svg>
