<?xml version="1.0" encoding="utf-8" standalone="no"?>
<!DOCTYPE svg PUBLIC "-//W3C//DTD SVG 1.1//EN"
  "http://www.w3.org/Graphics/SVG/1.1/DTD/svg11.dtd">
<svg xmlns:xlink="http://www.w3.org/1999/xlink" width="972pt" height="374.4pt" viewBox="0 0 972 374.4" xmlns="http://www.w3.org/2000/svg" version="1.1">
 <metadata>
  <rdf:RDF xmlns:dc="http://purl.org/dc/elements/1.1/" xmlns:cc="http://creativecommons.org/ns#" xmlns:rdf="http://www.w3.org/1999/02/22-rdf-syntax-ns#">
   <cc:Work>
    <dc:type rdf:resource="http://purl.org/dc/dcmitype/StillImage"/>
    <dc:date>2026-02-17T09:51:46.152014</dc:date>
    <dc:format>image/svg+xml</dc:format>
    <dc:creator>
     <cc:Agent>
      <dc:title>Matplotlib v3.10.8, https://matplotlib.org/</dc:title>
     </cc:Agent>
    </dc:creator>
   </cc:Work>
  </rdf:RDF>
 </metadata>
 <defs>
  <style type="text/css">*{stroke-linejoin: round; stroke-linecap: butt}</style>
 </defs>
 <g id="figure_1">
  <g id="patch_1">
   <path d="M 0 374.4 
L 972 374.4 
L 972 0 
L 0 0 
z
" style="fill: #ffffff"/>
  </g>
  <g id="axes_1">
   <g id="patch_2">
    <path d="M 63.2 328.602563 
L 480.6 328.602563 
L 480.6 47.142857 
L 63.2 47.142857 
z
" style="fill: #ffffff"/>
   </g>
   <g id="matplotlib.axis_1">
    <g id="xtick_1">
     <g id="line2d_1">
      <path d="M 64.909415 328.602563 
L 64.909415 47.142857 
" clip-path="url(#paf3d65fa56)" style="fill: none; stroke: #b0b0b0; stroke-opacity: 0.25; stroke-width: 0.8; stroke-linecap: square"/>
     </g>
     <g id="line2d_2">
      <defs>
       <path id="mfd13137c21" d="M 0 0 
L 0 3.5 
" style="stroke: #000000; stroke-width: 0.8"/>
      </defs>
      <g>
       <use xlink:href="#mfd13137c21" x="64.909415" y="328.602563" style="stroke: #000000; stroke-width: 0.8"/>
      </g>
     </g>
     <g id="text_1">
      <!-- 0 -->
      <g transform="translate(61.728165 343.201001) scale(0.1 -0.1)">
       <defs>
        <path id="DejaVuSans-30" d="M 2034 4250 
Q 1547 4250 1301 3770 
Q 1056 3291 1056 2328 
Q 1056 1369 1301 889 
Q 1547 409 2034 409 
Q 2525 409 2770 889 
Q 3016 1369 3016 2328 
Q 3016 3291 2770 3770 
Q 2525 4250 2034 4250 
z
M 2034 4750 
Q 2819 4750 3233 4129 
Q 3647 3509 3647 2328 
Q 3647 1150 3233 529 
Q 2819 -91 2034 -91 
Q 1250 -91 836 529 
Q 422 1150 422 2328 
Q 422 3509 836 4129 
Q 1250 4750 2034 4750 
z
" transform="scale(0.015625)"/>
       </defs>
       <use xlink:href="#DejaVuSans-30"/>
      </g>
     </g>
    </g>
    <g id="xtick_2">
     <g id="line2d_3">
      <path d="M 126.873924 328.602563 
L 126.873924 47.142857 
" clip-path="url(#paf3d65fa56)" style="fill: none; stroke: #b0b0b0; stroke-opacity: 0.25; stroke-width: 0.8; stroke-linecap: square"/>
     </g>
     <g id="line2d_4">
      <g>
       <use xlink:href="#mfd13137c21" x="126.873924" y="328.602563" style="stroke: #000000; stroke-width: 0.8"/>
      </g>
     </g>
     <g id="text_2">
      <!-- 50 -->
      <g transform="translate(120.511424 343.201001) scale(0.1 -0.1)">
       <defs>
        <path id="DejaVuSans-35" d="M 691 4666 
L 3169 4666 
L 3169 4134 
L 1269 4134 
L 1269 2991 
Q 1406 3038 1543 3061 
Q 1681 3084 1819 3084 
Q 2600 3084 3056 2656 
Q 3513 2228 3513 1497 
Q 3513 744 3044 326 
Q 2575 -91 1722 -91 
Q 1428 -91 1123 -41 
Q 819 9 494 109 
L 494 744 
Q 775 591 1075 516 
Q 1375 441 1709 441 
Q 2250 441 2565 725 
Q 2881 1009 2881 1497 
Q 2881 1984 2565 2268 
Q 2250 2553 1709 2553 
Q 1456 2553 1204 2497 
Q 953 2441 691 2322 
L 691 4666 
z
" transform="scale(0.015625)"/>
       </defs>
       <use xlink:href="#DejaVuSans-35"/>
       <use xlink:href="#DejaVuSans-30" transform="translate(63.623047 0)"/>
      </g>
     </g>
    </g>
    <g id="xtick_3">
     <g id="line2d_5">
      <path d="M 188.838434 328.602563 
L 188.838434 47.142857 
" clip-path="url(#paf3d65fa56)" style="fill: none; stroke: #b0b0b0; stroke-opacity: 0.25; stroke-width: 0.8; stroke-linecap: square"/>
     </g>
     <g id="line2d_6">
      <g>
       <use xlink:href="#mfd13137c21" x="188.838434" y="328.602563" style="stroke: #000000; stroke-width: 0.8"/>
      </g>
     </g>
     <g id="text_3">
      <!-- 100 -->
      <g transform="translate(179.294684 343.201001) scale(0.1 -0.1)">
       <defs>
        <path id="DejaVuSans-31" d="M 794 531 
L 1825 531 
L 1825 4091 
L 703 3866 
L 703 4441 
L 1819 4666 
L 2450 4666 
L 2450 531 
L 3481 531 
L 3481 0 
L 794 0 
L 794 531 
z
" transform="scale(0.015625)"/>
       </defs>
       <use xlink:href="#DejaVuSans-31"/>
       <use xlink:href="#DejaVuSans-30" transform="translate(63.623047 0)"/>
       <use xlink:href="#DejaVuSans-30" transform="translate(127.246094 0)"/>
      </g>
     </g>
    </g>
    <g id="xtick_4">
     <g id="line2d_7">
      <path d="M 250.802943 328.602563 
L 250.802943 47.142857 
" clip-path="url(#paf3d65fa56)" style="fill: none; stroke: #b0b0b0; stroke-opacity: 0.25; stroke-width: 0.8; stroke-linecap: square"/>
     </g>
     <g id="line2d_8">
      <g>
       <use xlink:href="#mfd13137c21" x="250.802943" y="328.602563" style="stroke: #000000; stroke-width: 0.8"/>
      </g>
     </g>
     <g id="text_4">
      <!-- 150 -->
      <g transform="translate(241.259193 343.201001) scale(0.1 -0.1)">
       <use xlink:href="#DejaVuSans-31"/>
       <use xlink:href="#DejaVuSans-35" transform="translate(63.623047 0)"/>
       <use xlink:href="#DejaVuSans-30" transform="translate(127.246094 0)"/>
      </g>
     </g>
    </g>
    <g id="xtick_5">
     <g id="line2d_9">
      <path d="M 312.767453 328.602563 
L 312.767453 47.142857 
" clip-path="url(#paf3d65fa56)" style="fill: none; stroke: #b0b0b0; stroke-opacity: 0.25; stroke-width: 0.8; stroke-linecap: square"/>
     </g>
     <g id="line2d_10">
      <g>
       <use xlink:href="#mfd13137c21" x="312.767453" y="328.602563" style="stroke: #000000; stroke-width: 0.8"/>
      </g>
     </g>
     <g id="text_5">
      <!-- 200 -->
      <g transform="translate(303.223703 343.201001) scale(0.1 -0.1)">
       <defs>
        <path id="DejaVuSans-32" d="M 1228 531 
L 3431 531 
L 3431 0 
L 469 0 
L 469 531 
Q 828 903 1448 1529 
Q 2069 2156 2228 2338 
Q 2531 2678 2651 2914 
Q 2772 3150 2772 3378 
Q 2772 3750 2511 3984 
Q 2250 4219 1831 4219 
Q 1534 4219 1204 4116 
Q 875 4013 500 3803 
L 500 4441 
Q 881 4594 1212 4672 
Q 1544 4750 1819 4750 
Q 2544 4750 2975 4387 
Q 3406 4025 3406 3419 
Q 3406 3131 3298 2873 
Q 3191 2616 2906 2266 
Q 2828 2175 2409 1742 
Q 1991 1309 1228 531 
z
" transform="scale(0.015625)"/>
       </defs>
       <use xlink:href="#DejaVuSans-32"/>
       <use xlink:href="#DejaVuSans-30" transform="translate(63.623047 0)"/>
       <use xlink:href="#DejaVuSans-30" transform="translate(127.246094 0)"/>
      </g>
     </g>
    </g>
    <g id="xtick_6">
     <g id="line2d_11">
      <path d="M 374.731962 328.602563 
L 374.731962 47.142857 
" clip-path="url(#paf3d65fa56)" style="fill: none; stroke: #b0b0b0; stroke-opacity: 0.25; stroke-width: 0.8; stroke-linecap: square"/>
     </g>
     <g id="line2d_12">
      <g>
       <use xlink:href="#mfd13137c21" x="374.731962" y="328.602563" style="stroke: #000000; stroke-width: 0.8"/>
      </g>
     </g>
     <g id="text_6">
      <!-- 250 -->
      <g transform="translate(365.188212 343.201001) scale(0.1 -0.1)">
       <use xlink:href="#DejaVuSans-32"/>
       <use xlink:href="#DejaVuSans-35" transform="translate(63.623047 0)"/>
       <use xlink:href="#DejaVuSans-30" transform="translate(127.246094 0)"/>
      </g>
     </g>
    </g>
    <g id="xtick_7">
     <g id="line2d_13">
      <path d="M 436.696472 328.602563 
L 436.696472 47.142857 
" clip-path="url(#paf3d65fa56)" style="fill: none; stroke: #b0b0b0; stroke-opacity: 0.25; stroke-width: 0.8; stroke-linecap: square"/>
     </g>
     <g id="line2d_14">
      <g>
       <use xlink:href="#mfd13137c21" x="436.696472" y="328.602563" style="stroke: #000000; stroke-width: 0.8"/>
      </g>
     </g>
     <g id="text_7">
      <!-- 300 -->
      <g transform="translate(427.152722 343.201001) scale(0.1 -0.1)">
       <defs>
        <path id="DejaVuSans-33" d="M 2597 2516 
Q 3050 2419 3304 2112 
Q 3559 1806 3559 1356 
Q 3559 666 3084 287 
Q 2609 -91 1734 -91 
Q 1441 -91 1130 -33 
Q 819 25 488 141 
L 488 750 
Q 750 597 1062 519 
Q 1375 441 1716 441 
Q 2309 441 2620 675 
Q 2931 909 2931 1356 
Q 2931 1769 2642 2001 
Q 2353 2234 1838 2234 
L 1294 2234 
L 1294 2753 
L 1863 2753 
Q 2328 2753 2575 2939 
Q 2822 3125 2822 3475 
Q 2822 3834 2567 4026 
Q 2313 4219 1838 4219 
Q 1578 4219 1281 4162 
Q 984 4106 628 3988 
L 628 4550 
Q 988 4650 1302 4700 
Q 1616 4750 1894 4750 
Q 2613 4750 3031 4423 
Q 3450 4097 3450 3541 
Q 3450 3153 3228 2886 
Q 3006 2619 2597 2516 
z
" transform="scale(0.015625)"/>
       </defs>
       <use xlink:href="#DejaVuSans-33"/>
       <use xlink:href="#DejaVuSans-30" transform="translate(63.623047 0)"/>
       <use xlink:href="#DejaVuSans-30" transform="translate(127.246094 0)"/>
      </g>
     </g>
    </g>
    <g id="text_8">
     <!-- Elapsed time (s) -->
     <g transform="translate(231.277344 356.879126) scale(0.1 -0.1)">
      <defs>
       <path id="DejaVuSans-45" d="M 628 4666 
L 3578 4666 
L 3578 4134 
L 1259 4134 
L 1259 2753 
L 3481 2753 
L 3481 2222 
L 1259 2222 
L 1259 531 
L 3634 531 
L 3634 0 
L 628 0 
L 628 4666 
z
" transform="scale(0.015625)"/>
       <path id="DejaVuSans-6c" d="M 603 4863 
L 1178 4863 
L 1178 0 
L 603 0 
L 603 4863 
z
" transform="scale(0.015625)"/>
       <path id="DejaVuSans-61" d="M 2194 1759 
Q 1497 1759 1228 1600 
Q 959 1441 959 1056 
Q 959 750 1161 570 
Q 1363 391 1709 391 
Q 2188 391 2477 730 
Q 2766 1069 2766 1631 
L 2766 1759 
L 2194 1759 
z
M 3341 1997 
L 3341 0 
L 2766 0 
L 2766 531 
Q 2569 213 2275 61 
Q 1981 -91 1556 -91 
Q 1019 -91 701 211 
Q 384 513 384 1019 
Q 384 1609 779 1909 
Q 1175 2209 1959 2209 
L 2766 2209 
L 2766 2266 
Q 2766 2663 2505 2880 
Q 2244 3097 1772 3097 
Q 1472 3097 1187 3025 
Q 903 2953 641 2809 
L 641 3341 
Q 956 3463 1253 3523 
Q 1550 3584 1831 3584 
Q 2591 3584 2966 3190 
Q 3341 2797 3341 1997 
z
" transform="scale(0.015625)"/>
       <path id="DejaVuSans-70" d="M 1159 525 
L 1159 -1331 
L 581 -1331 
L 581 3500 
L 1159 3500 
L 1159 2969 
Q 1341 3281 1617 3432 
Q 1894 3584 2278 3584 
Q 2916 3584 3314 3078 
Q 3713 2572 3713 1747 
Q 3713 922 3314 415 
Q 2916 -91 2278 -91 
Q 1894 -91 1617 61 
Q 1341 213 1159 525 
z
M 3116 1747 
Q 3116 2381 2855 2742 
Q 2594 3103 2138 3103 
Q 1681 3103 1420 2742 
Q 1159 2381 1159 1747 
Q 1159 1113 1420 752 
Q 1681 391 2138 391 
Q 2594 391 2855 752 
Q 3116 1113 3116 1747 
z
" transform="scale(0.015625)"/>
       <path id="DejaVuSans-73" d="M 2834 3397 
L 2834 2853 
Q 2591 2978 2328 3040 
Q 2066 3103 1784 3103 
Q 1356 3103 1142 2972 
Q 928 2841 928 2578 
Q 928 2378 1081 2264 
Q 1234 2150 1697 2047 
L 1894 2003 
Q 2506 1872 2764 1633 
Q 3022 1394 3022 966 
Q 3022 478 2636 193 
Q 2250 -91 1575 -91 
Q 1294 -91 989 -36 
Q 684 19 347 128 
L 347 722 
Q 666 556 975 473 
Q 1284 391 1588 391 
Q 1994 391 2212 530 
Q 2431 669 2431 922 
Q 2431 1156 2273 1281 
Q 2116 1406 1581 1522 
L 1381 1569 
Q 847 1681 609 1914 
Q 372 2147 372 2553 
Q 372 3047 722 3315 
Q 1072 3584 1716 3584 
Q 2034 3584 2315 3537 
Q 2597 3491 2834 3397 
z
" transform="scale(0.015625)"/>
       <path id="DejaVuSans-65" d="M 3597 1894 
L 3597 1613 
L 953 1613 
Q 991 1019 1311 708 
Q 1631 397 2203 397 
Q 2534 397 2845 478 
Q 3156 559 3463 722 
L 3463 178 
Q 3153 47 2828 -22 
Q 2503 -91 2169 -91 
Q 1331 -91 842 396 
Q 353 884 353 1716 
Q 353 2575 817 3079 
Q 1281 3584 2069 3584 
Q 2775 3584 3186 3129 
Q 3597 2675 3597 1894 
z
M 3022 2063 
Q 3016 2534 2758 2815 
Q 2500 3097 2075 3097 
Q 1594 3097 1305 2825 
Q 1016 2553 972 2059 
L 3022 2063 
z
" transform="scale(0.015625)"/>
       <path id="DejaVuSans-64" d="M 2906 2969 
L 2906 4863 
L 3481 4863 
L 3481 0 
L 2906 0 
L 2906 525 
Q 2725 213 2448 61 
Q 2172 -91 1784 -91 
Q 1150 -91 751 415 
Q 353 922 353 1747 
Q 353 2572 751 3078 
Q 1150 3584 1784 3584 
Q 2172 3584 2448 3432 
Q 2725 3281 2906 2969 
z
M 947 1747 
Q 947 1113 1208 752 
Q 1469 391 1925 391 
Q 2381 391 2643 752 
Q 2906 1113 2906 1747 
Q 2906 2381 2643 2742 
Q 2381 3103 1925 3103 
Q 1469 3103 1208 2742 
Q 947 2381 947 1747 
z
" transform="scale(0.015625)"/>
       <path id="DejaVuSans-20" transform="scale(0.015625)"/>
       <path id="DejaVuSans-74" d="M 1172 4494 
L 1172 3500 
L 2356 3500 
L 2356 3053 
L 1172 3053 
L 1172 1153 
Q 1172 725 1289 603 
Q 1406 481 1766 481 
L 2356 481 
L 2356 0 
L 1766 0 
Q 1100 0 847 248 
Q 594 497 594 1153 
L 594 3053 
L 172 3053 
L 172 3500 
L 594 3500 
L 594 4494 
L 1172 4494 
z
" transform="scale(0.015625)"/>
       <path id="DejaVuSans-69" d="M 603 3500 
L 1178 3500 
L 1178 0 
L 603 0 
L 603 3500 
z
M 603 4863 
L 1178 4863 
L 1178 4134 
L 603 4134 
L 603 4863 
z
" transform="scale(0.015625)"/>
       <path id="DejaVuSans-6d" d="M 3328 2828 
Q 3544 3216 3844 3400 
Q 4144 3584 4550 3584 
Q 5097 3584 5394 3201 
Q 5691 2819 5691 2113 
L 5691 0 
L 5113 0 
L 5113 2094 
Q 5113 2597 4934 2840 
Q 4756 3084 4391 3084 
Q 3944 3084 3684 2787 
Q 3425 2491 3425 1978 
L 3425 0 
L 2847 0 
L 2847 2094 
Q 2847 2600 2669 2842 
Q 2491 3084 2119 3084 
Q 1678 3084 1418 2786 
Q 1159 2488 1159 1978 
L 1159 0 
L 581 0 
L 581 3500 
L 1159 3500 
L 1159 2956 
Q 1356 3278 1631 3431 
Q 1906 3584 2284 3584 
Q 2666 3584 2933 3390 
Q 3200 3197 3328 2828 
z
" transform="scale(0.015625)"/>
       <path id="DejaVuSans-28" d="M 1984 4856 
Q 1566 4138 1362 3434 
Q 1159 2731 1159 2009 
Q 1159 1288 1364 580 
Q 1569 -128 1984 -844 
L 1484 -844 
Q 1016 -109 783 600 
Q 550 1309 550 2009 
Q 550 2706 781 3412 
Q 1013 4119 1484 4856 
L 1984 4856 
z
" transform="scale(0.015625)"/>
       <path id="DejaVuSans-29" d="M 513 4856 
L 1013 4856 
Q 1481 4119 1714 3412 
Q 1947 2706 1947 2009 
Q 1947 1309 1714 600 
Q 1481 -109 1013 -844 
L 513 -844 
Q 928 -128 1133 580 
Q 1338 1288 1338 2009 
Q 1338 2731 1133 3434 
Q 928 4138 513 4856 
z
" transform="scale(0.015625)"/>
      </defs>
      <use xlink:href="#DejaVuSans-45"/>
      <use xlink:href="#DejaVuSans-6c" transform="translate(63.183594 0)"/>
      <use xlink:href="#DejaVuSans-61" transform="translate(90.966797 0)"/>
      <use xlink:href="#DejaVuSans-70" transform="translate(152.246094 0)"/>
      <use xlink:href="#DejaVuSans-73" transform="translate(215.722656 0)"/>
      <use xlink:href="#DejaVuSans-65" transform="translate(267.822266 0)"/>
      <use xlink:href="#DejaVuSans-64" transform="translate(329.345703 0)"/>
      <use xlink:href="#DejaVuSans-20" transform="translate(392.822266 0)"/>
      <use xlink:href="#DejaVuSans-74" transform="translate(424.609375 0)"/>
      <use xlink:href="#DejaVuSans-69" transform="translate(463.818359 0)"/>
      <use xlink:href="#DejaVuSans-6d" transform="translate(491.601562 0)"/>
      <use xlink:href="#DejaVuSans-65" transform="translate(589.013672 0)"/>
      <use xlink:href="#DejaVuSans-20" transform="translate(650.537109 0)"/>
      <use xlink:href="#DejaVuSans-28" transform="translate(682.324219 0)"/>
      <use xlink:href="#DejaVuSans-73" transform="translate(721.337891 0)"/>
      <use xlink:href="#DejaVuSans-29" transform="translate(773.4375 0)"/>
     </g>
    </g>
   </g>
   <g id="matplotlib.axis_2">
    <g id="ytick_1">
     <g id="line2d_15">
      <path d="M 63.2 319.995446 
L 480.6 319.995446 
" clip-path="url(#paf3d65fa56)" style="fill: none; stroke: #b0b0b0; stroke-opacity: 0.25; stroke-width: 0.8; stroke-linecap: square"/>
     </g>
     <g id="line2d_16">
      <defs>
       <path id="mef912f58af" d="M 0 0 
L -3.5 0 
" style="stroke: #000000; stroke-width: 0.8"/>
      </defs>
      <g>
       <use xlink:href="#mef912f58af" x="63.2" y="319.995446" style="stroke: #000000; stroke-width: 0.8"/>
      </g>
     </g>
     <g id="text_9">
      <!-- 0 -->
      <g transform="translate(49.8375 323.794665) scale(0.1 -0.1)">
       <use xlink:href="#DejaVuSans-30"/>
      </g>
     </g>
    </g>
    <g id="ytick_2">
     <g id="line2d_17">
      <path d="M 63.2 280.372642 
L 480.6 280.372642 
" clip-path="url(#paf3d65fa56)" style="fill: none; stroke: #b0b0b0; stroke-opacity: 0.25; stroke-width: 0.8; stroke-linecap: square"/>
     </g>
     <g id="line2d_18">
      <g>
       <use xlink:href="#mef912f58af" x="63.2" y="280.372642" style="stroke: #000000; stroke-width: 0.8"/>
      </g>
     </g>
     <g id="text_10">
      <!-- 10000 -->
      <g transform="translate(24.3875 284.171861) scale(0.1 -0.1)">
       <use xlink:href="#DejaVuSans-31"/>
       <use xlink:href="#DejaVuSans-30" transform="translate(63.623047 0)"/>
       <use xlink:href="#DejaVuSans-30" transform="translate(127.246094 0)"/>
       <use xlink:href="#DejaVuSans-30" transform="translate(190.869141 0)"/>
       <use xlink:href="#DejaVuSans-30" transform="translate(254.492188 0)"/>
      </g>
     </g>
    </g>
    <g id="ytick_3">
     <g id="line2d_19">
      <path d="M 63.2 240.749838 
L 480.6 240.749838 
" clip-path="url(#paf3d65fa56)" style="fill: none; stroke: #b0b0b0; stroke-opacity: 0.25; stroke-width: 0.8; stroke-linecap: square"/>
     </g>
     <g id="line2d_20">
      <g>
       <use xlink:href="#mef912f58af" x="63.2" y="240.749838" style="stroke: #000000; stroke-width: 0.8"/>
      </g>
     </g>
     <g id="text_11">
      <!-- 20000 -->
      <g transform="translate(24.3875 244.549057) scale(0.1 -0.1)">
       <use xlink:href="#DejaVuSans-32"/>
       <use xlink:href="#DejaVuSans-30" transform="translate(63.623047 0)"/>
       <use xlink:href="#DejaVuSans-30" transform="translate(127.246094 0)"/>
       <use xlink:href="#DejaVuSans-30" transform="translate(190.869141 0)"/>
       <use xlink:href="#DejaVuSans-30" transform="translate(254.492188 0)"/>
      </g>
     </g>
    </g>
    <g id="ytick_4">
     <g id="line2d_21">
      <path d="M 63.2 201.127034 
L 480.6 201.127034 
" clip-path="url(#paf3d65fa56)" style="fill: none; stroke: #b0b0b0; stroke-opacity: 0.25; stroke-width: 0.8; stroke-linecap: square"/>
     </g>
     <g id="line2d_22">
      <g>
       <use xlink:href="#mef912f58af" x="63.2" y="201.127034" style="stroke: #000000; stroke-width: 0.8"/>
      </g>
     </g>
     <g id="text_12">
      <!-- 30000 -->
      <g transform="translate(24.3875 204.926252) scale(0.1 -0.1)">
       <use xlink:href="#DejaVuSans-33"/>
       <use xlink:href="#DejaVuSans-30" transform="translate(63.623047 0)"/>
       <use xlink:href="#DejaVuSans-30" transform="translate(127.246094 0)"/>
       <use xlink:href="#DejaVuSans-30" transform="translate(190.869141 0)"/>
       <use xlink:href="#DejaVuSans-30" transform="translate(254.492188 0)"/>
      </g>
     </g>
    </g>
    <g id="ytick_5">
     <g id="line2d_23">
      <path d="M 63.2 161.504229 
L 480.6 161.504229 
" clip-path="url(#paf3d65fa56)" style="fill: none; stroke: #b0b0b0; stroke-opacity: 0.25; stroke-width: 0.8; stroke-linecap: square"/>
     </g>
     <g id="line2d_24">
      <g>
       <use xlink:href="#mef912f58af" x="63.2" y="161.504229" style="stroke: #000000; stroke-width: 0.8"/>
      </g>
     </g>
     <g id="text_13">
      <!-- 40000 -->
      <g transform="translate(24.3875 165.303448) scale(0.1 -0.1)">
       <defs>
        <path id="DejaVuSans-34" d="M 2419 4116 
L 825 1625 
L 2419 1625 
L 2419 4116 
z
M 2253 4666 
L 3047 4666 
L 3047 1625 
L 3713 1625 
L 3713 1100 
L 3047 1100 
L 3047 0 
L 2419 0 
L 2419 1100 
L 313 1100 
L 313 1709 
L 2253 4666 
z
" transform="scale(0.015625)"/>
       </defs>
       <use xlink:href="#DejaVuSans-34"/>
       <use xlink:href="#DejaVuSans-30" transform="translate(63.623047 0)"/>
       <use xlink:href="#DejaVuSans-30" transform="translate(127.246094 0)"/>
       <use xlink:href="#DejaVuSans-30" transform="translate(190.869141 0)"/>
       <use xlink:href="#DejaVuSans-30" transform="translate(254.492188 0)"/>
      </g>
     </g>
    </g>
    <g id="ytick_6">
     <g id="line2d_25">
      <path d="M 63.2 121.881425 
L 480.6 121.881425 
" clip-path="url(#paf3d65fa56)" style="fill: none; stroke: #b0b0b0; stroke-opacity: 0.25; stroke-width: 0.8; stroke-linecap: square"/>
     </g>
     <g id="line2d_26">
      <g>
       <use xlink:href="#mef912f58af" x="63.2" y="121.881425" style="stroke: #000000; stroke-width: 0.8"/>
      </g>
     </g>
     <g id="text_14">
      <!-- 50000 -->
      <g transform="translate(24.3875 125.680644) scale(0.1 -0.1)">
       <use xlink:href="#DejaVuSans-35"/>
       <use xlink:href="#DejaVuSans-30" transform="translate(63.623047 0)"/>
       <use xlink:href="#DejaVuSans-30" transform="translate(127.246094 0)"/>
       <use xlink:href="#DejaVuSans-30" transform="translate(190.869141 0)"/>
       <use xlink:href="#DejaVuSans-30" transform="translate(254.492188 0)"/>
      </g>
     </g>
    </g>
    <g id="ytick_7">
     <g id="line2d_27">
      <path d="M 63.2 82.258621 
L 480.6 82.258621 
" clip-path="url(#paf3d65fa56)" style="fill: none; stroke: #b0b0b0; stroke-opacity: 0.25; stroke-width: 0.8; stroke-linecap: square"/>
     </g>
     <g id="line2d_28">
      <g>
       <use xlink:href="#mef912f58af" x="63.2" y="82.258621" style="stroke: #000000; stroke-width: 0.8"/>
      </g>
     </g>
     <g id="text_15">
      <!-- 60000 -->
      <g transform="translate(24.3875 86.05784) scale(0.1 -0.1)">
       <defs>
        <path id="DejaVuSans-36" d="M 2113 2584 
Q 1688 2584 1439 2293 
Q 1191 2003 1191 1497 
Q 1191 994 1439 701 
Q 1688 409 2113 409 
Q 2538 409 2786 701 
Q 3034 994 3034 1497 
Q 3034 2003 2786 2293 
Q 2538 2584 2113 2584 
z
M 3366 4563 
L 3366 3988 
Q 3128 4100 2886 4159 
Q 2644 4219 2406 4219 
Q 1781 4219 1451 3797 
Q 1122 3375 1075 2522 
Q 1259 2794 1537 2939 
Q 1816 3084 2150 3084 
Q 2853 3084 3261 2657 
Q 3669 2231 3669 1497 
Q 3669 778 3244 343 
Q 2819 -91 2113 -91 
Q 1303 -91 875 529 
Q 447 1150 447 2328 
Q 447 3434 972 4092 
Q 1497 4750 2381 4750 
Q 2619 4750 2861 4703 
Q 3103 4656 3366 4563 
z
" transform="scale(0.015625)"/>
       </defs>
       <use xlink:href="#DejaVuSans-36"/>
       <use xlink:href="#DejaVuSans-30" transform="translate(63.623047 0)"/>
       <use xlink:href="#DejaVuSans-30" transform="translate(127.246094 0)"/>
       <use xlink:href="#DejaVuSans-30" transform="translate(190.869141 0)"/>
       <use xlink:href="#DejaVuSans-30" transform="translate(254.492188 0)"/>
      </g>
     </g>
    </g>
    <g id="text_16">
     <!-- Allocated memory (MB) -->
     <g transform="translate(18.307812 246.870367) rotate(-90) scale(0.1 -0.1)">
      <defs>
       <path id="DejaVuSans-41" d="M 2188 4044 
L 1331 1722 
L 3047 1722 
L 2188 4044 
z
M 1831 4666 
L 2547 4666 
L 4325 0 
L 3669 0 
L 3244 1197 
L 1141 1197 
L 716 0 
L 50 0 
L 1831 4666 
z
" transform="scale(0.015625)"/>
       <path id="DejaVuSans-6f" d="M 1959 3097 
Q 1497 3097 1228 2736 
Q 959 2375 959 1747 
Q 959 1119 1226 758 
Q 1494 397 1959 397 
Q 2419 397 2687 759 
Q 2956 1122 2956 1747 
Q 2956 2369 2687 2733 
Q 2419 3097 1959 3097 
z
M 1959 3584 
Q 2709 3584 3137 3096 
Q 3566 2609 3566 1747 
Q 3566 888 3137 398 
Q 2709 -91 1959 -91 
Q 1206 -91 779 398 
Q 353 888 353 1747 
Q 353 2609 779 3096 
Q 1206 3584 1959 3584 
z
" transform="scale(0.015625)"/>
       <path id="DejaVuSans-63" d="M 3122 3366 
L 3122 2828 
Q 2878 2963 2633 3030 
Q 2388 3097 2138 3097 
Q 1578 3097 1268 2742 
Q 959 2388 959 1747 
Q 959 1106 1268 751 
Q 1578 397 2138 397 
Q 2388 397 2633 464 
Q 2878 531 3122 666 
L 3122 134 
Q 2881 22 2623 -34 
Q 2366 -91 2075 -91 
Q 1284 -91 818 406 
Q 353 903 353 1747 
Q 353 2603 823 3093 
Q 1294 3584 2113 3584 
Q 2378 3584 2631 3529 
Q 2884 3475 3122 3366 
z
" transform="scale(0.015625)"/>
       <path id="DejaVuSans-72" d="M 2631 2963 
Q 2534 3019 2420 3045 
Q 2306 3072 2169 3072 
Q 1681 3072 1420 2755 
Q 1159 2438 1159 1844 
L 1159 0 
L 581 0 
L 581 3500 
L 1159 3500 
L 1159 2956 
Q 1341 3275 1631 3429 
Q 1922 3584 2338 3584 
Q 2397 3584 2469 3576 
Q 2541 3569 2628 3553 
L 2631 2963 
z
" transform="scale(0.015625)"/>
       <path id="DejaVuSans-79" d="M 2059 -325 
Q 1816 -950 1584 -1140 
Q 1353 -1331 966 -1331 
L 506 -1331 
L 506 -850 
L 844 -850 
Q 1081 -850 1212 -737 
Q 1344 -625 1503 -206 
L 1606 56 
L 191 3500 
L 800 3500 
L 1894 763 
L 2988 3500 
L 3597 3500 
L 2059 -325 
z
" transform="scale(0.015625)"/>
       <path id="DejaVuSans-4d" d="M 628 4666 
L 1569 4666 
L 2759 1491 
L 3956 4666 
L 4897 4666 
L 4897 0 
L 4281 0 
L 4281 4097 
L 3078 897 
L 2444 897 
L 1241 4097 
L 1241 0 
L 628 0 
L 628 4666 
z
" transform="scale(0.015625)"/>
       <path id="DejaVuSans-42" d="M 1259 2228 
L 1259 519 
L 2272 519 
Q 2781 519 3026 730 
Q 3272 941 3272 1375 
Q 3272 1813 3026 2020 
Q 2781 2228 2272 2228 
L 1259 2228 
z
M 1259 4147 
L 1259 2741 
L 2194 2741 
Q 2656 2741 2882 2914 
Q 3109 3088 3109 3444 
Q 3109 3797 2882 3972 
Q 2656 4147 2194 4147 
L 1259 4147 
z
M 628 4666 
L 2241 4666 
Q 2963 4666 3353 4366 
Q 3744 4066 3744 3513 
Q 3744 3084 3544 2831 
Q 3344 2578 2956 2516 
Q 3422 2416 3680 2098 
Q 3938 1781 3938 1306 
Q 3938 681 3513 340 
Q 3088 0 2303 0 
L 628 0 
L 628 4666 
z
" transform="scale(0.015625)"/>
      </defs>
      <use xlink:href="#DejaVuSans-41"/>
      <use xlink:href="#DejaVuSans-6c" transform="translate(68.408203 0)"/>
      <use xlink:href="#DejaVuSans-6c" transform="translate(96.191406 0)"/>
      <use xlink:href="#DejaVuSans-6f" transform="translate(123.974609 0)"/>
      <use xlink:href="#DejaVuSans-63" transform="translate(185.15625 0)"/>
      <use xlink:href="#DejaVuSans-61" transform="translate(240.136719 0)"/>
      <use xlink:href="#DejaVuSans-74" transform="translate(301.416016 0)"/>
      <use xlink:href="#DejaVuSans-65" transform="translate(340.625 0)"/>
      <use xlink:href="#DejaVuSans-64" transform="translate(402.148438 0)"/>
      <use xlink:href="#DejaVuSans-20" transform="translate(465.625 0)"/>
      <use xlink:href="#DejaVuSans-6d" transform="translate(497.412109 0)"/>
      <use xlink:href="#DejaVuSans-65" transform="translate(594.824219 0)"/>
      <use xlink:href="#DejaVuSans-6d" transform="translate(656.347656 0)"/>
      <use xlink:href="#DejaVuSans-6f" transform="translate(753.759766 0)"/>
      <use xlink:href="#DejaVuSans-72" transform="translate(814.941406 0)"/>
      <use xlink:href="#DejaVuSans-79" transform="translate(856.054688 0)"/>
      <use xlink:href="#DejaVuSans-20" transform="translate(915.234375 0)"/>
      <use xlink:href="#DejaVuSans-28" transform="translate(947.021484 0)"/>
      <use xlink:href="#DejaVuSans-4d" transform="translate(986.035156 0)"/>
      <use xlink:href="#DejaVuSans-42" transform="translate(1072.314453 0)"/>
      <use xlink:href="#DejaVuSans-29" transform="translate(1140.917969 0)"/>
     </g>
    </g>
   </g>
   <g id="line2d_29">
    <path d="M 82.172727 177.335719 
L 83.848248 177.335719 
L 84.232428 166.517425 
L 84.626522 166.071629 
L 85.050359 165.179997 
L 85.570861 157.116162 
L 86.320632 141.442887 
L 86.692419 140.551374 
L 87.191853 134.69861 
L 87.935427 123.751027 
L 88.525329 123.241795 
L 89.330867 109.626448 
L 89.713808 105.029926 
L 90.238028 104.520693 
L 91.041088 91.113486 
L 91.414114 86.7547 
L 91.923462 86.245467 
L 92.729001 73.971234 
L 93.689451 73.109398 
L 94.11081 73.836596 
L 94.483836 68.52504 
L 207.184886 68.52504 
L 208.268026 67.428558 
L 209.384626 67.401615 
L 210.336401 68.51763 
L 213.486677 68.502059 
L 394.403216 68.502059 
L 394.787396 64.582848 
L 395.160422 64.302715 
L 395.532209 64.567475 
L 396.277022 64.212335 
L 396.648809 64.567475 
L 398.84731 73.80573 
L 400.894618 73.813694 
L 401.266405 71.859933 
L 401.638192 69.009508 
L 402.011218 67.975194 
L 403.233158 69.792019 
L 403.606185 67.90942 
L 404.213437 66.197676 
L 404.585224 63.383149 
L 405.330037 63.388577 
L 405.703064 63.572586 
L 406.789921 64.474599 
L 407.177819 64.429904 
L 407.637596 60.419641 
L 408.010622 60.181983 
L 408.382409 60.271174 
L 408.754196 64.436521 
L 409.127222 60.285874 
L 410.061647 69.769117 
L 410.751932 69.792019 
L 411.124958 68.892106 
L 411.496745 64.480146 
L 411.868532 63.449121 
L 412.241559 64.478244 
L 412.613346 64.000591 
L 413.474652 64.474599 
L 413.847679 60.259683 
L 414.219466 59.93648 
L 414.592492 60.29051 
L 414.964279 59.936599 
L 415.336066 59.936599 
L 416.002804 69.769117 
L 416.453906 71.453205 
L 417.19748 76.004042 
L 420.590657 95.064077 
L 420.963683 96.808669 
L 421.707257 101.311801 
L 422.452071 105.435069 
L 426.55536 128.396524 
L 431.023001 153.418879 
L 431.396028 155.163471 
L 432.140841 159.698301 
L 432.884415 163.789871 
L 439.994223 203.496121 
L 440.36601 205.272332 
L 441.482611 211.868815 
L 442.227424 215.688731 
L 443.344025 215.688731 
L 443.717051 216.499018 
L 448.55524 244.175507 
L 448.928266 245.877425 
L 449.300053 248.389748 
L 450.044867 252.239342 
L 455.64398 284.011165 
L 456.388793 287.979626 
L 457.531419 294.787299 
L 457.903206 296.489218 
L 458.274993 297.380889 
L 459.021045 297.380889 
L 459.392833 304.99033 
L 460.137646 304.99033 
L 460.509433 311.342658 
L 461.254246 315.359142 
L 461.627273 315.808624 
L 461.627273 315.808624 
" clip-path="url(#paf3d65fa56)" style="fill: none; stroke: #1f77b4; stroke-width: 1.7; stroke-linecap: square"/>
   </g>
   <g id="line2d_30">
    <path d="M 90.737462 206.339255 
L 92.070938 206.339255 
L 92.456357 195.520962 
L 92.830623 194.62929 
L 93.388303 193.737777 
L 94.196321 178.86825 
L 94.568108 170.448404 
L 94.939895 169.556851 
L 96.247346 153.648097 
L 96.66003 152.756544 
L 97.097499 146.840424 
L 97.842312 134.990392 
L 98.430975 134.035443 
L 99.238992 120.420176 
L 99.61078 116.715127 
L 100.117649 116.205934 
L 100.925666 103.036384 
L 101.298693 104.104179 
L 102.05466 104.578464 
L 102.426447 98.215517 
L 103.187371 104.284304 
L 103.560397 104.553779 
L 103.950774 99.253674 
L 110.274872 99.184175 
L 110.655334 98.340527 
L 114.229447 98.340527 
L 114.614866 98.04708 
L 115.30639 97.814138 
L 115.767406 98.04708 
L 116.140432 97.979365 
L 116.518416 98.281132 
L 120.458119 98.281132 
L 120.853453 98.019225 
L 121.226479 98.036263 
L 121.598266 98.89687 
L 121.971292 97.69836 
L 122.55252 93.738496 
L 122.931742 99.230376 
L 131.408487 99.230376 
L 131.792667 98.952501 
L 132.437098 95.784024 
L 140.633763 95.775901 
L 141.885447 93.682073 
L 143.13589 93.449171 
L 143.512635 94.617172 
L 144.045529 95.548823 
L 144.832479 95.549972 
L 145.206744 99.222847 
L 145.58101 95.492836 
L 146.032111 94.484713 
L 146.776925 104.530401 
L 147.753486 99.803559 
L 148.125273 100.506349 
L 148.498299 100.505398 
L 149.427767 93.863784 
L 149.800793 93.97239 
L 150.17258 94.207036 
L 150.544367 94.066454 
L 151.178884 95.185957 
L 151.550671 91.414658 
L 151.923697 89.953132 
L 152.295484 95.154615 
L 152.740389 90.462998 
L 153.141919 100.482179 
L 153.513706 97.668326 
L 153.994551 97.177003 
L 154.428303 97.765402 
L 154.80009 93.921118 
L 155.174355 93.860614 
L 155.546142 94.208779 
L 155.919169 91.715594 
L 156.290956 91.486653 
L 156.663982 90.322099 
L 157.039487 91.431498 
L 157.411274 95.154615 
L 157.849983 90.462998 
L 158.231684 100.482179 
L 158.60471 102.167733 
L 160.466124 112.928019 
L 174.243313 189.790712 
L 177.222567 206.565897 
L 179.08522 216.868104 
L 179.457007 217.399763 
L 180.201821 217.399763 
L 180.574847 217.645424 
L 181.324618 221.613886 
L 188.062638 260.129985 
L 189.179239 266.309558 
L 190.668866 274.819149 
L 194.811813 298.198268 
L 195.1836 299.08994 
L 195.928413 299.08994 
L 196.3002 306.69938 
L 197.043774 306.69938 
L 197.416801 313.070371 
L 197.788588 315.11784 
L 198.161614 315.80894 
L 198.161614 315.80894 
" clip-path="url(#paf3d65fa56)" style="fill: none; stroke: #ff7f0e; stroke-width: 1.7; stroke-linecap: square"/>
   </g>
   <g id="patch_3">
    <path d="M 63.2 328.602563 
L 63.2 47.142857 
" style="fill: none; stroke: #000000; stroke-width: 0.8; stroke-linejoin: miter; stroke-linecap: square"/>
   </g>
   <g id="patch_4">
    <path d="M 480.6 328.602563 
L 480.6 47.142857 
" style="fill: none; stroke: #000000; stroke-width: 0.8; stroke-linejoin: miter; stroke-linecap: square"/>
   </g>
   <g id="patch_5">
    <path d="M 63.2 328.602563 
L 480.6 328.602563 
" style="fill: none; stroke: #000000; stroke-width: 0.8; stroke-linejoin: miter; stroke-linecap: square"/>
   </g>
   <g id="patch_6">
    <path d="M 63.2 47.142857 
L 480.6 47.142857 
" style="fill: none; stroke: #000000; stroke-width: 0.8; stroke-linejoin: miter; stroke-linecap: square"/>
   </g>
   <g id="text_17">
    <!-- Allocated VRAM Over Time (warmup+bench) -->
    <g transform="translate(137.390313 41.142857) scale(0.12 -0.12)">
     <defs>
      <path id="DejaVuSans-56" d="M 1831 0 
L 50 4666 
L 709 4666 
L 2188 738 
L 3669 4666 
L 4325 4666 
L 2547 0 
L 1831 0 
z
" transform="scale(0.015625)"/>
      <path id="DejaVuSans-52" d="M 2841 2188 
Q 3044 2119 3236 1894 
Q 3428 1669 3622 1275 
L 4263 0 
L 3584 0 
L 2988 1197 
Q 2756 1666 2539 1819 
Q 2322 1972 1947 1972 
L 1259 1972 
L 1259 0 
L 628 0 
L 628 4666 
L 2053 4666 
Q 2853 4666 3247 4331 
Q 3641 3997 3641 3322 
Q 3641 2881 3436 2590 
Q 3231 2300 2841 2188 
z
M 1259 4147 
L 1259 2491 
L 2053 2491 
Q 2509 2491 2742 2702 
Q 2975 2913 2975 3322 
Q 2975 3731 2742 3939 
Q 2509 4147 2053 4147 
L 1259 4147 
z
" transform="scale(0.015625)"/>
      <path id="DejaVuSans-4f" d="M 2522 4238 
Q 1834 4238 1429 3725 
Q 1025 3213 1025 2328 
Q 1025 1447 1429 934 
Q 1834 422 2522 422 
Q 3209 422 3611 934 
Q 4013 1447 4013 2328 
Q 4013 3213 3611 3725 
Q 3209 4238 2522 4238 
z
M 2522 4750 
Q 3503 4750 4090 4092 
Q 4678 3434 4678 2328 
Q 4678 1225 4090 567 
Q 3503 -91 2522 -91 
Q 1538 -91 948 565 
Q 359 1222 359 2328 
Q 359 3434 948 4092 
Q 1538 4750 2522 4750 
z
" transform="scale(0.015625)"/>
      <path id="DejaVuSans-76" d="M 191 3500 
L 800 3500 
L 1894 563 
L 2988 3500 
L 3597 3500 
L 2284 0 
L 1503 0 
L 191 3500 
z
" transform="scale(0.015625)"/>
      <path id="DejaVuSans-54" d="M -19 4666 
L 3928 4666 
L 3928 4134 
L 2272 4134 
L 2272 0 
L 1638 0 
L 1638 4134 
L -19 4134 
L -19 4666 
z
" transform="scale(0.015625)"/>
      <path id="DejaVuSans-77" d="M 269 3500 
L 844 3500 
L 1563 769 
L 2278 3500 
L 2956 3500 
L 3675 769 
L 4391 3500 
L 4966 3500 
L 4050 0 
L 3372 0 
L 2619 2869 
L 1863 0 
L 1184 0 
L 269 3500 
z
" transform="scale(0.015625)"/>
      <path id="DejaVuSans-75" d="M 544 1381 
L 544 3500 
L 1119 3500 
L 1119 1403 
Q 1119 906 1312 657 
Q 1506 409 1894 409 
Q 2359 409 2629 706 
Q 2900 1003 2900 1516 
L 2900 3500 
L 3475 3500 
L 3475 0 
L 2900 0 
L 2900 538 
Q 2691 219 2414 64 
Q 2138 -91 1772 -91 
Q 1169 -91 856 284 
Q 544 659 544 1381 
z
M 1991 3584 
L 1991 3584 
z
" transform="scale(0.015625)"/>
      <path id="DejaVuSans-2b" d="M 2944 4013 
L 2944 2272 
L 4684 2272 
L 4684 1741 
L 2944 1741 
L 2944 0 
L 2419 0 
L 2419 1741 
L 678 1741 
L 678 2272 
L 2419 2272 
L 2419 4013 
L 2944 4013 
z
" transform="scale(0.015625)"/>
      <path id="DejaVuSans-62" d="M 3116 1747 
Q 3116 2381 2855 2742 
Q 2594 3103 2138 3103 
Q 1681 3103 1420 2742 
Q 1159 2381 1159 1747 
Q 1159 1113 1420 752 
Q 1681 391 2138 391 
Q 2594 391 2855 752 
Q 3116 1113 3116 1747 
z
M 1159 2969 
Q 1341 3281 1617 3432 
Q 1894 3584 2278 3584 
Q 2916 3584 3314 3078 
Q 3713 2572 3713 1747 
Q 3713 922 3314 415 
Q 2916 -91 2278 -91 
Q 1894 -91 1617 61 
Q 1341 213 1159 525 
L 1159 0 
L 581 0 
L 581 4863 
L 1159 4863 
L 1159 2969 
z
" transform="scale(0.015625)"/>
      <path id="DejaVuSans-6e" d="M 3513 2113 
L 3513 0 
L 2938 0 
L 2938 2094 
Q 2938 2591 2744 2837 
Q 2550 3084 2163 3084 
Q 1697 3084 1428 2787 
Q 1159 2491 1159 1978 
L 1159 0 
L 581 0 
L 581 3500 
L 1159 3500 
L 1159 2956 
Q 1366 3272 1645 3428 
Q 1925 3584 2291 3584 
Q 2894 3584 3203 3211 
Q 3513 2838 3513 2113 
z
" transform="scale(0.015625)"/>
      <path id="DejaVuSans-68" d="M 3513 2113 
L 3513 0 
L 2938 0 
L 2938 2094 
Q 2938 2591 2744 2837 
Q 2550 3084 2163 3084 
Q 1697 3084 1428 2787 
Q 1159 2491 1159 1978 
L 1159 0 
L 581 0 
L 581 4863 
L 1159 4863 
L 1159 2956 
Q 1366 3272 1645 3428 
Q 1925 3584 2291 3584 
Q 2894 3584 3203 3211 
Q 3513 2838 3513 2113 
z
" transform="scale(0.015625)"/>
     </defs>
     <use xlink:href="#DejaVuSans-41"/>
     <use xlink:href="#DejaVuSans-6c" transform="translate(68.408203 0)"/>
     <use xlink:href="#DejaVuSans-6c" transform="translate(96.191406 0)"/>
     <use xlink:href="#DejaVuSans-6f" transform="translate(123.974609 0)"/>
     <use xlink:href="#DejaVuSans-63" transform="translate(185.15625 0)"/>
     <use xlink:href="#DejaVuSans-61" transform="translate(240.136719 0)"/>
     <use xlink:href="#DejaVuSans-74" transform="translate(301.416016 0)"/>
     <use xlink:href="#DejaVuSans-65" transform="translate(340.625 0)"/>
     <use xlink:href="#DejaVuSans-64" transform="translate(402.148438 0)"/>
     <use xlink:href="#DejaVuSans-20" transform="translate(465.625 0)"/>
     <use xlink:href="#DejaVuSans-56" transform="translate(497.412109 0)"/>
     <use xlink:href="#DejaVuSans-52" transform="translate(565.820312 0)"/>
     <use xlink:href="#DejaVuSans-41" transform="translate(631.302734 0)"/>
     <use xlink:href="#DejaVuSans-4d" transform="translate(699.710938 0)"/>
     <use xlink:href="#DejaVuSans-20" transform="translate(785.990234 0)"/>
     <use xlink:href="#DejaVuSans-4f" transform="translate(817.777344 0)"/>
     <use xlink:href="#DejaVuSans-76" transform="translate(896.488281 0)"/>
     <use xlink:href="#DejaVuSans-65" transform="translate(955.667969 0)"/>
     <use xlink:href="#DejaVuSans-72" transform="translate(1017.191406 0)"/>
     <use xlink:href="#DejaVuSans-20" transform="translate(1058.304688 0)"/>
     <use xlink:href="#DejaVuSans-54" transform="translate(1090.091797 0)"/>
     <use xlink:href="#DejaVuSans-69" transform="translate(1148.050781 0)"/>
     <use xlink:href="#DejaVuSans-6d" transform="translate(1175.833984 0)"/>
     <use xlink:href="#DejaVuSans-65" transform="translate(1273.246094 0)"/>
     <use xlink:href="#DejaVuSans-20" transform="translate(1334.769531 0)"/>
     <use xlink:href="#DejaVuSans-28" transform="translate(1366.556641 0)"/>
     <use xlink:href="#DejaVuSans-77" transform="translate(1405.570312 0)"/>
     <use xlink:href="#DejaVuSans-61" transform="translate(1487.357422 0)"/>
     <use xlink:href="#DejaVuSans-72" transform="translate(1548.636719 0)"/>
     <use xlink:href="#DejaVuSans-6d" transform="translate(1588 0)"/>
     <use xlink:href="#DejaVuSans-75" transform="translate(1685.412109 0)"/>
     <use xlink:href="#DejaVuSans-70" transform="translate(1748.791016 0)"/>
     <use xlink:href="#DejaVuSans-2b" transform="translate(1812.267578 0)"/>
     <use xlink:href="#DejaVuSans-62" transform="translate(1896.056641 0)"/>
     <use xlink:href="#DejaVuSans-65" transform="translate(1959.533203 0)"/>
     <use xlink:href="#DejaVuSans-6e" transform="translate(2021.056641 0)"/>
     <use xlink:href="#DejaVuSans-63" transform="translate(2084.435547 0)"/>
     <use xlink:href="#DejaVuSans-68" transform="translate(2139.416016 0)"/>
     <use xlink:href="#DejaVuSans-29" transform="translate(2202.794922 0)"/>
    </g>
   </g>
   <g id="legend_1">
    <g id="patch_7">
     <path d="M 70.2 84.499107 
L 207.729688 84.499107 
Q 209.729688 84.499107 209.729688 82.499107 
L 209.729688 54.142857 
Q 209.729688 52.142857 207.729688 52.142857 
L 70.2 52.142857 
Q 68.2 52.142857 68.2 54.142857 
L 68.2 82.499107 
Q 68.2 84.499107 70.2 84.499107 
z
" style="fill: #ffffff; opacity: 0.8; stroke: #cccccc; stroke-linejoin: miter"/>
    </g>
    <g id="line2d_31">
     <path d="M 72.2 60.241295 
L 82.2 60.241295 
L 92.2 60.241295 
" style="fill: none; stroke: #1f77b4; stroke-width: 1.7; stroke-linecap: square"/>
    </g>
    <g id="text_18">
     <!-- Baseline (LiteLinear=0) -->
     <g transform="translate(100.2 63.741295) scale(0.1 -0.1)">
      <defs>
       <path id="DejaVuSans-4c" d="M 628 4666 
L 1259 4666 
L 1259 531 
L 3531 531 
L 3531 0 
L 628 0 
L 628 4666 
z
" transform="scale(0.015625)"/>
       <path id="DejaVuSans-46" d="M 628 4666 
L 3309 4666 
L 3309 4134 
L 1259 4134 
L 1259 2759 
L 3109 2759 
L 3109 2228 
L 1259 2228 
L 1259 0 
L 628 0 
L 628 4666 
z
" transform="scale(0.015625)"/>
       <path id="DejaVuSans-4e" d="M 628 4666 
L 1478 4666 
L 3547 763 
L 3547 4666 
L 4159 4666 
L 4159 0 
L 3309 0 
L 1241 3903 
L 1241 0 
L 628 0 
L 628 4666 
z
" transform="scale(0.015625)"/>
       <path id="DejaVuSans-3d" d="M 678 2906 
L 4684 2906 
L 4684 2381 
L 678 2381 
L 678 2906 
z
M 678 1631 
L 4684 1631 
L 4684 1100 
L 678 1100 
L 678 1631 
z
" transform="scale(0.015625)"/>
      </defs>
      <use xlink:href="#DejaVuSans-42"/>
      <use xlink:href="#DejaVuSans-61" transform="translate(68.603516 0)"/>
      <use xlink:href="#DejaVuSans-73" transform="translate(129.882812 0)"/>
      <use xlink:href="#DejaVuSans-65" transform="translate(181.982422 0)"/>
      <use xlink:href="#DejaVuSans-6c" transform="translate(243.505859 0)"/>
      <use xlink:href="#DejaVuSans-69" transform="translate(271.289062 0)"/>
      <use xlink:href="#DejaVuSans-6e" transform="translate(299.072266 0)"/>
      <use xlink:href="#DejaVuSans-65" transform="translate(362.451172 0)"/>
      <use xlink:href="#DejaVuSans-20" transform="translate(423.974609 0)"/>
      <use xlink:href="#DejaVuSans-28" transform="translate(455.761719 0)"/>
      <use xlink:href="#DejaVuSans-4c" transform="translate(494.775391 0)"/>
      <use xlink:href="#DejaVuSans-69" transform="translate(550.488281 0)"/>
      <use xlink:href="#DejaVuSans-74" transform="translate(578.271484 0)"/>
      <use xlink:href="#DejaVuSans-65" transform="translate(617.480469 0)"/>
      <use xlink:href="#DejaVuSans-46" transform="translate(679.003906 0)"/>
      <use xlink:href="#DejaVuSans-46" transform="translate(736.523438 0)"/>
      <use xlink:href="#DejaVuSans-4e" transform="translate(794.042969 0)"/>
      <use xlink:href="#DejaVuSans-3d" transform="translate(868.847656 0)"/>
      <use xlink:href="#DejaVuSans-30" transform="translate(952.636719 0)"/>
      <use xlink:href="#DejaVuSans-29" transform="translate(1016.259766 0)"/>
     </g>
    </g>
    <g id="line2d_32">
     <path d="M 72.2 74.91942 
L 82.2 74.91942 
L 92.2 74.91942 
" style="fill: none; stroke: #ff7f0e; stroke-width: 1.7; stroke-linecap: square"/>
    </g>
    <g id="text_19">
     <!-- LiteLinear (LiteLinear=1) -->
     <g transform="translate(100.2 78.41942) scale(0.1 -0.1)">
      <use xlink:href="#DejaVuSans-4c"/>
      <use xlink:href="#DejaVuSans-69" transform="translate(55.712891 0)"/>
      <use xlink:href="#DejaVuSans-74" transform="translate(83.496094 0)"/>
      <use xlink:href="#DejaVuSans-65" transform="translate(122.705078 0)"/>
      <use xlink:href="#DejaVuSans-46" transform="translate(184.228516 0)"/>
      <use xlink:href="#DejaVuSans-46" transform="translate(241.748047 0)"/>
      <use xlink:href="#DejaVuSans-4e" transform="translate(299.267578 0)"/>
      <use xlink:href="#DejaVuSans-20" transform="translate(374.072266 0)"/>
      <use xlink:href="#DejaVuSans-28" transform="translate(405.859375 0)"/>
      <use xlink:href="#DejaVuSans-4c" transform="translate(444.873047 0)"/>
      <use xlink:href="#DejaVuSans-69" transform="translate(500.585938 0)"/>
      <use xlink:href="#DejaVuSans-74" transform="translate(528.369141 0)"/>
      <use xlink:href="#DejaVuSans-65" transform="translate(567.578125 0)"/>
      <use xlink:href="#DejaVuSans-46" transform="translate(629.101562 0)"/>
      <use xlink:href="#DejaVuSans-46" transform="translate(686.621094 0)"/>
      <use xlink:href="#DejaVuSans-4e" transform="translate(744.140625 0)"/>
      <use xlink:href="#DejaVuSans-3d" transform="translate(818.945312 0)"/>
      <use xlink:href="#DejaVuSans-31" transform="translate(902.734375 0)"/>
      <use xlink:href="#DejaVuSans-29" transform="translate(966.357422 0)"/>
     </g>
    </g>
   </g>
  </g>
  <g id="axes_2">
   <g id="patch_8">
    <path d="M 543.8 328.602563 
L 961.2 328.602563 
L 961.2 47.142857 
L 543.8 47.142857 
z
" style="fill: #ffffff"/>
   </g>
   <g id="patch_9">
    <path d="M 562.772727 328.602563 
L 640.895722 328.602563 
L 640.895722 60.5457 
L 562.772727 60.5457 
z
" clip-path="url(#p8bb61eca62)" style="fill: #1f77b4"/>
   </g>
   <g id="patch_10">
    <path d="M 785.981283 328.602563 
L 864.104278 328.602563 
L 864.104278 91.485489 
L 785.981283 91.485489 
z
" clip-path="url(#p8bb61eca62)" style="fill: #1f77b4"/>
   </g>
   <g id="patch_11">
    <path d="M 640.895722 328.602563 
L 719.018717 328.602563 
L 719.018717 88.21698 
L 640.895722 88.21698 
z
" clip-path="url(#p8bb61eca62)" style="fill: #ff7f0e"/>
   </g>
   <g id="patch_12">
    <path d="M 864.104278 328.602563 
L 942.227273 328.602563 
L 942.227273 151.037161 
L 864.104278 151.037161 
z
" clip-path="url(#p8bb61eca62)" style="fill: #ff7f0e"/>
   </g>
   <g id="matplotlib.axis_3">
    <g id="xtick_8">
     <g id="line2d_33">
      <g>
       <use xlink:href="#mfd13137c21" x="640.895722" y="328.602563" style="stroke: #000000; stroke-width: 0.8"/>
      </g>
     </g>
     <g id="text_20">
      <!-- Baseline (LiteLinear=0) -->
      <g transform="translate(589.411655 361.410602) rotate(-10) scale(0.1 -0.1)">
       <use xlink:href="#DejaVuSans-42"/>
       <use xlink:href="#DejaVuSans-61" transform="translate(68.603516 0)"/>
       <use xlink:href="#DejaVuSans-73" transform="translate(129.882812 0)"/>
       <use xlink:href="#DejaVuSans-65" transform="translate(181.982422 0)"/>
       <use xlink:href="#DejaVuSans-6c" transform="translate(243.505859 0)"/>
       <use xlink:href="#DejaVuSans-69" transform="translate(271.289062 0)"/>
       <use xlink:href="#DejaVuSans-6e" transform="translate(299.072266 0)"/>
       <use xlink:href="#DejaVuSans-65" transform="translate(362.451172 0)"/>
       <use xlink:href="#DejaVuSans-20" transform="translate(423.974609 0)"/>
       <use xlink:href="#DejaVuSans-28" transform="translate(455.761719 0)"/>
       <use xlink:href="#DejaVuSans-4c" transform="translate(494.775391 0)"/>
       <use xlink:href="#DejaVuSans-69" transform="translate(550.488281 0)"/>
       <use xlink:href="#DejaVuSans-74" transform="translate(578.271484 0)"/>
       <use xlink:href="#DejaVuSans-65" transform="translate(617.480469 0)"/>
       <use xlink:href="#DejaVuSans-46" transform="translate(679.003906 0)"/>
       <use xlink:href="#DejaVuSans-46" transform="translate(736.523438 0)"/>
       <use xlink:href="#DejaVuSans-4e" transform="translate(794.042969 0)"/>
       <use xlink:href="#DejaVuSans-3d" transform="translate(868.847656 0)"/>
       <use xlink:href="#DejaVuSans-30" transform="translate(952.636719 0)"/>
       <use xlink:href="#DejaVuSans-29" transform="translate(1016.259766 0)"/>
      </g>
     </g>
    </g>
    <g id="xtick_9">
     <g id="line2d_34">
      <g>
       <use xlink:href="#mfd13137c21" x="864.104278" y="328.602563" style="stroke: #000000; stroke-width: 0.8"/>
      </g>
     </g>
     <g id="text_21">
      <!-- LiteLinear (LiteLinear=1) -->
      <g transform="translate(815.077614 360.543989) rotate(-10) scale(0.1 -0.1)">
       <use xlink:href="#DejaVuSans-4c"/>
       <use xlink:href="#DejaVuSans-69" transform="translate(55.712891 0)"/>
       <use xlink:href="#DejaVuSans-74" transform="translate(83.496094 0)"/>
       <use xlink:href="#DejaVuSans-65" transform="translate(122.705078 0)"/>
       <use xlink:href="#DejaVuSans-46" transform="translate(184.228516 0)"/>
       <use xlink:href="#DejaVuSans-46" transform="translate(241.748047 0)"/>
       <use xlink:href="#DejaVuSans-4e" transform="translate(299.267578 0)"/>
       <use xlink:href="#DejaVuSans-20" transform="translate(374.072266 0)"/>
       <use xlink:href="#DejaVuSans-28" transform="translate(405.859375 0)"/>
       <use xlink:href="#DejaVuSans-4c" transform="translate(444.873047 0)"/>
       <use xlink:href="#DejaVuSans-69" transform="translate(500.585938 0)"/>
       <use xlink:href="#DejaVuSans-74" transform="translate(528.369141 0)"/>
       <use xlink:href="#DejaVuSans-65" transform="translate(567.578125 0)"/>
       <use xlink:href="#DejaVuSans-46" transform="translate(629.101562 0)"/>
       <use xlink:href="#DejaVuSans-46" transform="translate(686.621094 0)"/>
       <use xlink:href="#DejaVuSans-4e" transform="translate(744.140625 0)"/>
       <use xlink:href="#DejaVuSans-3d" transform="translate(818.945312 0)"/>
       <use xlink:href="#DejaVuSans-31" transform="translate(902.734375 0)"/>
       <use xlink:href="#DejaVuSans-29" transform="translate(966.357422 0)"/>
      </g>
     </g>
    </g>
   </g>
   <g id="matplotlib.axis_4">
    <g id="ytick_8">
     <g id="line2d_35">
      <path d="M 543.8 328.602563 
L 961.2 328.602563 
" clip-path="url(#p8bb61eca62)" style="fill: none; stroke: #b0b0b0; stroke-opacity: 0.25; stroke-width: 0.8; stroke-linecap: square"/>
     </g>
     <g id="line2d_36">
      <g>
       <use xlink:href="#mef912f58af" x="543.8" y="328.602563" style="stroke: #000000; stroke-width: 0.8"/>
      </g>
     </g>
     <g id="text_22">
      <!-- 0 -->
      <g transform="translate(530.4375 332.401782) scale(0.1 -0.1)">
       <use xlink:href="#DejaVuSans-30"/>
      </g>
     </g>
    </g>
    <g id="ytick_9">
     <g id="line2d_37">
      <path d="M 543.8 287.761193 
L 961.2 287.761193 
" clip-path="url(#p8bb61eca62)" style="fill: none; stroke: #b0b0b0; stroke-opacity: 0.25; stroke-width: 0.8; stroke-linecap: square"/>
     </g>
     <g id="line2d_38">
      <g>
       <use xlink:href="#mef912f58af" x="543.8" y="287.761193" style="stroke: #000000; stroke-width: 0.8"/>
      </g>
     </g>
     <g id="text_23">
      <!-- 10000 -->
      <g transform="translate(504.9875 291.560412) scale(0.1 -0.1)">
       <use xlink:href="#DejaVuSans-31"/>
       <use xlink:href="#DejaVuSans-30" transform="translate(63.623047 0)"/>
       <use xlink:href="#DejaVuSans-30" transform="translate(127.246094 0)"/>
       <use xlink:href="#DejaVuSans-30" transform="translate(190.869141 0)"/>
       <use xlink:href="#DejaVuSans-30" transform="translate(254.492188 0)"/>
      </g>
     </g>
    </g>
    <g id="ytick_10">
     <g id="line2d_39">
      <path d="M 543.8 246.919822 
L 961.2 246.919822 
" clip-path="url(#p8bb61eca62)" style="fill: none; stroke: #b0b0b0; stroke-opacity: 0.25; stroke-width: 0.8; stroke-linecap: square"/>
     </g>
     <g id="line2d_40">
      <g>
       <use xlink:href="#mef912f58af" x="543.8" y="246.919822" style="stroke: #000000; stroke-width: 0.8"/>
      </g>
     </g>
     <g id="text_24">
      <!-- 20000 -->
      <g transform="translate(504.9875 250.719041) scale(0.1 -0.1)">
       <use xlink:href="#DejaVuSans-32"/>
       <use xlink:href="#DejaVuSans-30" transform="translate(63.623047 0)"/>
       <use xlink:href="#DejaVuSans-30" transform="translate(127.246094 0)"/>
       <use xlink:href="#DejaVuSans-30" transform="translate(190.869141 0)"/>
       <use xlink:href="#DejaVuSans-30" transform="translate(254.492188 0)"/>
      </g>
     </g>
    </g>
    <g id="ytick_11">
     <g id="line2d_41">
      <path d="M 543.8 206.078452 
L 961.2 206.078452 
" clip-path="url(#p8bb61eca62)" style="fill: none; stroke: #b0b0b0; stroke-opacity: 0.25; stroke-width: 0.8; stroke-linecap: square"/>
     </g>
     <g id="line2d_42">
      <g>
       <use xlink:href="#mef912f58af" x="543.8" y="206.078452" style="stroke: #000000; stroke-width: 0.8"/>
      </g>
     </g>
     <g id="text_25">
      <!-- 30000 -->
      <g transform="translate(504.9875 209.87767) scale(0.1 -0.1)">
       <use xlink:href="#DejaVuSans-33"/>
       <use xlink:href="#DejaVuSans-30" transform="translate(63.623047 0)"/>
       <use xlink:href="#DejaVuSans-30" transform="translate(127.246094 0)"/>
       <use xlink:href="#DejaVuSans-30" transform="translate(190.869141 0)"/>
       <use xlink:href="#DejaVuSans-30" transform="translate(254.492188 0)"/>
      </g>
     </g>
    </g>
    <g id="ytick_12">
     <g id="line2d_43">
      <path d="M 543.8 165.237081 
L 961.2 165.237081 
" clip-path="url(#p8bb61eca62)" style="fill: none; stroke: #b0b0b0; stroke-opacity: 0.25; stroke-width: 0.8; stroke-linecap: square"/>
     </g>
     <g id="line2d_44">
      <g>
       <use xlink:href="#mef912f58af" x="543.8" y="165.237081" style="stroke: #000000; stroke-width: 0.8"/>
      </g>
     </g>
     <g id="text_26">
      <!-- 40000 -->
      <g transform="translate(504.9875 169.0363) scale(0.1 -0.1)">
       <use xlink:href="#DejaVuSans-34"/>
       <use xlink:href="#DejaVuSans-30" transform="translate(63.623047 0)"/>
       <use xlink:href="#DejaVuSans-30" transform="translate(127.246094 0)"/>
       <use xlink:href="#DejaVuSans-30" transform="translate(190.869141 0)"/>
       <use xlink:href="#DejaVuSans-30" transform="translate(254.492188 0)"/>
      </g>
     </g>
    </g>
    <g id="ytick_13">
     <g id="line2d_45">
      <path d="M 543.8 124.39571 
L 961.2 124.39571 
" clip-path="url(#p8bb61eca62)" style="fill: none; stroke: #b0b0b0; stroke-opacity: 0.25; stroke-width: 0.8; stroke-linecap: square"/>
     </g>
     <g id="line2d_46">
      <g>
       <use xlink:href="#mef912f58af" x="543.8" y="124.39571" style="stroke: #000000; stroke-width: 0.8"/>
      </g>
     </g>
     <g id="text_27">
      <!-- 50000 -->
      <g transform="translate(504.9875 128.194929) scale(0.1 -0.1)">
       <use xlink:href="#DejaVuSans-35"/>
       <use xlink:href="#DejaVuSans-30" transform="translate(63.623047 0)"/>
       <use xlink:href="#DejaVuSans-30" transform="translate(127.246094 0)"/>
       <use xlink:href="#DejaVuSans-30" transform="translate(190.869141 0)"/>
       <use xlink:href="#DejaVuSans-30" transform="translate(254.492188 0)"/>
      </g>
     </g>
    </g>
    <g id="ytick_14">
     <g id="line2d_47">
      <path d="M 543.8 83.55434 
L 961.2 83.55434 
" clip-path="url(#p8bb61eca62)" style="fill: none; stroke: #b0b0b0; stroke-opacity: 0.25; stroke-width: 0.8; stroke-linecap: square"/>
     </g>
     <g id="line2d_48">
      <g>
       <use xlink:href="#mef912f58af" x="543.8" y="83.55434" style="stroke: #000000; stroke-width: 0.8"/>
      </g>
     </g>
     <g id="text_28">
      <!-- 60000 -->
      <g transform="translate(504.9875 87.353559) scale(0.1 -0.1)">
       <use xlink:href="#DejaVuSans-36"/>
       <use xlink:href="#DejaVuSans-30" transform="translate(63.623047 0)"/>
       <use xlink:href="#DejaVuSans-30" transform="translate(127.246094 0)"/>
       <use xlink:href="#DejaVuSans-30" transform="translate(190.869141 0)"/>
       <use xlink:href="#DejaVuSans-30" transform="translate(254.492188 0)"/>
      </g>
     </g>
    </g>
    <g id="text_29">
     <!-- Allocated memory (MB) -->
     <g transform="translate(498.907813 246.870367) rotate(-90) scale(0.1 -0.1)">
      <use xlink:href="#DejaVuSans-41"/>
      <use xlink:href="#DejaVuSans-6c" transform="translate(68.408203 0)"/>
      <use xlink:href="#DejaVuSans-6c" transform="translate(96.191406 0)"/>
      <use xlink:href="#DejaVuSans-6f" transform="translate(123.974609 0)"/>
      <use xlink:href="#DejaVuSans-63" transform="translate(185.15625 0)"/>
      <use xlink:href="#DejaVuSans-61" transform="translate(240.136719 0)"/>
      <use xlink:href="#DejaVuSans-74" transform="translate(301.416016 0)"/>
      <use xlink:href="#DejaVuSans-65" transform="translate(340.625 0)"/>
      <use xlink:href="#DejaVuSans-64" transform="translate(402.148438 0)"/>
      <use xlink:href="#DejaVuSans-20" transform="translate(465.625 0)"/>
      <use xlink:href="#DejaVuSans-6d" transform="translate(497.412109 0)"/>
      <use xlink:href="#DejaVuSans-65" transform="translate(594.824219 0)"/>
      <use xlink:href="#DejaVuSans-6d" transform="translate(656.347656 0)"/>
      <use xlink:href="#DejaVuSans-6f" transform="translate(753.759766 0)"/>
      <use xlink:href="#DejaVuSans-72" transform="translate(814.941406 0)"/>
      <use xlink:href="#DejaVuSans-79" transform="translate(856.054688 0)"/>
      <use xlink:href="#DejaVuSans-20" transform="translate(915.234375 0)"/>
      <use xlink:href="#DejaVuSans-28" transform="translate(947.021484 0)"/>
      <use xlink:href="#DejaVuSans-4d" transform="translate(986.035156 0)"/>
      <use xlink:href="#DejaVuSans-42" transform="translate(1072.314453 0)"/>
      <use xlink:href="#DejaVuSans-29" transform="translate(1140.917969 0)"/>
     </g>
    </g>
   </g>
   <g id="patch_13">
    <path d="M 543.8 328.602563 
L 543.8 47.142857 
" style="fill: none; stroke: #000000; stroke-width: 0.8; stroke-linejoin: miter; stroke-linecap: square"/>
   </g>
   <g id="patch_14">
    <path d="M 961.2 328.602563 
L 961.2 47.142857 
" style="fill: none; stroke: #000000; stroke-width: 0.8; stroke-linejoin: miter; stroke-linecap: square"/>
   </g>
   <g id="patch_15">
    <path d="M 543.8 328.602563 
L 961.2 328.602563 
" style="fill: none; stroke: #000000; stroke-width: 0.8; stroke-linejoin: miter; stroke-linecap: square"/>
   </g>
   <g id="patch_16">
    <path d="M 543.8 47.142857 
L 961.2 47.142857 
" style="fill: none; stroke: #000000; stroke-width: 0.8; stroke-linejoin: miter; stroke-linecap: square"/>
   </g>
   <g id="text_30">
    <!-- 65,634 -->
    <g transform="translate(587.837975 57.452502) scale(0.08 -0.08)">
     <defs>
      <path id="DejaVuSans-2c" d="M 750 794 
L 1409 794 
L 1409 256 
L 897 -744 
L 494 -744 
L 750 256 
L 750 794 
z
" transform="scale(0.015625)"/>
     </defs>
     <use xlink:href="#DejaVuSans-36"/>
     <use xlink:href="#DejaVuSans-35" transform="translate(63.623047 0)"/>
     <use xlink:href="#DejaVuSans-2c" transform="translate(127.246094 0)"/>
     <use xlink:href="#DejaVuSans-36" transform="translate(159.033203 0)"/>
     <use xlink:href="#DejaVuSans-33" transform="translate(222.65625 0)"/>
     <use xlink:href="#DejaVuSans-34" transform="translate(286.279297 0)"/>
    </g>
   </g>
   <g id="text_31">
    <!-- 58,058 -->
    <g transform="translate(811.046531 88.392291) scale(0.08 -0.08)">
     <defs>
      <path id="DejaVuSans-38" d="M 2034 2216 
Q 1584 2216 1326 1975 
Q 1069 1734 1069 1313 
Q 1069 891 1326 650 
Q 1584 409 2034 409 
Q 2484 409 2743 651 
Q 3003 894 3003 1313 
Q 3003 1734 2745 1975 
Q 2488 2216 2034 2216 
z
M 1403 2484 
Q 997 2584 770 2862 
Q 544 3141 544 3541 
Q 544 4100 942 4425 
Q 1341 4750 2034 4750 
Q 2731 4750 3128 4425 
Q 3525 4100 3525 3541 
Q 3525 3141 3298 2862 
Q 3072 2584 2669 2484 
Q 3125 2378 3379 2068 
Q 3634 1759 3634 1313 
Q 3634 634 3220 271 
Q 2806 -91 2034 -91 
Q 1263 -91 848 271 
Q 434 634 434 1313 
Q 434 1759 690 2068 
Q 947 2378 1403 2484 
z
M 1172 3481 
Q 1172 3119 1398 2916 
Q 1625 2713 2034 2713 
Q 2441 2713 2670 2916 
Q 2900 3119 2900 3481 
Q 2900 3844 2670 4047 
Q 2441 4250 2034 4250 
Q 1625 4250 1398 4047 
Q 1172 3844 1172 3481 
z
" transform="scale(0.015625)"/>
     </defs>
     <use xlink:href="#DejaVuSans-35"/>
     <use xlink:href="#DejaVuSans-38" transform="translate(63.623047 0)"/>
     <use xlink:href="#DejaVuSans-2c" transform="translate(127.246094 0)"/>
     <use xlink:href="#DejaVuSans-30" transform="translate(159.033203 0)"/>
     <use xlink:href="#DejaVuSans-35" transform="translate(222.65625 0)"/>
     <use xlink:href="#DejaVuSans-38" transform="translate(286.279297 0)"/>
    </g>
   </g>
   <g id="text_32">
    <!-- 58,858 -->
    <g transform="translate(665.960969 85.123782) scale(0.08 -0.08)">
     <use xlink:href="#DejaVuSans-35"/>
     <use xlink:href="#DejaVuSans-38" transform="translate(63.623047 0)"/>
     <use xlink:href="#DejaVuSans-2c" transform="translate(127.246094 0)"/>
     <use xlink:href="#DejaVuSans-38" transform="translate(159.033203 0)"/>
     <use xlink:href="#DejaVuSans-35" transform="translate(222.65625 0)"/>
     <use xlink:href="#DejaVuSans-38" transform="translate(286.279297 0)"/>
    </g>
   </g>
   <g id="text_33">
    <!-- 43,477 -->
    <g transform="translate(889.169525 147.943964) scale(0.08 -0.08)">
     <defs>
      <path id="DejaVuSans-37" d="M 525 4666 
L 3525 4666 
L 3525 4397 
L 1831 0 
L 1172 0 
L 2766 4134 
L 525 4134 
L 525 4666 
z
" transform="scale(0.015625)"/>
     </defs>
     <use xlink:href="#DejaVuSans-34"/>
     <use xlink:href="#DejaVuSans-33" transform="translate(63.623047 0)"/>
     <use xlink:href="#DejaVuSans-2c" transform="translate(127.246094 0)"/>
     <use xlink:href="#DejaVuSans-34" transform="translate(159.033203 0)"/>
     <use xlink:href="#DejaVuSans-37" transform="translate(222.65625 0)"/>
     <use xlink:href="#DejaVuSans-37" transform="translate(286.279297 0)"/>
    </g>
   </g>
   <g id="text_34">
    <!-- Warmup+Bench Memory Summary -->
    <g transform="translate(646.504375 41.142857) scale(0.12 -0.12)">
     <defs>
      <path id="DejaVuSans-57" d="M 213 4666 
L 850 4666 
L 1831 722 
L 2809 4666 
L 3519 4666 
L 4500 722 
L 5478 4666 
L 6119 4666 
L 4947 0 
L 4153 0 
L 3169 4050 
L 2175 0 
L 1381 0 
L 213 4666 
z
" transform="scale(0.015625)"/>
      <path id="DejaVuSans-53" d="M 3425 4513 
L 3425 3897 
Q 3066 4069 2747 4153 
Q 2428 4238 2131 4238 
Q 1616 4238 1336 4038 
Q 1056 3838 1056 3469 
Q 1056 3159 1242 3001 
Q 1428 2844 1947 2747 
L 2328 2669 
Q 3034 2534 3370 2195 
Q 3706 1856 3706 1288 
Q 3706 609 3251 259 
Q 2797 -91 1919 -91 
Q 1588 -91 1214 -16 
Q 841 59 441 206 
L 441 856 
Q 825 641 1194 531 
Q 1563 422 1919 422 
Q 2459 422 2753 634 
Q 3047 847 3047 1241 
Q 3047 1584 2836 1778 
Q 2625 1972 2144 2069 
L 1759 2144 
Q 1053 2284 737 2584 
Q 422 2884 422 3419 
Q 422 4038 858 4394 
Q 1294 4750 2059 4750 
Q 2388 4750 2728 4690 
Q 3069 4631 3425 4513 
z
" transform="scale(0.015625)"/>
     </defs>
     <use xlink:href="#DejaVuSans-57"/>
     <use xlink:href="#DejaVuSans-61" transform="translate(92.501953 0)"/>
     <use xlink:href="#DejaVuSans-72" transform="translate(153.78125 0)"/>
     <use xlink:href="#DejaVuSans-6d" transform="translate(193.144531 0)"/>
     <use xlink:href="#DejaVuSans-75" transform="translate(290.556641 0)"/>
     <use xlink:href="#DejaVuSans-70" transform="translate(353.935547 0)"/>
     <use xlink:href="#DejaVuSans-2b" transform="translate(417.412109 0)"/>
     <use xlink:href="#DejaVuSans-42" transform="translate(501.201172 0)"/>
     <use xlink:href="#DejaVuSans-65" transform="translate(569.804688 0)"/>
     <use xlink:href="#DejaVuSans-6e" transform="translate(631.328125 0)"/>
     <use xlink:href="#DejaVuSans-63" transform="translate(694.707031 0)"/>
     <use xlink:href="#DejaVuSans-68" transform="translate(749.6875 0)"/>
     <use xlink:href="#DejaVuSans-20" transform="translate(813.066406 0)"/>
     <use xlink:href="#DejaVuSans-4d" transform="translate(844.853516 0)"/>
     <use xlink:href="#DejaVuSans-65" transform="translate(931.132812 0)"/>
     <use xlink:href="#DejaVuSans-6d" transform="translate(992.65625 0)"/>
     <use xlink:href="#DejaVuSans-6f" transform="translate(1090.068359 0)"/>
     <use xlink:href="#DejaVuSans-72" transform="translate(1151.25 0)"/>
     <use xlink:href="#DejaVuSans-79" transform="translate(1192.363281 0)"/>
     <use xlink:href="#DejaVuSans-20" transform="translate(1251.542969 0)"/>
     <use xlink:href="#DejaVuSans-53" transform="translate(1283.330078 0)"/>
     <use xlink:href="#DejaVuSans-75" transform="translate(1346.806641 0)"/>
     <use xlink:href="#DejaVuSans-6d" transform="translate(1410.185547 0)"/>
     <use xlink:href="#DejaVuSans-6d" transform="translate(1507.597656 0)"/>
     <use xlink:href="#DejaVuSans-61" transform="translate(1605.009766 0)"/>
     <use xlink:href="#DejaVuSans-72" transform="translate(1666.289062 0)"/>
     <use xlink:href="#DejaVuSans-79" transform="translate(1707.402344 0)"/>
    </g>
   </g>
   <g id="legend_2">
    <g id="patch_17">
     <path d="M 790.429688 84.499107 
L 954.2 84.499107 
Q 956.2 84.499107 956.2 82.499107 
L 956.2 54.142857 
Q 956.2 52.142857 954.2 52.142857 
L 790.429688 52.142857 
Q 788.429688 52.142857 788.429688 54.142857 
L 788.429688 82.499107 
Q 788.429688 84.499107 790.429688 84.499107 
z
" style="fill: #ffffff; opacity: 0.8; stroke: #cccccc; stroke-linejoin: miter"/>
    </g>
    <g id="patch_18">
     <path d="M 792.429688 63.741295 
L 812.429688 63.741295 
L 812.429688 56.741295 
L 792.429688 56.741295 
z
" style="fill: #1f77b4"/>
    </g>
    <g id="text_35">
     <!-- Peak (warmup+bench) -->
     <g transform="translate(820.429688 63.741295) scale(0.1 -0.1)">
      <defs>
       <path id="DejaVuSans-50" d="M 1259 4147 
L 1259 2394 
L 2053 2394 
Q 2494 2394 2734 2622 
Q 2975 2850 2975 3272 
Q 2975 3691 2734 3919 
Q 2494 4147 2053 4147 
L 1259 4147 
z
M 628 4666 
L 2053 4666 
Q 2838 4666 3239 4311 
Q 3641 3956 3641 3272 
Q 3641 2581 3239 2228 
Q 2838 1875 2053 1875 
L 1259 1875 
L 1259 0 
L 628 0 
L 628 4666 
z
" transform="scale(0.015625)"/>
       <path id="DejaVuSans-6b" d="M 581 4863 
L 1159 4863 
L 1159 1991 
L 2875 3500 
L 3609 3500 
L 1753 1863 
L 3688 0 
L 2938 0 
L 1159 1709 
L 1159 0 
L 581 0 
L 581 4863 
z
" transform="scale(0.015625)"/>
      </defs>
      <use xlink:href="#DejaVuSans-50"/>
      <use xlink:href="#DejaVuSans-65" transform="translate(56.677734 0)"/>
      <use xlink:href="#DejaVuSans-61" transform="translate(118.201172 0)"/>
      <use xlink:href="#DejaVuSans-6b" transform="translate(179.480469 0)"/>
      <use xlink:href="#DejaVuSans-20" transform="translate(237.390625 0)"/>
      <use xlink:href="#DejaVuSans-28" transform="translate(269.177734 0)"/>
      <use xlink:href="#DejaVuSans-77" transform="translate(308.191406 0)"/>
      <use xlink:href="#DejaVuSans-61" transform="translate(389.978516 0)"/>
      <use xlink:href="#DejaVuSans-72" transform="translate(451.257812 0)"/>
      <use xlink:href="#DejaVuSans-6d" transform="translate(490.621094 0)"/>
      <use xlink:href="#DejaVuSans-75" transform="translate(588.033203 0)"/>
      <use xlink:href="#DejaVuSans-70" transform="translate(651.412109 0)"/>
      <use xlink:href="#DejaVuSans-2b" transform="translate(714.888672 0)"/>
      <use xlink:href="#DejaVuSans-62" transform="translate(798.677734 0)"/>
      <use xlink:href="#DejaVuSans-65" transform="translate(862.154297 0)"/>
      <use xlink:href="#DejaVuSans-6e" transform="translate(923.677734 0)"/>
      <use xlink:href="#DejaVuSans-63" transform="translate(987.056641 0)"/>
      <use xlink:href="#DejaVuSans-68" transform="translate(1042.037109 0)"/>
      <use xlink:href="#DejaVuSans-29" transform="translate(1105.416016 0)"/>
     </g>
    </g>
    <g id="patch_19">
     <path d="M 792.429688 78.41942 
L 812.429688 78.41942 
L 812.429688 71.41942 
L 792.429688 71.41942 
z
" style="fill: #ff7f0e"/>
    </g>
    <g id="text_36">
     <!-- Average (warmup+bench) -->
     <g transform="translate(820.429688 78.41942) scale(0.1 -0.1)">
      <defs>
       <path id="DejaVuSans-67" d="M 2906 1791 
Q 2906 2416 2648 2759 
Q 2391 3103 1925 3103 
Q 1463 3103 1205 2759 
Q 947 2416 947 1791 
Q 947 1169 1205 825 
Q 1463 481 1925 481 
Q 2391 481 2648 825 
Q 2906 1169 2906 1791 
z
M 3481 434 
Q 3481 -459 3084 -895 
Q 2688 -1331 1869 -1331 
Q 1566 -1331 1297 -1286 
Q 1028 -1241 775 -1147 
L 775 -588 
Q 1028 -725 1275 -790 
Q 1522 -856 1778 -856 
Q 2344 -856 2625 -561 
Q 2906 -266 2906 331 
L 2906 616 
Q 2728 306 2450 153 
Q 2172 0 1784 0 
Q 1141 0 747 490 
Q 353 981 353 1791 
Q 353 2603 747 3093 
Q 1141 3584 1784 3584 
Q 2172 3584 2450 3431 
Q 2728 3278 2906 2969 
L 2906 3500 
L 3481 3500 
L 3481 434 
z
" transform="scale(0.015625)"/>
      </defs>
      <use xlink:href="#DejaVuSans-41"/>
      <use xlink:href="#DejaVuSans-76" transform="translate(62.533203 0)"/>
      <use xlink:href="#DejaVuSans-65" transform="translate(121.712891 0)"/>
      <use xlink:href="#DejaVuSans-72" transform="translate(183.236328 0)"/>
      <use xlink:href="#DejaVuSans-61" transform="translate(224.349609 0)"/>
      <use xlink:href="#DejaVuSans-67" transform="translate(285.628906 0)"/>
      <use xlink:href="#DejaVuSans-65" transform="translate(349.105469 0)"/>
      <use xlink:href="#DejaVuSans-20" transform="translate(410.628906 0)"/>
      <use xlink:href="#DejaVuSans-28" transform="translate(442.416016 0)"/>
      <use xlink:href="#DejaVuSans-77" transform="translate(481.429688 0)"/>
      <use xlink:href="#DejaVuSans-61" transform="translate(563.216797 0)"/>
      <use xlink:href="#DejaVuSans-72" transform="translate(624.496094 0)"/>
      <use xlink:href="#DejaVuSans-6d" transform="translate(663.859375 0)"/>
      <use xlink:href="#DejaVuSans-75" transform="translate(761.271484 0)"/>
      <use xlink:href="#DejaVuSans-70" transform="translate(824.650391 0)"/>
      <use xlink:href="#DejaVuSans-2b" transform="translate(888.126953 0)"/>
      <use xlink:href="#DejaVuSans-62" transform="translate(971.916016 0)"/>
      <use xlink:href="#DejaVuSans-65" transform="translate(1035.392578 0)"/>
      <use xlink:href="#DejaVuSans-6e" transform="translate(1096.916016 0)"/>
      <use xlink:href="#DejaVuSans-63" transform="translate(1160.294922 0)"/>
      <use xlink:href="#DejaVuSans-68" transform="translate(1215.275391 0)"/>
      <use xlink:href="#DejaVuSans-29" transform="translate(1278.654297 0)"/>
     </g>
    </g>
   </g>
  </g>
  <g id="text_37">
   <!-- VRAM Comparison From /root/users/vh/LTX-2/outputs/2026-02-15 -->
   <g transform="translate(306.973281 15.846281) scale(0.11 -0.11)">
    <defs>
     <path id="DejaVuSans-43" d="M 4122 4306 
L 4122 3641 
Q 3803 3938 3442 4084 
Q 3081 4231 2675 4231 
Q 1875 4231 1450 3742 
Q 1025 3253 1025 2328 
Q 1025 1406 1450 917 
Q 1875 428 2675 428 
Q 3081 428 3442 575 
Q 3803 722 4122 1019 
L 4122 359 
Q 3791 134 3420 21 
Q 3050 -91 2638 -91 
Q 1578 -91 968 557 
Q 359 1206 359 2328 
Q 359 3453 968 4101 
Q 1578 4750 2638 4750 
Q 3056 4750 3426 4639 
Q 3797 4528 4122 4306 
z
" transform="scale(0.015625)"/>
     <path id="DejaVuSans-2f" d="M 1625 4666 
L 2156 4666 
L 531 -594 
L 0 -594 
L 1625 4666 
z
" transform="scale(0.015625)"/>
     <path id="DejaVuSans-58" d="M 403 4666 
L 1081 4666 
L 2241 2931 
L 3406 4666 
L 4084 4666 
L 2584 2425 
L 4184 0 
L 3506 0 
L 2194 1984 
L 872 0 
L 191 0 
L 1856 2491 
L 403 4666 
z
" transform="scale(0.015625)"/>
     <path id="DejaVuSans-2d" d="M 313 2009 
L 1997 2009 
L 1997 1497 
L 313 1497 
L 313 2009 
z
" transform="scale(0.015625)"/>
    </defs>
    <use xlink:href="#DejaVuSans-56"/>
    <use xlink:href="#DejaVuSans-52" transform="translate(68.408203 0)"/>
    <use xlink:href="#DejaVuSans-41" transform="translate(133.890625 0)"/>
    <use xlink:href="#DejaVuSans-4d" transform="translate(202.298828 0)"/>
    <use xlink:href="#DejaVuSans-20" transform="translate(288.578125 0)"/>
    <use xlink:href="#DejaVuSans-43" transform="translate(320.365234 0)"/>
    <use xlink:href="#DejaVuSans-6f" transform="translate(390.189453 0)"/>
    <use xlink:href="#DejaVuSans-6d" transform="translate(451.371094 0)"/>
    <use xlink:href="#DejaVuSans-70" transform="translate(548.783203 0)"/>
    <use xlink:href="#DejaVuSans-61" transform="translate(612.259766 0)"/>
    <use xlink:href="#DejaVuSans-72" transform="translate(673.539062 0)"/>
    <use xlink:href="#DejaVuSans-69" transform="translate(714.652344 0)"/>
    <use xlink:href="#DejaVuSans-73" transform="translate(742.435547 0)"/>
    <use xlink:href="#DejaVuSans-6f" transform="translate(794.535156 0)"/>
    <use xlink:href="#DejaVuSans-6e" transform="translate(855.716797 0)"/>
    <use xlink:href="#DejaVuSans-20" transform="translate(919.095703 0)"/>
    <use xlink:href="#DejaVuSans-46" transform="translate(950.882812 0)"/>
    <use xlink:href="#DejaVuSans-72" transform="translate(1001.152344 0)"/>
    <use xlink:href="#DejaVuSans-6f" transform="translate(1040.015625 0)"/>
    <use xlink:href="#DejaVuSans-6d" transform="translate(1101.197266 0)"/>
    <use xlink:href="#DejaVuSans-20" transform="translate(1198.609375 0)"/>
    <use xlink:href="#DejaVuSans-2f" transform="translate(1230.396484 0)"/>
    <use xlink:href="#DejaVuSans-72" transform="translate(1264.087891 0)"/>
    <use xlink:href="#DejaVuSans-6f" transform="translate(1302.951172 0)"/>
    <use xlink:href="#DejaVuSans-6f" transform="translate(1364.132812 0)"/>
    <use xlink:href="#DejaVuSans-74" transform="translate(1425.314453 0)"/>
    <use xlink:href="#DejaVuSans-2f" transform="translate(1464.523438 0)"/>
    <use xlink:href="#DejaVuSans-75" transform="translate(1498.214844 0)"/>
    <use xlink:href="#DejaVuSans-73" transform="translate(1561.59375 0)"/>
    <use xlink:href="#DejaVuSans-65" transform="translate(1613.693359 0)"/>
    <use xlink:href="#DejaVuSans-72" transform="translate(1675.216797 0)"/>
    <use xlink:href="#DejaVuSans-73" transform="translate(1716.330078 0)"/>
    <use xlink:href="#DejaVuSans-2f" transform="translate(1768.429688 0)"/>
    <use xlink:href="#DejaVuSans-76" transform="translate(1802.121094 0)"/>
    <use xlink:href="#DejaVuSans-68" transform="translate(1861.300781 0)"/>
    <use xlink:href="#DejaVuSans-2f" transform="translate(1924.679688 0)"/>
    <use xlink:href="#DejaVuSans-4c" transform="translate(1958.371094 0)"/>
    <use xlink:href="#DejaVuSans-54" transform="translate(2000.333984 0)"/>
    <use xlink:href="#DejaVuSans-58" transform="translate(2061.417969 0)"/>
    <use xlink:href="#DejaVuSans-2d" transform="translate(2124.923828 0)"/>
    <use xlink:href="#DejaVuSans-32" transform="translate(2161.007812 0)"/>
    <use xlink:href="#DejaVuSans-2f" transform="translate(2224.630859 0)"/>
    <use xlink:href="#DejaVuSans-6f" transform="translate(2258.322266 0)"/>
    <use xlink:href="#DejaVuSans-75" transform="translate(2319.503906 0)"/>
    <use xlink:href="#DejaVuSans-74" transform="translate(2382.882812 0)"/>
    <use xlink:href="#DejaVuSans-70" transform="translate(2422.091797 0)"/>
    <use xlink:href="#DejaVuSans-75" transform="translate(2485.568359 0)"/>
    <use xlink:href="#DejaVuSans-74" transform="translate(2548.947266 0)"/>
    <use xlink:href="#DejaVuSans-73" transform="translate(2588.15625 0)"/>
    <use xlink:href="#DejaVuSans-2f" transform="translate(2640.255859 0)"/>
    <use xlink:href="#DejaVuSans-32" transform="translate(2673.947266 0)"/>
    <use xlink:href="#DejaVuSans-30" transform="translate(2737.570312 0)"/>
    <use xlink:href="#DejaVuSans-32" transform="translate(2801.193359 0)"/>
    <use xlink:href="#DejaVuSans-36" transform="translate(2864.816406 0)"/>
    <use xlink:href="#DejaVuSans-2d" transform="translate(2928.439453 0)"/>
    <use xlink:href="#DejaVuSans-30" transform="translate(2964.523438 0)"/>
    <use xlink:href="#DejaVuSans-32" transform="translate(3028.146484 0)"/>
    <use xlink:href="#DejaVuSans-2d" transform="translate(3091.769531 0)"/>
    <use xlink:href="#DejaVuSans-31" transform="translate(3127.853516 0)"/>
    <use xlink:href="#DejaVuSans-35" transform="translate(3191.476562 0)"/>
   </g>
  </g>
 </g>
 <defs>
  <clipPath id="paf3d65fa56">
   <rect x="63.2" y="47.142857" width="417.4" height="281.459706"/>
  </clipPath>
  <clipPath id="p8bb61eca62">
   <rect x="543.8" y="47.142857" width="417.4" height="281.459706"/>
  </clipPath>
 </defs>
</svg>
