<?xml version="1.0" encoding="utf-8" standalone="no"?>
<!DOCTYPE svg PUBLIC "-//W3C//DTD SVG 1.1//EN"
  "http://www.w3.org/Graphics/SVG/1.1/DTD/svg11.dtd">
<svg xmlns:xlink="http://www.w3.org/1999/xlink" width="972pt" height="374.4pt" viewBox="0 0 972 374.4" xmlns="http://www.w3.org/2000/svg" version="1.1">
 <metadata>
  <rdf:RDF xmlns:dc="http://purl.org/dc/elements/1.1/" xmlns:cc="http://creativecommons.org/ns#" xmlns:rdf="http://www.w3.org/1999/02/22-rdf-syntax-ns#">
   <cc:Work>
    <dc:type rdf:resource="http://purl.org/dc/dcmitype/StillImage"/>
    <dc:date>2026-03-02T14:05:45.392420</dc:date>
    <dc:format>image/svg+xml</dc:format>
    <dc:creator>
     <cc:Agent>
      <dc:title>Matplotlib v3.10.8, https://matplotlib.org/</dc:title>
     </cc:Agent>
    </dc:creator>
   </cc:Work>
  </rdf:RDF>
 </metadata>
 <defs>
  <style type="text/css">*{stroke-linejoin: round; stroke-linecap: butt}</style>
 </defs>
 <g id="figure_1">
  <g id="patch_1">
   <path d="M 0 374.4 
L 972 374.4 
L 972 0 
L 0 0 
z
" style="fill: #ffffff"/>
  </g>
  <g id="axes_1">
   <g id="patch_2">
    <path d="M 64.175 327.39715 
L 480.6 327.39715 
L 480.6 67.32 
L 64.175 67.32 
z
" style="fill: #ffffff"/>
   </g>
   <g id="matplotlib.axis_1">
    <g id="xtick_1">
     <g id="line2d_1">
      <path d="M 83.103409 327.39715 
L 83.103409 67.32 
" clip-path="url(#p72886df63a)" style="fill: none; stroke: #b0b0b0; stroke-opacity: 0.25; stroke-width: 0.8; stroke-linecap: square"/>
     </g>
     <g id="line2d_2">
      <defs>
       <path id="m52fd3f06b8" d="M 0 0 
L 0 3.5 
" style="stroke: #000000; stroke-width: 0.8"/>
      </defs>
      <g>
       <use xlink:href="#m52fd3f06b8" x="83.103409" y="327.39715" style="stroke: #000000; stroke-width: 0.8"/>
      </g>
     </g>
     <g id="text_1">
      <!-- 0 -->
      <g transform="translate(79.922159 341.995587) scale(0.1 -0.1)">
       <defs>
        <path id="DejaVuSans-30" d="M 2034 4250 
Q 1547 4250 1301 3770 
Q 1056 3291 1056 2328 
Q 1056 1369 1301 889 
Q 1547 409 2034 409 
Q 2525 409 2770 889 
Q 3016 1369 3016 2328 
Q 3016 3291 2770 3770 
Q 2525 4250 2034 4250 
z
M 2034 4750 
Q 2819 4750 3233 4129 
Q 3647 3509 3647 2328 
Q 3647 1150 3233 529 
Q 2819 -91 2034 -91 
Q 1250 -91 836 529 
Q 422 1150 422 2328 
Q 422 3509 836 4129 
Q 1250 4750 2034 4750 
z
" transform="scale(0.015625)"/>
       </defs>
       <use xlink:href="#DejaVuSans-30"/>
      </g>
     </g>
    </g>
    <g id="xtick_2">
     <g id="line2d_3">
      <path d="M 130.352377 327.39715 
L 130.352377 67.32 
" clip-path="url(#p72886df63a)" style="fill: none; stroke: #b0b0b0; stroke-opacity: 0.25; stroke-width: 0.8; stroke-linecap: square"/>
     </g>
     <g id="line2d_4">
      <g>
       <use xlink:href="#m52fd3f06b8" x="130.352377" y="327.39715" style="stroke: #000000; stroke-width: 0.8"/>
      </g>
     </g>
     <g id="text_2">
      <!-- 50 -->
      <g transform="translate(123.989877 341.995587) scale(0.1 -0.1)">
       <defs>
        <path id="DejaVuSans-35" d="M 691 4666 
L 3169 4666 
L 3169 4134 
L 1269 4134 
L 1269 2991 
Q 1406 3038 1543 3061 
Q 1681 3084 1819 3084 
Q 2600 3084 3056 2656 
Q 3513 2228 3513 1497 
Q 3513 744 3044 326 
Q 2575 -91 1722 -91 
Q 1428 -91 1123 -41 
Q 819 9 494 109 
L 494 744 
Q 775 591 1075 516 
Q 1375 441 1709 441 
Q 2250 441 2565 725 
Q 2881 1009 2881 1497 
Q 2881 1984 2565 2268 
Q 2250 2553 1709 2553 
Q 1456 2553 1204 2497 
Q 953 2441 691 2322 
L 691 4666 
z
" transform="scale(0.015625)"/>
       </defs>
       <use xlink:href="#DejaVuSans-35"/>
       <use xlink:href="#DejaVuSans-30" transform="translate(63.623047 0)"/>
      </g>
     </g>
    </g>
    <g id="xtick_3">
     <g id="line2d_5">
      <path d="M 177.601345 327.39715 
L 177.601345 67.32 
" clip-path="url(#p72886df63a)" style="fill: none; stroke: #b0b0b0; stroke-opacity: 0.25; stroke-width: 0.8; stroke-linecap: square"/>
     </g>
     <g id="line2d_6">
      <g>
       <use xlink:href="#m52fd3f06b8" x="177.601345" y="327.39715" style="stroke: #000000; stroke-width: 0.8"/>
      </g>
     </g>
     <g id="text_3">
      <!-- 100 -->
      <g transform="translate(168.057595 341.995587) scale(0.1 -0.1)">
       <defs>
        <path id="DejaVuSans-31" d="M 794 531 
L 1825 531 
L 1825 4091 
L 703 3866 
L 703 4441 
L 1819 4666 
L 2450 4666 
L 2450 531 
L 3481 531 
L 3481 0 
L 794 0 
L 794 531 
z
" transform="scale(0.015625)"/>
       </defs>
       <use xlink:href="#DejaVuSans-31"/>
       <use xlink:href="#DejaVuSans-30" transform="translate(63.623047 0)"/>
       <use xlink:href="#DejaVuSans-30" transform="translate(127.246094 0)"/>
      </g>
     </g>
    </g>
    <g id="xtick_4">
     <g id="line2d_7">
      <path d="M 224.850313 327.39715 
L 224.850313 67.32 
" clip-path="url(#p72886df63a)" style="fill: none; stroke: #b0b0b0; stroke-opacity: 0.25; stroke-width: 0.8; stroke-linecap: square"/>
     </g>
     <g id="line2d_8">
      <g>
       <use xlink:href="#m52fd3f06b8" x="224.850313" y="327.39715" style="stroke: #000000; stroke-width: 0.8"/>
      </g>
     </g>
     <g id="text_4">
      <!-- 150 -->
      <g transform="translate(215.306563 341.995587) scale(0.1 -0.1)">
       <use xlink:href="#DejaVuSans-31"/>
       <use xlink:href="#DejaVuSans-35" transform="translate(63.623047 0)"/>
       <use xlink:href="#DejaVuSans-30" transform="translate(127.246094 0)"/>
      </g>
     </g>
    </g>
    <g id="xtick_5">
     <g id="line2d_9">
      <path d="M 272.099281 327.39715 
L 272.099281 67.32 
" clip-path="url(#p72886df63a)" style="fill: none; stroke: #b0b0b0; stroke-opacity: 0.25; stroke-width: 0.8; stroke-linecap: square"/>
     </g>
     <g id="line2d_10">
      <g>
       <use xlink:href="#m52fd3f06b8" x="272.099281" y="327.39715" style="stroke: #000000; stroke-width: 0.8"/>
      </g>
     </g>
     <g id="text_5">
      <!-- 200 -->
      <g transform="translate(262.555531 341.995587) scale(0.1 -0.1)">
       <defs>
        <path id="DejaVuSans-32" d="M 1228 531 
L 3431 531 
L 3431 0 
L 469 0 
L 469 531 
Q 828 903 1448 1529 
Q 2069 2156 2228 2338 
Q 2531 2678 2651 2914 
Q 2772 3150 2772 3378 
Q 2772 3750 2511 3984 
Q 2250 4219 1831 4219 
Q 1534 4219 1204 4116 
Q 875 4013 500 3803 
L 500 4441 
Q 881 4594 1212 4672 
Q 1544 4750 1819 4750 
Q 2544 4750 2975 4387 
Q 3406 4025 3406 3419 
Q 3406 3131 3298 2873 
Q 3191 2616 2906 2266 
Q 2828 2175 2409 1742 
Q 1991 1309 1228 531 
z
" transform="scale(0.015625)"/>
       </defs>
       <use xlink:href="#DejaVuSans-32"/>
       <use xlink:href="#DejaVuSans-30" transform="translate(63.623047 0)"/>
       <use xlink:href="#DejaVuSans-30" transform="translate(127.246094 0)"/>
      </g>
     </g>
    </g>
    <g id="xtick_6">
     <g id="line2d_11">
      <path d="M 319.348249 327.39715 
L 319.348249 67.32 
" clip-path="url(#p72886df63a)" style="fill: none; stroke: #b0b0b0; stroke-opacity: 0.25; stroke-width: 0.8; stroke-linecap: square"/>
     </g>
     <g id="line2d_12">
      <g>
       <use xlink:href="#m52fd3f06b8" x="319.348249" y="327.39715" style="stroke: #000000; stroke-width: 0.8"/>
      </g>
     </g>
     <g id="text_6">
      <!-- 250 -->
      <g transform="translate(309.804499 341.995587) scale(0.1 -0.1)">
       <use xlink:href="#DejaVuSans-32"/>
       <use xlink:href="#DejaVuSans-35" transform="translate(63.623047 0)"/>
       <use xlink:href="#DejaVuSans-30" transform="translate(127.246094 0)"/>
      </g>
     </g>
    </g>
    <g id="xtick_7">
     <g id="line2d_13">
      <path d="M 366.597217 327.39715 
L 366.597217 67.32 
" clip-path="url(#p72886df63a)" style="fill: none; stroke: #b0b0b0; stroke-opacity: 0.25; stroke-width: 0.8; stroke-linecap: square"/>
     </g>
     <g id="line2d_14">
      <g>
       <use xlink:href="#m52fd3f06b8" x="366.597217" y="327.39715" style="stroke: #000000; stroke-width: 0.8"/>
      </g>
     </g>
     <g id="text_7">
      <!-- 300 -->
      <g transform="translate(357.053467 341.995587) scale(0.1 -0.1)">
       <defs>
        <path id="DejaVuSans-33" d="M 2597 2516 
Q 3050 2419 3304 2112 
Q 3559 1806 3559 1356 
Q 3559 666 3084 287 
Q 2609 -91 1734 -91 
Q 1441 -91 1130 -33 
Q 819 25 488 141 
L 488 750 
Q 750 597 1062 519 
Q 1375 441 1716 441 
Q 2309 441 2620 675 
Q 2931 909 2931 1356 
Q 2931 1769 2642 2001 
Q 2353 2234 1838 2234 
L 1294 2234 
L 1294 2753 
L 1863 2753 
Q 2328 2753 2575 2939 
Q 2822 3125 2822 3475 
Q 2822 3834 2567 4026 
Q 2313 4219 1838 4219 
Q 1578 4219 1281 4162 
Q 984 4106 628 3988 
L 628 4550 
Q 988 4650 1302 4700 
Q 1616 4750 1894 4750 
Q 2613 4750 3031 4423 
Q 3450 4097 3450 3541 
Q 3450 3153 3228 2886 
Q 3006 2619 2597 2516 
z
" transform="scale(0.015625)"/>
       </defs>
       <use xlink:href="#DejaVuSans-33"/>
       <use xlink:href="#DejaVuSans-30" transform="translate(63.623047 0)"/>
       <use xlink:href="#DejaVuSans-30" transform="translate(127.246094 0)"/>
      </g>
     </g>
    </g>
    <g id="xtick_8">
     <g id="line2d_15">
      <path d="M 413.846185 327.39715 
L 413.846185 67.32 
" clip-path="url(#p72886df63a)" style="fill: none; stroke: #b0b0b0; stroke-opacity: 0.25; stroke-width: 0.8; stroke-linecap: square"/>
     </g>
     <g id="line2d_16">
      <g>
       <use xlink:href="#m52fd3f06b8" x="413.846185" y="327.39715" style="stroke: #000000; stroke-width: 0.8"/>
      </g>
     </g>
     <g id="text_8">
      <!-- 350 -->
      <g transform="translate(404.302435 341.995587) scale(0.1 -0.1)">
       <use xlink:href="#DejaVuSans-33"/>
       <use xlink:href="#DejaVuSans-35" transform="translate(63.623047 0)"/>
       <use xlink:href="#DejaVuSans-30" transform="translate(127.246094 0)"/>
      </g>
     </g>
    </g>
    <g id="xtick_9">
     <g id="line2d_17">
      <path d="M 461.095153 327.39715 
L 461.095153 67.32 
" clip-path="url(#p72886df63a)" style="fill: none; stroke: #b0b0b0; stroke-opacity: 0.25; stroke-width: 0.8; stroke-linecap: square"/>
     </g>
     <g id="line2d_18">
      <g>
       <use xlink:href="#m52fd3f06b8" x="461.095153" y="327.39715" style="stroke: #000000; stroke-width: 0.8"/>
      </g>
     </g>
     <g id="text_9">
      <!-- 400 -->
      <g transform="translate(451.551403 341.995587) scale(0.1 -0.1)">
       <defs>
        <path id="DejaVuSans-34" d="M 2419 4116 
L 825 1625 
L 2419 1625 
L 2419 4116 
z
M 2253 4666 
L 3047 4666 
L 3047 1625 
L 3713 1625 
L 3713 1100 
L 3047 1100 
L 3047 0 
L 2419 0 
L 2419 1100 
L 313 1100 
L 313 1709 
L 2253 4666 
z
" transform="scale(0.015625)"/>
       </defs>
       <use xlink:href="#DejaVuSans-34"/>
       <use xlink:href="#DejaVuSans-30" transform="translate(63.623047 0)"/>
       <use xlink:href="#DejaVuSans-30" transform="translate(127.246094 0)"/>
      </g>
     </g>
    </g>
    <g id="text_10">
     <!-- Elapsed in warmup+bench (s) -->
     <g transform="translate(197.052344 355.673712) scale(0.1 -0.1)">
      <defs>
       <path id="DejaVuSans-45" d="M 628 4666 
L 3578 4666 
L 3578 4134 
L 1259 4134 
L 1259 2753 
L 3481 2753 
L 3481 2222 
L 1259 2222 
L 1259 531 
L 3634 531 
L 3634 0 
L 628 0 
L 628 4666 
z
" transform="scale(0.015625)"/>
       <path id="DejaVuSans-6c" d="M 603 4863 
L 1178 4863 
L 1178 0 
L 603 0 
L 603 4863 
z
" transform="scale(0.015625)"/>
       <path id="DejaVuSans-61" d="M 2194 1759 
Q 1497 1759 1228 1600 
Q 959 1441 959 1056 
Q 959 750 1161 570 
Q 1363 391 1709 391 
Q 2188 391 2477 730 
Q 2766 1069 2766 1631 
L 2766 1759 
L 2194 1759 
z
M 3341 1997 
L 3341 0 
L 2766 0 
L 2766 531 
Q 2569 213 2275 61 
Q 1981 -91 1556 -91 
Q 1019 -91 701 211 
Q 384 513 384 1019 
Q 384 1609 779 1909 
Q 1175 2209 1959 2209 
L 2766 2209 
L 2766 2266 
Q 2766 2663 2505 2880 
Q 2244 3097 1772 3097 
Q 1472 3097 1187 3025 
Q 903 2953 641 2809 
L 641 3341 
Q 956 3463 1253 3523 
Q 1550 3584 1831 3584 
Q 2591 3584 2966 3190 
Q 3341 2797 3341 1997 
z
" transform="scale(0.015625)"/>
       <path id="DejaVuSans-70" d="M 1159 525 
L 1159 -1331 
L 581 -1331 
L 581 3500 
L 1159 3500 
L 1159 2969 
Q 1341 3281 1617 3432 
Q 1894 3584 2278 3584 
Q 2916 3584 3314 3078 
Q 3713 2572 3713 1747 
Q 3713 922 3314 415 
Q 2916 -91 2278 -91 
Q 1894 -91 1617 61 
Q 1341 213 1159 525 
z
M 3116 1747 
Q 3116 2381 2855 2742 
Q 2594 3103 2138 3103 
Q 1681 3103 1420 2742 
Q 1159 2381 1159 1747 
Q 1159 1113 1420 752 
Q 1681 391 2138 391 
Q 2594 391 2855 752 
Q 3116 1113 3116 1747 
z
" transform="scale(0.015625)"/>
       <path id="DejaVuSans-73" d="M 2834 3397 
L 2834 2853 
Q 2591 2978 2328 3040 
Q 2066 3103 1784 3103 
Q 1356 3103 1142 2972 
Q 928 2841 928 2578 
Q 928 2378 1081 2264 
Q 1234 2150 1697 2047 
L 1894 2003 
Q 2506 1872 2764 1633 
Q 3022 1394 3022 966 
Q 3022 478 2636 193 
Q 2250 -91 1575 -91 
Q 1294 -91 989 -36 
Q 684 19 347 128 
L 347 722 
Q 666 556 975 473 
Q 1284 391 1588 391 
Q 1994 391 2212 530 
Q 2431 669 2431 922 
Q 2431 1156 2273 1281 
Q 2116 1406 1581 1522 
L 1381 1569 
Q 847 1681 609 1914 
Q 372 2147 372 2553 
Q 372 3047 722 3315 
Q 1072 3584 1716 3584 
Q 2034 3584 2315 3537 
Q 2597 3491 2834 3397 
z
" transform="scale(0.015625)"/>
       <path id="DejaVuSans-65" d="M 3597 1894 
L 3597 1613 
L 953 1613 
Q 991 1019 1311 708 
Q 1631 397 2203 397 
Q 2534 397 2845 478 
Q 3156 559 3463 722 
L 3463 178 
Q 3153 47 2828 -22 
Q 2503 -91 2169 -91 
Q 1331 -91 842 396 
Q 353 884 353 1716 
Q 353 2575 817 3079 
Q 1281 3584 2069 3584 
Q 2775 3584 3186 3129 
Q 3597 2675 3597 1894 
z
M 3022 2063 
Q 3016 2534 2758 2815 
Q 2500 3097 2075 3097 
Q 1594 3097 1305 2825 
Q 1016 2553 972 2059 
L 3022 2063 
z
" transform="scale(0.015625)"/>
       <path id="DejaVuSans-64" d="M 2906 2969 
L 2906 4863 
L 3481 4863 
L 3481 0 
L 2906 0 
L 2906 525 
Q 2725 213 2448 61 
Q 2172 -91 1784 -91 
Q 1150 -91 751 415 
Q 353 922 353 1747 
Q 353 2572 751 3078 
Q 1150 3584 1784 3584 
Q 2172 3584 2448 3432 
Q 2725 3281 2906 2969 
z
M 947 1747 
Q 947 1113 1208 752 
Q 1469 391 1925 391 
Q 2381 391 2643 752 
Q 2906 1113 2906 1747 
Q 2906 2381 2643 2742 
Q 2381 3103 1925 3103 
Q 1469 3103 1208 2742 
Q 947 2381 947 1747 
z
" transform="scale(0.015625)"/>
       <path id="DejaVuSans-20" transform="scale(0.015625)"/>
       <path id="DejaVuSans-69" d="M 603 3500 
L 1178 3500 
L 1178 0 
L 603 0 
L 603 3500 
z
M 603 4863 
L 1178 4863 
L 1178 4134 
L 603 4134 
L 603 4863 
z
" transform="scale(0.015625)"/>
       <path id="DejaVuSans-6e" d="M 3513 2113 
L 3513 0 
L 2938 0 
L 2938 2094 
Q 2938 2591 2744 2837 
Q 2550 3084 2163 3084 
Q 1697 3084 1428 2787 
Q 1159 2491 1159 1978 
L 1159 0 
L 581 0 
L 581 3500 
L 1159 3500 
L 1159 2956 
Q 1366 3272 1645 3428 
Q 1925 3584 2291 3584 
Q 2894 3584 3203 3211 
Q 3513 2838 3513 2113 
z
" transform="scale(0.015625)"/>
       <path id="DejaVuSans-77" d="M 269 3500 
L 844 3500 
L 1563 769 
L 2278 3500 
L 2956 3500 
L 3675 769 
L 4391 3500 
L 4966 3500 
L 4050 0 
L 3372 0 
L 2619 2869 
L 1863 0 
L 1184 0 
L 269 3500 
z
" transform="scale(0.015625)"/>
       <path id="DejaVuSans-72" d="M 2631 2963 
Q 2534 3019 2420 3045 
Q 2306 3072 2169 3072 
Q 1681 3072 1420 2755 
Q 1159 2438 1159 1844 
L 1159 0 
L 581 0 
L 581 3500 
L 1159 3500 
L 1159 2956 
Q 1341 3275 1631 3429 
Q 1922 3584 2338 3584 
Q 2397 3584 2469 3576 
Q 2541 3569 2628 3553 
L 2631 2963 
z
" transform="scale(0.015625)"/>
       <path id="DejaVuSans-6d" d="M 3328 2828 
Q 3544 3216 3844 3400 
Q 4144 3584 4550 3584 
Q 5097 3584 5394 3201 
Q 5691 2819 5691 2113 
L 5691 0 
L 5113 0 
L 5113 2094 
Q 5113 2597 4934 2840 
Q 4756 3084 4391 3084 
Q 3944 3084 3684 2787 
Q 3425 2491 3425 1978 
L 3425 0 
L 2847 0 
L 2847 2094 
Q 2847 2600 2669 2842 
Q 2491 3084 2119 3084 
Q 1678 3084 1418 2786 
Q 1159 2488 1159 1978 
L 1159 0 
L 581 0 
L 581 3500 
L 1159 3500 
L 1159 2956 
Q 1356 3278 1631 3431 
Q 1906 3584 2284 3584 
Q 2666 3584 2933 3390 
Q 3200 3197 3328 2828 
z
" transform="scale(0.015625)"/>
       <path id="DejaVuSans-75" d="M 544 1381 
L 544 3500 
L 1119 3500 
L 1119 1403 
Q 1119 906 1312 657 
Q 1506 409 1894 409 
Q 2359 409 2629 706 
Q 2900 1003 2900 1516 
L 2900 3500 
L 3475 3500 
L 3475 0 
L 2900 0 
L 2900 538 
Q 2691 219 2414 64 
Q 2138 -91 1772 -91 
Q 1169 -91 856 284 
Q 544 659 544 1381 
z
M 1991 3584 
L 1991 3584 
z
" transform="scale(0.015625)"/>
       <path id="DejaVuSans-2b" d="M 2944 4013 
L 2944 2272 
L 4684 2272 
L 4684 1741 
L 2944 1741 
L 2944 0 
L 2419 0 
L 2419 1741 
L 678 1741 
L 678 2272 
L 2419 2272 
L 2419 4013 
L 2944 4013 
z
" transform="scale(0.015625)"/>
       <path id="DejaVuSans-62" d="M 3116 1747 
Q 3116 2381 2855 2742 
Q 2594 3103 2138 3103 
Q 1681 3103 1420 2742 
Q 1159 2381 1159 1747 
Q 1159 1113 1420 752 
Q 1681 391 2138 391 
Q 2594 391 2855 752 
Q 3116 1113 3116 1747 
z
M 1159 2969 
Q 1341 3281 1617 3432 
Q 1894 3584 2278 3584 
Q 2916 3584 3314 3078 
Q 3713 2572 3713 1747 
Q 3713 922 3314 415 
Q 2916 -91 2278 -91 
Q 1894 -91 1617 61 
Q 1341 213 1159 525 
L 1159 0 
L 581 0 
L 581 4863 
L 1159 4863 
L 1159 2969 
z
" transform="scale(0.015625)"/>
       <path id="DejaVuSans-63" d="M 3122 3366 
L 3122 2828 
Q 2878 2963 2633 3030 
Q 2388 3097 2138 3097 
Q 1578 3097 1268 2742 
Q 959 2388 959 1747 
Q 959 1106 1268 751 
Q 1578 397 2138 397 
Q 2388 397 2633 464 
Q 2878 531 3122 666 
L 3122 134 
Q 2881 22 2623 -34 
Q 2366 -91 2075 -91 
Q 1284 -91 818 406 
Q 353 903 353 1747 
Q 353 2603 823 3093 
Q 1294 3584 2113 3584 
Q 2378 3584 2631 3529 
Q 2884 3475 3122 3366 
z
" transform="scale(0.015625)"/>
       <path id="DejaVuSans-68" d="M 3513 2113 
L 3513 0 
L 2938 0 
L 2938 2094 
Q 2938 2591 2744 2837 
Q 2550 3084 2163 3084 
Q 1697 3084 1428 2787 
Q 1159 2491 1159 1978 
L 1159 0 
L 581 0 
L 581 4863 
L 1159 4863 
L 1159 2956 
Q 1366 3272 1645 3428 
Q 1925 3584 2291 3584 
Q 2894 3584 3203 3211 
Q 3513 2838 3513 2113 
z
" transform="scale(0.015625)"/>
       <path id="DejaVuSans-28" d="M 1984 4856 
Q 1566 4138 1362 3434 
Q 1159 2731 1159 2009 
Q 1159 1288 1364 580 
Q 1569 -128 1984 -844 
L 1484 -844 
Q 1016 -109 783 600 
Q 550 1309 550 2009 
Q 550 2706 781 3412 
Q 1013 4119 1484 4856 
L 1984 4856 
z
" transform="scale(0.015625)"/>
       <path id="DejaVuSans-29" d="M 513 4856 
L 1013 4856 
Q 1481 4119 1714 3412 
Q 1947 2706 1947 2009 
Q 1947 1309 1714 600 
Q 1481 -109 1013 -844 
L 513 -844 
Q 928 -128 1133 580 
Q 1338 1288 1338 2009 
Q 1338 2731 1133 3434 
Q 928 4138 513 4856 
z
" transform="scale(0.015625)"/>
      </defs>
      <use xlink:href="#DejaVuSans-45"/>
      <use xlink:href="#DejaVuSans-6c" transform="translate(63.183594 0)"/>
      <use xlink:href="#DejaVuSans-61" transform="translate(90.966797 0)"/>
      <use xlink:href="#DejaVuSans-70" transform="translate(152.246094 0)"/>
      <use xlink:href="#DejaVuSans-73" transform="translate(215.722656 0)"/>
      <use xlink:href="#DejaVuSans-65" transform="translate(267.822266 0)"/>
      <use xlink:href="#DejaVuSans-64" transform="translate(329.345703 0)"/>
      <use xlink:href="#DejaVuSans-20" transform="translate(392.822266 0)"/>
      <use xlink:href="#DejaVuSans-69" transform="translate(424.609375 0)"/>
      <use xlink:href="#DejaVuSans-6e" transform="translate(452.392578 0)"/>
      <use xlink:href="#DejaVuSans-20" transform="translate(515.771484 0)"/>
      <use xlink:href="#DejaVuSans-77" transform="translate(547.558594 0)"/>
      <use xlink:href="#DejaVuSans-61" transform="translate(629.345703 0)"/>
      <use xlink:href="#DejaVuSans-72" transform="translate(690.625 0)"/>
      <use xlink:href="#DejaVuSans-6d" transform="translate(729.988281 0)"/>
      <use xlink:href="#DejaVuSans-75" transform="translate(827.400391 0)"/>
      <use xlink:href="#DejaVuSans-70" transform="translate(890.779297 0)"/>
      <use xlink:href="#DejaVuSans-2b" transform="translate(954.255859 0)"/>
      <use xlink:href="#DejaVuSans-62" transform="translate(1038.044922 0)"/>
      <use xlink:href="#DejaVuSans-65" transform="translate(1101.521484 0)"/>
      <use xlink:href="#DejaVuSans-6e" transform="translate(1163.044922 0)"/>
      <use xlink:href="#DejaVuSans-63" transform="translate(1226.423828 0)"/>
      <use xlink:href="#DejaVuSans-68" transform="translate(1281.404297 0)"/>
      <use xlink:href="#DejaVuSans-20" transform="translate(1344.783203 0)"/>
      <use xlink:href="#DejaVuSans-28" transform="translate(1376.570312 0)"/>
      <use xlink:href="#DejaVuSans-73" transform="translate(1415.583984 0)"/>
      <use xlink:href="#DejaVuSans-29" transform="translate(1467.683594 0)"/>
     </g>
    </g>
   </g>
   <g id="matplotlib.axis_2">
    <g id="ytick_1">
     <g id="line2d_19">
      <path d="M 64.175 319.312597 
L 480.6 319.312597 
" clip-path="url(#p72886df63a)" style="fill: none; stroke: #b0b0b0; stroke-opacity: 0.25; stroke-width: 0.8; stroke-linecap: square"/>
     </g>
     <g id="line2d_20">
      <defs>
       <path id="me3b7ce15cc" d="M 0 0 
L -3.5 0 
" style="stroke: #000000; stroke-width: 0.8"/>
      </defs>
      <g>
       <use xlink:href="#me3b7ce15cc" x="64.175" y="319.312597" style="stroke: #000000; stroke-width: 0.8"/>
      </g>
     </g>
     <g id="text_11">
      <!-- 0 -->
      <g transform="translate(50.8125 323.111815) scale(0.1 -0.1)">
       <use xlink:href="#DejaVuSans-30"/>
      </g>
     </g>
    </g>
    <g id="ytick_2">
     <g id="line2d_21">
      <path d="M 64.175 283.945496 
L 480.6 283.945496 
" clip-path="url(#p72886df63a)" style="fill: none; stroke: #b0b0b0; stroke-opacity: 0.25; stroke-width: 0.8; stroke-linecap: square"/>
     </g>
     <g id="line2d_22">
      <g>
       <use xlink:href="#me3b7ce15cc" x="64.175" y="283.945496" style="stroke: #000000; stroke-width: 0.8"/>
      </g>
     </g>
     <g id="text_12">
      <!-- 10000 -->
      <g transform="translate(25.3625 287.744715) scale(0.1 -0.1)">
       <use xlink:href="#DejaVuSans-31"/>
       <use xlink:href="#DejaVuSans-30" transform="translate(63.623047 0)"/>
       <use xlink:href="#DejaVuSans-30" transform="translate(127.246094 0)"/>
       <use xlink:href="#DejaVuSans-30" transform="translate(190.869141 0)"/>
       <use xlink:href="#DejaVuSans-30" transform="translate(254.492188 0)"/>
      </g>
     </g>
    </g>
    <g id="ytick_3">
     <g id="line2d_23">
      <path d="M 64.175 248.578395 
L 480.6 248.578395 
" clip-path="url(#p72886df63a)" style="fill: none; stroke: #b0b0b0; stroke-opacity: 0.25; stroke-width: 0.8; stroke-linecap: square"/>
     </g>
     <g id="line2d_24">
      <g>
       <use xlink:href="#me3b7ce15cc" x="64.175" y="248.578395" style="stroke: #000000; stroke-width: 0.8"/>
      </g>
     </g>
     <g id="text_13">
      <!-- 20000 -->
      <g transform="translate(25.3625 252.377614) scale(0.1 -0.1)">
       <use xlink:href="#DejaVuSans-32"/>
       <use xlink:href="#DejaVuSans-30" transform="translate(63.623047 0)"/>
       <use xlink:href="#DejaVuSans-30" transform="translate(127.246094 0)"/>
       <use xlink:href="#DejaVuSans-30" transform="translate(190.869141 0)"/>
       <use xlink:href="#DejaVuSans-30" transform="translate(254.492188 0)"/>
      </g>
     </g>
    </g>
    <g id="ytick_4">
     <g id="line2d_25">
      <path d="M 64.175 213.211294 
L 480.6 213.211294 
" clip-path="url(#p72886df63a)" style="fill: none; stroke: #b0b0b0; stroke-opacity: 0.25; stroke-width: 0.8; stroke-linecap: square"/>
     </g>
     <g id="line2d_26">
      <g>
       <use xlink:href="#me3b7ce15cc" x="64.175" y="213.211294" style="stroke: #000000; stroke-width: 0.8"/>
      </g>
     </g>
     <g id="text_14">
      <!-- 30000 -->
      <g transform="translate(25.3625 217.010513) scale(0.1 -0.1)">
       <use xlink:href="#DejaVuSans-33"/>
       <use xlink:href="#DejaVuSans-30" transform="translate(63.623047 0)"/>
       <use xlink:href="#DejaVuSans-30" transform="translate(127.246094 0)"/>
       <use xlink:href="#DejaVuSans-30" transform="translate(190.869141 0)"/>
       <use xlink:href="#DejaVuSans-30" transform="translate(254.492188 0)"/>
      </g>
     </g>
    </g>
    <g id="ytick_5">
     <g id="line2d_27">
      <path d="M 64.175 177.844193 
L 480.6 177.844193 
" clip-path="url(#p72886df63a)" style="fill: none; stroke: #b0b0b0; stroke-opacity: 0.25; stroke-width: 0.8; stroke-linecap: square"/>
     </g>
     <g id="line2d_28">
      <g>
       <use xlink:href="#me3b7ce15cc" x="64.175" y="177.844193" style="stroke: #000000; stroke-width: 0.8"/>
      </g>
     </g>
     <g id="text_15">
      <!-- 40000 -->
      <g transform="translate(25.3625 181.643412) scale(0.1 -0.1)">
       <use xlink:href="#DejaVuSans-34"/>
       <use xlink:href="#DejaVuSans-30" transform="translate(63.623047 0)"/>
       <use xlink:href="#DejaVuSans-30" transform="translate(127.246094 0)"/>
       <use xlink:href="#DejaVuSans-30" transform="translate(190.869141 0)"/>
       <use xlink:href="#DejaVuSans-30" transform="translate(254.492188 0)"/>
      </g>
     </g>
    </g>
    <g id="ytick_6">
     <g id="line2d_29">
      <path d="M 64.175 142.477093 
L 480.6 142.477093 
" clip-path="url(#p72886df63a)" style="fill: none; stroke: #b0b0b0; stroke-opacity: 0.25; stroke-width: 0.8; stroke-linecap: square"/>
     </g>
     <g id="line2d_30">
      <g>
       <use xlink:href="#me3b7ce15cc" x="64.175" y="142.477093" style="stroke: #000000; stroke-width: 0.8"/>
      </g>
     </g>
     <g id="text_16">
      <!-- 50000 -->
      <g transform="translate(25.3625 146.276311) scale(0.1 -0.1)">
       <use xlink:href="#DejaVuSans-35"/>
       <use xlink:href="#DejaVuSans-30" transform="translate(63.623047 0)"/>
       <use xlink:href="#DejaVuSans-30" transform="translate(127.246094 0)"/>
       <use xlink:href="#DejaVuSans-30" transform="translate(190.869141 0)"/>
       <use xlink:href="#DejaVuSans-30" transform="translate(254.492188 0)"/>
      </g>
     </g>
    </g>
    <g id="ytick_7">
     <g id="line2d_31">
      <path d="M 64.175 107.109992 
L 480.6 107.109992 
" clip-path="url(#p72886df63a)" style="fill: none; stroke: #b0b0b0; stroke-opacity: 0.25; stroke-width: 0.8; stroke-linecap: square"/>
     </g>
     <g id="line2d_32">
      <g>
       <use xlink:href="#me3b7ce15cc" x="64.175" y="107.109992" style="stroke: #000000; stroke-width: 0.8"/>
      </g>
     </g>
     <g id="text_17">
      <!-- 60000 -->
      <g transform="translate(25.3625 110.909211) scale(0.1 -0.1)">
       <defs>
        <path id="DejaVuSans-36" d="M 2113 2584 
Q 1688 2584 1439 2293 
Q 1191 2003 1191 1497 
Q 1191 994 1439 701 
Q 1688 409 2113 409 
Q 2538 409 2786 701 
Q 3034 994 3034 1497 
Q 3034 2003 2786 2293 
Q 2538 2584 2113 2584 
z
M 3366 4563 
L 3366 3988 
Q 3128 4100 2886 4159 
Q 2644 4219 2406 4219 
Q 1781 4219 1451 3797 
Q 1122 3375 1075 2522 
Q 1259 2794 1537 2939 
Q 1816 3084 2150 3084 
Q 2853 3084 3261 2657 
Q 3669 2231 3669 1497 
Q 3669 778 3244 343 
Q 2819 -91 2113 -91 
Q 1303 -91 875 529 
Q 447 1150 447 2328 
Q 447 3434 972 4092 
Q 1497 4750 2381 4750 
Q 2619 4750 2861 4703 
Q 3103 4656 3366 4563 
z
" transform="scale(0.015625)"/>
       </defs>
       <use xlink:href="#DejaVuSans-36"/>
       <use xlink:href="#DejaVuSans-30" transform="translate(63.623047 0)"/>
       <use xlink:href="#DejaVuSans-30" transform="translate(127.246094 0)"/>
       <use xlink:href="#DejaVuSans-30" transform="translate(190.869141 0)"/>
       <use xlink:href="#DejaVuSans-30" transform="translate(254.492188 0)"/>
      </g>
     </g>
    </g>
    <g id="ytick_8">
     <g id="line2d_33">
      <path d="M 64.175 71.742891 
L 480.6 71.742891 
" clip-path="url(#p72886df63a)" style="fill: none; stroke: #b0b0b0; stroke-opacity: 0.25; stroke-width: 0.8; stroke-linecap: square"/>
     </g>
     <g id="line2d_34">
      <g>
       <use xlink:href="#me3b7ce15cc" x="64.175" y="71.742891" style="stroke: #000000; stroke-width: 0.8"/>
      </g>
     </g>
     <g id="text_18">
      <!-- 70000 -->
      <g transform="translate(25.3625 75.54211) scale(0.1 -0.1)">
       <defs>
        <path id="DejaVuSans-37" d="M 525 4666 
L 3525 4666 
L 3525 4397 
L 1831 0 
L 1172 0 
L 2766 4134 
L 525 4134 
L 525 4666 
z
" transform="scale(0.015625)"/>
       </defs>
       <use xlink:href="#DejaVuSans-37"/>
       <use xlink:href="#DejaVuSans-30" transform="translate(63.623047 0)"/>
       <use xlink:href="#DejaVuSans-30" transform="translate(127.246094 0)"/>
       <use xlink:href="#DejaVuSans-30" transform="translate(190.869141 0)"/>
       <use xlink:href="#DejaVuSans-30" transform="translate(254.492188 0)"/>
      </g>
     </g>
    </g>
    <g id="text_19">
     <!-- Memory (MB) -->
     <g transform="translate(19.282812 230.928887) rotate(-90) scale(0.1 -0.1)">
      <defs>
       <path id="DejaVuSans-4d" d="M 628 4666 
L 1569 4666 
L 2759 1491 
L 3956 4666 
L 4897 4666 
L 4897 0 
L 4281 0 
L 4281 4097 
L 3078 897 
L 2444 897 
L 1241 4097 
L 1241 0 
L 628 0 
L 628 4666 
z
" transform="scale(0.015625)"/>
       <path id="DejaVuSans-6f" d="M 1959 3097 
Q 1497 3097 1228 2736 
Q 959 2375 959 1747 
Q 959 1119 1226 758 
Q 1494 397 1959 397 
Q 2419 397 2687 759 
Q 2956 1122 2956 1747 
Q 2956 2369 2687 2733 
Q 2419 3097 1959 3097 
z
M 1959 3584 
Q 2709 3584 3137 3096 
Q 3566 2609 3566 1747 
Q 3566 888 3137 398 
Q 2709 -91 1959 -91 
Q 1206 -91 779 398 
Q 353 888 353 1747 
Q 353 2609 779 3096 
Q 1206 3584 1959 3584 
z
" transform="scale(0.015625)"/>
       <path id="DejaVuSans-79" d="M 2059 -325 
Q 1816 -950 1584 -1140 
Q 1353 -1331 966 -1331 
L 506 -1331 
L 506 -850 
L 844 -850 
Q 1081 -850 1212 -737 
Q 1344 -625 1503 -206 
L 1606 56 
L 191 3500 
L 800 3500 
L 1894 763 
L 2988 3500 
L 3597 3500 
L 2059 -325 
z
" transform="scale(0.015625)"/>
       <path id="DejaVuSans-42" d="M 1259 2228 
L 1259 519 
L 2272 519 
Q 2781 519 3026 730 
Q 3272 941 3272 1375 
Q 3272 1813 3026 2020 
Q 2781 2228 2272 2228 
L 1259 2228 
z
M 1259 4147 
L 1259 2741 
L 2194 2741 
Q 2656 2741 2882 2914 
Q 3109 3088 3109 3444 
Q 3109 3797 2882 3972 
Q 2656 4147 2194 4147 
L 1259 4147 
z
M 628 4666 
L 2241 4666 
Q 2963 4666 3353 4366 
Q 3744 4066 3744 3513 
Q 3744 3084 3544 2831 
Q 3344 2578 2956 2516 
Q 3422 2416 3680 2098 
Q 3938 1781 3938 1306 
Q 3938 681 3513 340 
Q 3088 0 2303 0 
L 628 0 
L 628 4666 
z
" transform="scale(0.015625)"/>
      </defs>
      <use xlink:href="#DejaVuSans-4d"/>
      <use xlink:href="#DejaVuSans-65" transform="translate(86.279297 0)"/>
      <use xlink:href="#DejaVuSans-6d" transform="translate(147.802734 0)"/>
      <use xlink:href="#DejaVuSans-6f" transform="translate(245.214844 0)"/>
      <use xlink:href="#DejaVuSans-72" transform="translate(306.396484 0)"/>
      <use xlink:href="#DejaVuSans-79" transform="translate(347.509766 0)"/>
      <use xlink:href="#DejaVuSans-20" transform="translate(406.689453 0)"/>
      <use xlink:href="#DejaVuSans-28" transform="translate(438.476562 0)"/>
      <use xlink:href="#DejaVuSans-4d" transform="translate(477.490234 0)"/>
      <use xlink:href="#DejaVuSans-42" transform="translate(563.769531 0)"/>
      <use xlink:href="#DejaVuSans-29" transform="translate(632.373047 0)"/>
     </g>
    </g>
   </g>
   <g id="line2d_35">
    <path d="M 83.103409 191.975295 
L 84.513318 191.975295 
L 85.10582 182.318945 
L 86.527069 153.780807 
L 86.810563 149.621424 
L 88.228977 120.758085 
L 88.513416 109.80645 
L 88.79691 109.80645 
L 89.080404 104.055442 
L 89.420596 99.765943 
L 89.705035 99.5571 
L 90.126496 99.592538 
L 90.410934 94.847794 
L 99.32587 94.851472 
L 208.157253 94.851472 
L 208.446417 93.721599 
L 208.730855 94.206376 
L 209.014349 93.796294 
L 209.297843 94.848077 
L 209.582282 91.745887 
L 210.463002 94.843054 
L 215.940103 94.830959 
L 401.117313 94.830959 
L 401.411202 91.083673 
L 401.694696 90.808694 
L 401.97819 90.800489 
L 402.262628 91.112639 
L 402.546122 90.795219 
L 402.829616 94.817555 
L 403.774595 99.564987 
L 404.363318 98.210179 
L 404.646811 95.302049 
L 405.332866 95.98237 
L 405.617305 91.246185 
L 405.900799 90.251521 
L 406.185238 91.239324 
L 406.468732 90.26878 
L 406.76829 87.884224 
L 407.267239 91.23607 
L 407.550733 87.196829 
L 408.118666 87.683056 
L 408.402159 87.498263 
L 409.103334 95.961928 
L 409.543694 95.98237 
L 409.828133 91.246185 
L 410.111627 90.26878 
L 410.396066 91.239324 
L 410.67956 90.236348 
L 410.973448 87.884224 
L 411.493187 91.23607 
L 411.777626 87.196829 
L 412.061119 87.461516 
L 412.344613 87.186537 
L 412.629052 87.654762 
L 412.912546 91.208873 
L 413.426615 95.961928 
L 413.876425 95.98237 
L 414.160864 91.246185 
L 414.444357 90.262873 
L 414.728796 91.239324 
L 415.01229 90.37382 
L 415.318463 87.884224 
L 415.797568 91.23607 
L 416.082007 87.724718 
L 416.3655 87.461516 
L 416.648994 87.461516 
L 416.933433 87.182328 
L 417.657287 95.961928 
L 418.097648 95.98237 
L 418.382086 91.246185 
L 418.66558 90.265632 
L 418.950019 91.239324 
L 419.233513 90.293501 
L 419.544411 87.884224 
L 420.113289 91.23607 
L 420.396782 87.197642 
L 420.681221 87.081391 
L 421.248209 87.182328 
L 421.960723 95.961928 
L 422.410533 95.98237 
L 422.694027 91.246185 
L 422.978466 90.061918 
L 423.26196 91.239324 
L 423.545454 90.265667 
L 423.846902 87.884224 
L 424.317502 91.23607 
L 424.600996 87.190463 
L 424.884489 87.498263 
L 425.452422 87.499288 
L 426.163046 95.961928 
L 426.730979 99.262421 
L 429.000819 113.954092 
L 436.09478 160.18151 
L 436.662712 163.805329 
L 439.49954 182.375497 
L 446.311896 226.208987 
L 447.162378 226.208987 
L 447.445872 227.330124 
L 451.703004 255.397738 
L 452.270936 258.833864 
L 455.960136 283.139833 
L 456.527123 286.575959 
L 457.662043 294.171575 
L 458.229976 297.933184 
L 458.514415 299.126965 
L 459.364896 299.126965 
L 459.649335 305.919111 
L 459.932829 305.919111 
L 460.216323 310.992203 
L 460.78331 314.676783 
L 461.067749 315.575461 
L 461.371087 315.575461 
L 461.671591 311.793197 
L 461.671591 311.793197 
" clip-path="url(#p72886df63a)" style="fill: none; stroke: #d62728; stroke-width: 1.2; stroke-linecap: square"/>
   </g>
   <g id="line2d_36">
    <path d="M 83.103409 217.863695 
L 84.280853 217.863695 
L 85.150234 202.058314 
L 86.285155 179.669207 
L 86.853087 169.035345 
L 87.988007 146.24857 
L 88.271501 135.69485 
L 88.55594 135.69485 
L 88.839434 129.887148 
L 89.165452 125.654342 
L 89.448946 125.445464 
L 89.855287 125.480902 
L 90.13878 120.739871 
L 94.697361 120.739836 
L 95.012984 119.925296 
L 97.9462 119.925296 
L 98.241033 119.663332 
L 98.525472 119.602925 
L 98.932758 119.872281 
L 101.333951 119.872281 
L 101.626895 119.553199 
L 101.911333 119.872281 
L 102.200497 119.554967 
L 102.484936 119.764942 
L 102.769375 119.653677 
L 103.052868 116.98438 
L 103.400621 120.733222 
L 105.794254 120.719323 
L 109.85861 120.719323 
L 110.164783 117.643163 
L 115.973571 117.643163 
L 116.266515 115.973624 
L 116.550954 116.601602 
L 116.834447 116.389576 
L 117.121721 117.399696 
L 117.689654 117.434215 
L 117.975982 120.712603 
L 118.259476 117.358034 
L 118.543915 116.261724 
L 119.119407 125.46046 
L 119.403846 121.632714 
L 119.688285 121.870664 
L 119.971779 119.426408 
L 120.256218 115.941016 
L 120.539711 116.225615 
L 120.82415 116.258046 
L 121.107644 114.600284 
L 121.431772 117.124434 
L 121.717156 113.81715 
L 122.00065 112.662202 
L 122.286033 117.097237 
L 122.569527 113.125582 
L 122.933344 121.850292 
L 123.217783 121.364596 
L 123.501277 116.001564 
L 123.785716 116.258046 
L 124.069209 117.127688 
L 124.353648 115.746284 
L 124.798733 117.124434 
L 125.083172 113.816125 
L 125.370446 112.914228 
L 125.65394 117.097237 
L 125.940269 113.777539 
L 126.359839 121.850292 
L 126.644278 121.41411 
L 126.927772 116.226888 
L 127.212211 116.251786 
L 127.495705 115.937373 
L 127.779198 115.937302 
L 128.16286 117.124434 
L 128.449189 113.81715 
L 128.733627 112.652936 
L 129.018066 117.097237 
L 129.302505 113.803746 
L 129.653092 121.850292 
L 129.937531 121.315082 
L 130.221025 116.104447 
L 130.788958 115.966975 
L 131.073396 115.746284 
L 131.482572 117.124434 
L 131.767956 113.81715 
L 132.05145 112.661354 
L 132.335889 117.097237 
L 132.621273 113.803746 
L 133.002099 121.850292 
L 133.286538 121.41411 
L 133.570032 115.944411 
L 133.854471 115.941016 
L 134.138909 117.127688 
L 134.422403 115.746284 
L 134.807955 117.124434 
L 135.092394 113.816125 
L 135.375887 113.33347 
L 135.659381 117.097237 
L 135.94571 113.777539 
L 136.325592 121.850292 
L 136.892579 125.39496 
L 138.311938 134.428177 
L 152.216365 225.598126 
L 152.499858 226.208987 
L 153.067791 226.208987 
L 153.351285 226.371675 
L 154.202711 231.887493 
L 155.905564 243.244718 
L 161.58111 281.116729 
L 162.432536 286.575959 
L 163.283963 292.254572 
L 164.135389 297.933184 
L 164.418883 299.126965 
L 165.27031 299.126965 
L 165.554748 305.919111 
L 165.838242 305.919111 
L 166.121736 311.191179 
L 166.689669 315.174257 
L 166.973162 315.575461 
L 167.256656 315.168492 
L 167.541095 311.388456 
L 167.541095 311.388456 
" clip-path="url(#p72886df63a)" style="fill: none; stroke: #1f77b4; stroke-width: 1.2; stroke-linecap: square"/>
   </g>
   <g id="line2d_37">
    <path d="M 83.103409 187.796496 
L 84.513318 187.796496 
L 85.10582 177.992735 
L 86.527069 149.154401 
L 86.810563 144.95279 
L 88.228977 115.789078 
L 88.513416 104.78991 
L 88.79691 104.78991 
L 89.080404 98.975559 
L 89.420596 95.537877 
L 89.705035 95.212499 
L 90.126496 82.742059 
L 90.410934 90.812832 
L 95.120712 90.805758 
L 208.157253 90.805758 
L 208.446417 89.475955 
L 208.730855 89.263753 
L 209.297843 89.263753 
L 209.582282 86.971965 
L 210.463002 84.95604 
L 211.008256 90.812832 
L 401.117313 90.812832 
L 401.411202 85.444106 
L 403.774595 85.444106 
L 404.363318 94.024165 
L 404.646811 91.244311 
L 405.332866 79.141689 
L 405.617305 87.37515 
L 405.900799 85.960466 
L 406.468732 85.960466 
L 406.76829 83.223052 
L 407.267239 81.46177 
L 407.550733 81.306155 
L 409.103334 81.306155 
L 409.543694 79.360965 
L 409.828133 87.37515 
L 410.111627 85.960466 
L 410.67956 85.960466 
L 410.973448 83.223052 
L 411.493187 81.46177 
L 411.777626 81.306155 
L 413.426615 81.306155 
L 413.876425 79.360965 
L 414.160864 87.37515 
L 414.444357 85.960466 
L 415.01229 85.960466 
L 415.318463 83.223052 
L 415.797568 81.46177 
L 416.082007 81.306155 
L 417.657287 81.306155 
L 418.097648 79.360965 
L 418.382086 87.37515 
L 418.66558 85.960466 
L 419.233513 85.960466 
L 419.544411 83.223052 
L 420.113289 81.46177 
L 420.396782 81.306155 
L 421.960723 81.306155 
L 422.410533 79.360965 
L 422.694027 87.37515 
L 422.978466 85.960466 
L 423.545454 85.960466 
L 423.846902 83.223052 
L 424.317502 81.46177 
L 424.600996 81.306155 
L 426.163046 81.306155 
L 426.447485 91.859698 
L 460.78331 91.859698 
L 461.067749 309.961535 
L 461.671591 309.954462 
L 461.671591 309.954462 
" clip-path="url(#p72886df63a)" style="fill: none; stroke: #ff9896; stroke-linecap: square"/>
   </g>
   <g id="line2d_38">
    <path d="M 83.103409 214.364262 
L 84.280853 214.364262 
L 85.150234 198.342965 
L 86.285155 175.722167 
L 86.853087 164.977642 
L 87.988007 141.95366 
L 88.271501 131.357676 
L 88.55594 131.357676 
L 88.839434 125.486737 
L 89.165452 122.105643 
L 89.448946 121.780265 
L 89.855287 109.309826 
L 90.13878 117.366451 
L 94.697361 117.366451 
L 95.012984 116.553008 
L 97.9462 116.553008 
L 98.241033 115.520288 
L 102.769375 115.520288 
L 103.052868 112.811169 
L 103.400621 111.403558 
L 103.692619 117.380598 
L 109.85861 117.380598 
L 110.164783 114.162192 
L 115.973571 114.162192 
L 116.550954 110.370839 
L 119.119407 110.370839 
L 119.403846 118.271849 
L 119.688285 105.709455 
L 119.971779 116.227631 
L 120.256218 112.054313 
L 120.82415 112.047239 
L 121.717156 106.819982 
L 122.933344 106.819982 
L 123.217783 118.151601 
L 123.501277 112.054313 
L 124.069209 112.047239 
L 124.353648 111.474292 
L 124.798733 107.739526 
L 125.083172 106.819982 
L 126.359839 106.819982 
L 126.644278 118.201115 
L 126.927772 112.054313 
L 127.495705 112.047239 
L 127.779198 111.665275 
L 128.16286 107.739526 
L 128.449189 106.819982 
L 129.653092 106.819982 
L 129.937531 118.102087 
L 130.221025 112.054313 
L 130.788958 112.047239 
L 131.073396 111.474292 
L 131.482572 107.739526 
L 131.767956 106.819982 
L 133.002099 106.819982 
L 133.286538 118.201115 
L 133.570032 112.054313 
L 134.138909 112.047239 
L 134.422403 111.474292 
L 134.807955 107.739526 
L 135.092394 106.819982 
L 136.325592 106.819982 
L 136.609085 118.427464 
L 166.689669 118.427464 
L 166.973162 314.573405 
L 167.256656 314.19144 
L 167.541095 311.178163 
L 167.541095 311.178163 
" clip-path="url(#p72886df63a)" style="fill: none; stroke: #9ecae1; stroke-linecap: square"/>
   </g>
   <g id="patch_3">
    <path d="M 64.175 327.39715 
L 64.175 67.32 
" style="fill: none; stroke: #000000; stroke-width: 0.8; stroke-linejoin: miter; stroke-linecap: square"/>
   </g>
   <g id="patch_4">
    <path d="M 480.6 327.39715 
L 480.6 67.32 
" style="fill: none; stroke: #000000; stroke-width: 0.8; stroke-linejoin: miter; stroke-linecap: square"/>
   </g>
   <g id="patch_5">
    <path d="M 64.175 327.39715 
L 480.6 327.39715 
" style="fill: none; stroke: #000000; stroke-width: 0.8; stroke-linejoin: miter; stroke-linecap: square"/>
   </g>
   <g id="patch_6">
    <path d="M 64.175 67.32 
L 480.6 67.32 
" style="fill: none; stroke: #000000; stroke-width: 0.8; stroke-linejoin: miter; stroke-linecap: square"/>
   </g>
   <g id="text_20">
    <!-- VRAM Over Time (warmup+bench) -->
    <g transform="translate(167.723125 61.32) scale(0.12 -0.12)">
     <defs>
      <path id="DejaVuSans-56" d="M 1831 0 
L 50 4666 
L 709 4666 
L 2188 738 
L 3669 4666 
L 4325 4666 
L 2547 0 
L 1831 0 
z
" transform="scale(0.015625)"/>
      <path id="DejaVuSans-52" d="M 2841 2188 
Q 3044 2119 3236 1894 
Q 3428 1669 3622 1275 
L 4263 0 
L 3584 0 
L 2988 1197 
Q 2756 1666 2539 1819 
Q 2322 1972 1947 1972 
L 1259 1972 
L 1259 0 
L 628 0 
L 628 4666 
L 2053 4666 
Q 2853 4666 3247 4331 
Q 3641 3997 3641 3322 
Q 3641 2881 3436 2590 
Q 3231 2300 2841 2188 
z
M 1259 4147 
L 1259 2491 
L 2053 2491 
Q 2509 2491 2742 2702 
Q 2975 2913 2975 3322 
Q 2975 3731 2742 3939 
Q 2509 4147 2053 4147 
L 1259 4147 
z
" transform="scale(0.015625)"/>
      <path id="DejaVuSans-41" d="M 2188 4044 
L 1331 1722 
L 3047 1722 
L 2188 4044 
z
M 1831 4666 
L 2547 4666 
L 4325 0 
L 3669 0 
L 3244 1197 
L 1141 1197 
L 716 0 
L 50 0 
L 1831 4666 
z
" transform="scale(0.015625)"/>
      <path id="DejaVuSans-4f" d="M 2522 4238 
Q 1834 4238 1429 3725 
Q 1025 3213 1025 2328 
Q 1025 1447 1429 934 
Q 1834 422 2522 422 
Q 3209 422 3611 934 
Q 4013 1447 4013 2328 
Q 4013 3213 3611 3725 
Q 3209 4238 2522 4238 
z
M 2522 4750 
Q 3503 4750 4090 4092 
Q 4678 3434 4678 2328 
Q 4678 1225 4090 567 
Q 3503 -91 2522 -91 
Q 1538 -91 948 565 
Q 359 1222 359 2328 
Q 359 3434 948 4092 
Q 1538 4750 2522 4750 
z
" transform="scale(0.015625)"/>
      <path id="DejaVuSans-76" d="M 191 3500 
L 800 3500 
L 1894 563 
L 2988 3500 
L 3597 3500 
L 2284 0 
L 1503 0 
L 191 3500 
z
" transform="scale(0.015625)"/>
      <path id="DejaVuSans-54" d="M -19 4666 
L 3928 4666 
L 3928 4134 
L 2272 4134 
L 2272 0 
L 1638 0 
L 1638 4134 
L -19 4134 
L -19 4666 
z
" transform="scale(0.015625)"/>
     </defs>
     <use xlink:href="#DejaVuSans-56"/>
     <use xlink:href="#DejaVuSans-52" transform="translate(68.408203 0)"/>
     <use xlink:href="#DejaVuSans-41" transform="translate(133.890625 0)"/>
     <use xlink:href="#DejaVuSans-4d" transform="translate(202.298828 0)"/>
     <use xlink:href="#DejaVuSans-20" transform="translate(288.578125 0)"/>
     <use xlink:href="#DejaVuSans-4f" transform="translate(320.365234 0)"/>
     <use xlink:href="#DejaVuSans-76" transform="translate(399.076172 0)"/>
     <use xlink:href="#DejaVuSans-65" transform="translate(458.255859 0)"/>
     <use xlink:href="#DejaVuSans-72" transform="translate(519.779297 0)"/>
     <use xlink:href="#DejaVuSans-20" transform="translate(560.892578 0)"/>
     <use xlink:href="#DejaVuSans-54" transform="translate(592.679688 0)"/>
     <use xlink:href="#DejaVuSans-69" transform="translate(650.638672 0)"/>
     <use xlink:href="#DejaVuSans-6d" transform="translate(678.421875 0)"/>
     <use xlink:href="#DejaVuSans-65" transform="translate(775.833984 0)"/>
     <use xlink:href="#DejaVuSans-20" transform="translate(837.357422 0)"/>
     <use xlink:href="#DejaVuSans-28" transform="translate(869.144531 0)"/>
     <use xlink:href="#DejaVuSans-77" transform="translate(908.158203 0)"/>
     <use xlink:href="#DejaVuSans-61" transform="translate(989.945312 0)"/>
     <use xlink:href="#DejaVuSans-72" transform="translate(1051.224609 0)"/>
     <use xlink:href="#DejaVuSans-6d" transform="translate(1090.587891 0)"/>
     <use xlink:href="#DejaVuSans-75" transform="translate(1188 0)"/>
     <use xlink:href="#DejaVuSans-70" transform="translate(1251.378906 0)"/>
     <use xlink:href="#DejaVuSans-2b" transform="translate(1314.855469 0)"/>
     <use xlink:href="#DejaVuSans-62" transform="translate(1398.644531 0)"/>
     <use xlink:href="#DejaVuSans-65" transform="translate(1462.121094 0)"/>
     <use xlink:href="#DejaVuSans-6e" transform="translate(1523.644531 0)"/>
     <use xlink:href="#DejaVuSans-63" transform="translate(1587.023438 0)"/>
     <use xlink:href="#DejaVuSans-68" transform="translate(1642.003906 0)"/>
     <use xlink:href="#DejaVuSans-29" transform="translate(1705.382812 0)"/>
    </g>
   </g>
   <g id="legend_1">
    <g id="patch_7">
     <path d="M 216.844844 322.89715 
L 327.930156 322.89715 
Q 329.730156 322.89715 329.730156 321.09715 
L 329.730156 269.1559 
Q 329.730156 267.3559 327.930156 267.3559 
L 216.844844 267.3559 
Q 215.044844 267.3559 215.044844 269.1559 
L 215.044844 321.09715 
Q 215.044844 322.89715 216.844844 322.89715 
z
" style="fill: #ffffff; opacity: 0.8; stroke: #cccccc; stroke-linejoin: miter"/>
    </g>
    <g id="line2d_39">
     <path d="M 218.644844 274.644494 
L 227.644844 274.644494 
L 236.644844 274.644494 
" style="fill: none; stroke: #d62728; stroke-width: 1.2; stroke-linecap: square"/>
    </g>
    <g id="text_21">
     <!-- Baseline allocated -->
     <g transform="translate(243.844844 277.794494) scale(0.09 -0.09)">
      <defs>
       <path id="DejaVuSans-74" d="M 1172 4494 
L 1172 3500 
L 2356 3500 
L 2356 3053 
L 1172 3053 
L 1172 1153 
Q 1172 725 1289 603 
Q 1406 481 1766 481 
L 2356 481 
L 2356 0 
L 1766 0 
Q 1100 0 847 248 
Q 594 497 594 1153 
L 594 3053 
L 172 3053 
L 172 3500 
L 594 3500 
L 594 4494 
L 1172 4494 
z
" transform="scale(0.015625)"/>
      </defs>
      <use xlink:href="#DejaVuSans-42"/>
      <use xlink:href="#DejaVuSans-61" transform="translate(68.603516 0)"/>
      <use xlink:href="#DejaVuSans-73" transform="translate(129.882812 0)"/>
      <use xlink:href="#DejaVuSans-65" transform="translate(181.982422 0)"/>
      <use xlink:href="#DejaVuSans-6c" transform="translate(243.505859 0)"/>
      <use xlink:href="#DejaVuSans-69" transform="translate(271.289062 0)"/>
      <use xlink:href="#DejaVuSans-6e" transform="translate(299.072266 0)"/>
      <use xlink:href="#DejaVuSans-65" transform="translate(362.451172 0)"/>
      <use xlink:href="#DejaVuSans-20" transform="translate(423.974609 0)"/>
      <use xlink:href="#DejaVuSans-61" transform="translate(455.761719 0)"/>
      <use xlink:href="#DejaVuSans-6c" transform="translate(517.041016 0)"/>
      <use xlink:href="#DejaVuSans-6c" transform="translate(544.824219 0)"/>
      <use xlink:href="#DejaVuSans-6f" transform="translate(572.607422 0)"/>
      <use xlink:href="#DejaVuSans-63" transform="translate(633.789062 0)"/>
      <use xlink:href="#DejaVuSans-61" transform="translate(688.769531 0)"/>
      <use xlink:href="#DejaVuSans-74" transform="translate(750.048828 0)"/>
      <use xlink:href="#DejaVuSans-65" transform="translate(789.257812 0)"/>
      <use xlink:href="#DejaVuSans-64" transform="translate(850.78125 0)"/>
     </g>
    </g>
    <g id="line2d_40">
     <path d="M 218.644844 287.854806 
L 227.644844 287.854806 
L 236.644844 287.854806 
" style="fill: none; stroke: #1f77b4; stroke-width: 1.2; stroke-linecap: square"/>
    </g>
    <g id="text_22">
    <!-- LiteLinear allocated -->
     <g transform="translate(243.844844 291.004806) scale(0.09 -0.09)">
      <defs>
       <path id="DejaVuSans-4c" d="M 628 4666 
L 1259 4666 
L 1259 531 
L 3531 531 
L 3531 0 
L 628 0 
L 628 4666 
z
" transform="scale(0.015625)"/>
       <path id="DejaVuSans-46" d="M 628 4666 
L 3309 4666 
L 3309 4134 
L 1259 4134 
L 1259 2759 
L 3109 2759 
L 3109 2228 
L 1259 2228 
L 1259 0 
L 628 0 
L 628 4666 
z
" transform="scale(0.015625)"/>
       <path id="DejaVuSans-4e" d="M 628 4666 
L 1478 4666 
L 3547 763 
L 3547 4666 
L 4159 4666 
L 4159 0 
L 3309 0 
L 1241 3903 
L 1241 0 
L 628 0 
L 628 4666 
z
" transform="scale(0.015625)"/>
      </defs>
      <use xlink:href="#DejaVuSans-4c"/>
      <use xlink:href="#DejaVuSans-69" transform="translate(55.712891 0)"/>
      <use xlink:href="#DejaVuSans-74" transform="translate(83.496094 0)"/>
      <use xlink:href="#DejaVuSans-65" transform="translate(122.705078 0)"/>
      <use xlink:href="#DejaVuSans-4c" transform="translate(184.228516 0)"/>
      <use xlink:href="#DejaVuSans-69" transform="translate(239.941407 0)"/>
      <use xlink:href="#DejaVuSans-6e" transform="translate(267.724610 0)"/>
      <use xlink:href="#DejaVuSans-65" transform="translate(331.103516 0)"/>
      <use xlink:href="#DejaVuSans-61" transform="translate(392.626953 0)"/>
      <use xlink:href="#DejaVuSans-72" transform="translate(453.906250 0)"/>
      <use xlink:href="#DejaVuSans-20" transform="translate(492.769531 0)"/>
      <use xlink:href="#DejaVuSans-61" transform="translate(524.556641 0)"/>
      <use xlink:href="#DejaVuSans-6c" transform="translate(585.835938 0)"/>
      <use xlink:href="#DejaVuSans-6c" transform="translate(613.619141 0)"/>
      <use xlink:href="#DejaVuSans-6f" transform="translate(641.402344 0)"/>
      <use xlink:href="#DejaVuSans-63" transform="translate(702.583985 0)"/>
      <use xlink:href="#DejaVuSans-61" transform="translate(757.564454 0)"/>
      <use xlink:href="#DejaVuSans-74" transform="translate(818.843750 0)"/>
      <use xlink:href="#DejaVuSans-65" transform="translate(858.052735 0)"/>
      <use xlink:href="#DejaVuSans-64" transform="translate(919.576172 0)"/>
     </g>
    </g>
    <g id="line2d_41">
     <path d="M 218.644844 301.065119 
L 227.644844 301.065119 
L 236.644844 301.065119 
" style="fill: none; stroke: #ff9896; stroke-linecap: square"/>
    </g>
    <g id="text_23">
     <!-- Baseline reserved -->
     <g transform="translate(243.844844 304.215119) scale(0.09 -0.09)">
      <use xlink:href="#DejaVuSans-42"/>
      <use xlink:href="#DejaVuSans-61" transform="translate(68.603516 0)"/>
      <use xlink:href="#DejaVuSans-73" transform="translate(129.882812 0)"/>
      <use xlink:href="#DejaVuSans-65" transform="translate(181.982422 0)"/>
      <use xlink:href="#DejaVuSans-6c" transform="translate(243.505859 0)"/>
      <use xlink:href="#DejaVuSans-69" transform="translate(271.289062 0)"/>
      <use xlink:href="#DejaVuSans-6e" transform="translate(299.072266 0)"/>
      <use xlink:href="#DejaVuSans-65" transform="translate(362.451172 0)"/>
      <use xlink:href="#DejaVuSans-20" transform="translate(423.974609 0)"/>
      <use xlink:href="#DejaVuSans-72" transform="translate(455.761719 0)"/>
      <use xlink:href="#DejaVuSans-65" transform="translate(494.625 0)"/>
      <use xlink:href="#DejaVuSans-73" transform="translate(556.148438 0)"/>
      <use xlink:href="#DejaVuSans-65" transform="translate(608.248047 0)"/>
      <use xlink:href="#DejaVuSans-72" transform="translate(669.771484 0)"/>
      <use xlink:href="#DejaVuSans-76" transform="translate(710.884766 0)"/>
      <use xlink:href="#DejaVuSans-65" transform="translate(770.064453 0)"/>
      <use xlink:href="#DejaVuSans-64" transform="translate(831.587891 0)"/>
     </g>
    </g>
    <g id="line2d_42">
     <path d="M 218.644844 314.275431 
L 227.644844 314.275431 
L 236.644844 314.275431 
" style="fill: none; stroke: #9ecae1; stroke-linecap: square"/>
    </g>
    <g id="text_24">
    <!-- LiteLinear reserved -->
     <g transform="translate(243.844844 317.425431) scale(0.09 -0.09)">
      <use xlink:href="#DejaVuSans-4c"/>
      <use xlink:href="#DejaVuSans-69" transform="translate(55.712891 0)"/>
      <use xlink:href="#DejaVuSans-74" transform="translate(83.496094 0)"/>
      <use xlink:href="#DejaVuSans-65" transform="translate(122.705078 0)"/>
      <use xlink:href="#DejaVuSans-4c" transform="translate(184.228516 0)"/>
      <use xlink:href="#DejaVuSans-69" transform="translate(239.941407 0)"/>
      <use xlink:href="#DejaVuSans-6e" transform="translate(267.724610 0)"/>
      <use xlink:href="#DejaVuSans-65" transform="translate(331.103516 0)"/>
      <use xlink:href="#DejaVuSans-61" transform="translate(392.626953 0)"/>
      <use xlink:href="#DejaVuSans-72" transform="translate(453.906250 0)"/>
      <use xlink:href="#DejaVuSans-20" transform="translate(492.769532 0)"/>
      <use xlink:href="#DejaVuSans-72" transform="translate(524.556641 0)"/>
      <use xlink:href="#DejaVuSans-65" transform="translate(563.419922 0)"/>
      <use xlink:href="#DejaVuSans-73" transform="translate(624.943360 0)"/>
      <use xlink:href="#DejaVuSans-65" transform="translate(677.042969 0)"/>
      <use xlink:href="#DejaVuSans-72" transform="translate(738.566407 0)"/>
      <use xlink:href="#DejaVuSans-76" transform="translate(779.679688 0)"/>
      <use xlink:href="#DejaVuSans-65" transform="translate(838.859375 0)"/>
      <use xlink:href="#DejaVuSans-64" transform="translate(900.382813 0)"/>
     </g>
    </g>
   </g>
  </g>
  <g id="axes_2">
   <g id="patch_8">
    <path d="M 544.775 327.39715 
L 961.2 327.39715 
L 961.2 67.32 
L 544.775 67.32 
z
" style="fill: #ffffff"/>
   </g>
   <g id="patch_9">
    <path d="M 563.703409 327.39715 
L 600.33904 327.39715 
L 600.33904 87.892982 
L 563.703409 87.892982 
z
" clip-path="url(#pf6e9cf2753)" style="fill: #d62728; opacity: 0.9"/>
   </g>
   <g id="patch_10">
    <path d="M 665.469049 327.39715 
L 702.10468 327.39715 
L 702.10468 79.704626 
L 665.469049 79.704626 
z
" clip-path="url(#pf6e9cf2753)" style="fill: #d62728; opacity: 0.9"/>
   </g>
   <g id="patch_11">
    <path d="M 767.23469 327.39715 
L 803.87032 327.39715 
L 803.87032 108.842889 
L 767.23469 108.842889 
z
" clip-path="url(#pf6e9cf2753)" style="fill: #d62728; opacity: 0.9"/>
   </g>
   <g id="patch_12">
    <path d="M 869.00033 327.39715 
L 905.63596 327.39715 
L 905.63596 92.866991 
L 869.00033 92.866991 
z
" clip-path="url(#pf6e9cf2753)" style="fill: #d62728; opacity: 0.9"/>
   </g>
   <g id="patch_13">
    <path d="M 600.33904 327.39715 
L 636.97467 327.39715 
L 636.97467 114.265371 
L 600.33904 114.265371 
z
" clip-path="url(#pf6e9cf2753)" style="fill: #1f77b4; opacity: 0.9"/>
   </g>
   <g id="patch_14">
    <path d="M 702.10468 327.39715 
L 738.74031 327.39715 
L 738.74031 107.104435 
L 702.10468 107.104435 
z
" clip-path="url(#pf6e9cf2753)" style="fill: #1f77b4; opacity: 0.9"/>
   </g>
   <g id="patch_15">
    <path d="M 803.87032 327.39715 
L 840.505951 327.39715 
L 840.505951 165.021183 
L 803.87032 165.021183 
z
" clip-path="url(#pf6e9cf2753)" style="fill: #1f77b4; opacity: 0.9"/>
   </g>
   <g id="patch_16">
    <path d="M 905.63596 327.39715 
L 942.271591 327.39715 
L 942.271591 123.320589 
L 905.63596 123.320589 
z
" clip-path="url(#pf6e9cf2753)" style="fill: #1f77b4; opacity: 0.9"/>
   </g>
   <g id="matplotlib.axis_3">
    <g id="xtick_10">
     <g id="line2d_43">
      <g>
       <use xlink:href="#m52fd3f06b8" x="600.33904" y="327.39715" style="stroke: #000000; stroke-width: 0.8"/>
      </g>
     </g>
     <g id="text_25">
      <!-- Peak allocated -->
      <g transform="translate(529.511562 360.570615) rotate(-15) scale(0.1 -0.1)">
       <defs>
        <path id="DejaVuSans-50" d="M 1259 4147 
L 1259 2394 
L 2053 2394 
Q 2494 2394 2734 2622 
Q 2975 2850 2975 3272 
Q 2975 3691 2734 3919 
Q 2494 4147 2053 4147 
L 1259 4147 
z
M 628 4666 
L 2053 4666 
Q 2838 4666 3239 4311 
Q 3641 3956 3641 3272 
Q 3641 2581 3239 2228 
Q 2838 1875 2053 1875 
L 1259 1875 
L 1259 0 
L 628 0 
L 628 4666 
z
" transform="scale(0.015625)"/>
        <path id="DejaVuSans-6b" d="M 581 4863 
L 1159 4863 
L 1159 1991 
L 2875 3500 
L 3609 3500 
L 1753 1863 
L 3688 0 
L 2938 0 
L 1159 1709 
L 1159 0 
L 581 0 
L 581 4863 
z
" transform="scale(0.015625)"/>
       </defs>
       <use xlink:href="#DejaVuSans-50"/>
       <use xlink:href="#DejaVuSans-65" transform="translate(56.677734 0)"/>
       <use xlink:href="#DejaVuSans-61" transform="translate(118.201172 0)"/>
       <use xlink:href="#DejaVuSans-6b" transform="translate(179.480469 0)"/>
       <use xlink:href="#DejaVuSans-20" transform="translate(237.390625 0)"/>
       <use xlink:href="#DejaVuSans-61" transform="translate(269.177734 0)"/>
       <use xlink:href="#DejaVuSans-6c" transform="translate(330.457031 0)"/>
       <use xlink:href="#DejaVuSans-6c" transform="translate(358.240234 0)"/>
       <use xlink:href="#DejaVuSans-6f" transform="translate(386.023438 0)"/>
       <use xlink:href="#DejaVuSans-63" transform="translate(447.205078 0)"/>
       <use xlink:href="#DejaVuSans-61" transform="translate(502.185547 0)"/>
       <use xlink:href="#DejaVuSans-74" transform="translate(563.464844 0)"/>
       <use xlink:href="#DejaVuSans-65" transform="translate(602.673828 0)"/>
       <use xlink:href="#DejaVuSans-64" transform="translate(664.197266 0)"/>
      </g>
     </g>
    </g>
    <g id="xtick_11">
     <g id="line2d_44">
      <g>
       <use xlink:href="#m52fd3f06b8" x="702.10468" y="327.39715" style="stroke: #000000; stroke-width: 0.8"/>
      </g>
     </g>
     <g id="text_26">
      <!-- Peak reserved -->
      <g transform="translate(633.130572 360.074006) rotate(-15) scale(0.1 -0.1)">
       <use xlink:href="#DejaVuSans-50"/>
       <use xlink:href="#DejaVuSans-65" transform="translate(56.677734 0)"/>
       <use xlink:href="#DejaVuSans-61" transform="translate(118.201172 0)"/>
       <use xlink:href="#DejaVuSans-6b" transform="translate(179.480469 0)"/>
       <use xlink:href="#DejaVuSans-20" transform="translate(237.390625 0)"/>
       <use xlink:href="#DejaVuSans-72" transform="translate(269.177734 0)"/>
       <use xlink:href="#DejaVuSans-65" transform="translate(308.041016 0)"/>
       <use xlink:href="#DejaVuSans-73" transform="translate(369.564453 0)"/>
       <use xlink:href="#DejaVuSans-65" transform="translate(421.664062 0)"/>
       <use xlink:href="#DejaVuSans-72" transform="translate(483.1875 0)"/>
       <use xlink:href="#DejaVuSans-76" transform="translate(524.300781 0)"/>
       <use xlink:href="#DejaVuSans-65" transform="translate(583.480469 0)"/>
       <use xlink:href="#DejaVuSans-64" transform="translate(645.003906 0)"/>
      </g>
     </g>
    </g>
    <g id="xtick_12">
     <g id="line2d_45">
      <g>
       <use xlink:href="#m52fd3f06b8" x="803.87032" y="327.39715" style="stroke: #000000; stroke-width: 0.8"/>
      </g>
     </g>
     <g id="text_27">
      <!-- Avg allocated -->
      <g transform="translate(738.083768 359.219903) rotate(-15) scale(0.1 -0.1)">
       <defs>
        <path id="DejaVuSans-67" d="M 2906 1791 
Q 2906 2416 2648 2759 
Q 2391 3103 1925 3103 
Q 1463 3103 1205 2759 
Q 947 2416 947 1791 
Q 947 1169 1205 825 
Q 1463 481 1925 481 
Q 2391 481 2648 825 
Q 2906 1169 2906 1791 
z
M 3481 434 
Q 3481 -459 3084 -895 
Q 2688 -1331 1869 -1331 
Q 1566 -1331 1297 -1286 
Q 1028 -1241 775 -1147 
L 775 -588 
Q 1028 -725 1275 -790 
Q 1522 -856 1778 -856 
Q 2344 -856 2625 -561 
Q 2906 -266 2906 331 
L 2906 616 
Q 2728 306 2450 153 
Q 2172 0 1784 0 
Q 1141 0 747 490 
Q 353 981 353 1791 
Q 353 2603 747 3093 
Q 1141 3584 1784 3584 
Q 2172 3584 2450 3431 
Q 2728 3278 2906 2969 
L 2906 3500 
L 3481 3500 
L 3481 434 
z
" transform="scale(0.015625)"/>
       </defs>
       <use xlink:href="#DejaVuSans-41"/>
       <use xlink:href="#DejaVuSans-76" transform="translate(62.533203 0)"/>
       <use xlink:href="#DejaVuSans-67" transform="translate(121.712891 0)"/>
       <use xlink:href="#DejaVuSans-20" transform="translate(185.189453 0)"/>
       <use xlink:href="#DejaVuSans-61" transform="translate(216.976562 0)"/>
       <use xlink:href="#DejaVuSans-6c" transform="translate(278.255859 0)"/>
       <use xlink:href="#DejaVuSans-6c" transform="translate(306.039062 0)"/>
       <use xlink:href="#DejaVuSans-6f" transform="translate(333.822266 0)"/>
       <use xlink:href="#DejaVuSans-63" transform="translate(395.003906 0)"/>
       <use xlink:href="#DejaVuSans-61" transform="translate(449.984375 0)"/>
       <use xlink:href="#DejaVuSans-74" transform="translate(511.263672 0)"/>
       <use xlink:href="#DejaVuSans-65" transform="translate(550.472656 0)"/>
       <use xlink:href="#DejaVuSans-64" transform="translate(611.996094 0)"/>
      </g>
     </g>
    </g>
    <g id="xtick_13">
     <g id="line2d_46">
      <g>
       <use xlink:href="#m52fd3f06b8" x="905.63596" y="327.39715" style="stroke: #000000; stroke-width: 0.8"/>
      </g>
     </g>
     <g id="text_28">
      <!-- Avg reserved -->
      <g transform="translate(841.702778 358.723294) rotate(-15) scale(0.1 -0.1)">
       <use xlink:href="#DejaVuSans-41"/>
       <use xlink:href="#DejaVuSans-76" transform="translate(62.533203 0)"/>
       <use xlink:href="#DejaVuSans-67" transform="translate(121.712891 0)"/>
       <use xlink:href="#DejaVuSans-20" transform="translate(185.189453 0)"/>
       <use xlink:href="#DejaVuSans-72" transform="translate(216.976562 0)"/>
       <use xlink:href="#DejaVuSans-65" transform="translate(255.839844 0)"/>
       <use xlink:href="#DejaVuSans-73" transform="translate(317.363281 0)"/>
       <use xlink:href="#DejaVuSans-65" transform="translate(369.462891 0)"/>
       <use xlink:href="#DejaVuSans-72" transform="translate(430.986328 0)"/>
       <use xlink:href="#DejaVuSans-76" transform="translate(472.099609 0)"/>
       <use xlink:href="#DejaVuSans-65" transform="translate(531.279297 0)"/>
       <use xlink:href="#DejaVuSans-64" transform="translate(592.802734 0)"/>
      </g>
     </g>
    </g>
   </g>
   <g id="matplotlib.axis_4">
    <g id="ytick_9">
     <g id="line2d_47">
      <path d="M 544.775 327.39715 
L 961.2 327.39715 
" clip-path="url(#pf6e9cf2753)" style="fill: none; stroke: #b0b0b0; stroke-opacity: 0.25; stroke-width: 0.8; stroke-linecap: square"/>
     </g>
     <g id="line2d_48">
      <g>
       <use xlink:href="#me3b7ce15cc" x="544.775" y="327.39715" style="stroke: #000000; stroke-width: 0.8"/>
      </g>
     </g>
     <g id="text_29">
      <!-- 0 -->
      <g transform="translate(531.4125 331.196369) scale(0.1 -0.1)">
       <use xlink:href="#DejaVuSans-30"/>
      </g>
     </g>
    </g>
    <g id="ytick_10">
     <g id="line2d_49">
      <path d="M 544.775 290.922431 
L 961.2 290.922431 
" clip-path="url(#pf6e9cf2753)" style="fill: none; stroke: #b0b0b0; stroke-opacity: 0.25; stroke-width: 0.8; stroke-linecap: square"/>
     </g>
     <g id="line2d_50">
      <g>
       <use xlink:href="#me3b7ce15cc" x="544.775" y="290.922431" style="stroke: #000000; stroke-width: 0.8"/>
      </g>
     </g>
     <g id="text_30">
      <!-- 10000 -->
      <g transform="translate(505.9625 294.721649) scale(0.1 -0.1)">
       <use xlink:href="#DejaVuSans-31"/>
       <use xlink:href="#DejaVuSans-30" transform="translate(63.623047 0)"/>
       <use xlink:href="#DejaVuSans-30" transform="translate(127.246094 0)"/>
       <use xlink:href="#DejaVuSans-30" transform="translate(190.869141 0)"/>
       <use xlink:href="#DejaVuSans-30" transform="translate(254.492188 0)"/>
      </g>
     </g>
    </g>
    <g id="ytick_11">
     <g id="line2d_51">
      <path d="M 544.775 254.447711 
L 961.2 254.447711 
" clip-path="url(#pf6e9cf2753)" style="fill: none; stroke: #b0b0b0; stroke-opacity: 0.25; stroke-width: 0.8; stroke-linecap: square"/>
     </g>
     <g id="line2d_52">
      <g>
       <use xlink:href="#me3b7ce15cc" x="544.775" y="254.447711" style="stroke: #000000; stroke-width: 0.8"/>
      </g>
     </g>
     <g id="text_31">
      <!-- 20000 -->
      <g transform="translate(505.9625 258.24693) scale(0.1 -0.1)">
       <use xlink:href="#DejaVuSans-32"/>
       <use xlink:href="#DejaVuSans-30" transform="translate(63.623047 0)"/>
       <use xlink:href="#DejaVuSans-30" transform="translate(127.246094 0)"/>
       <use xlink:href="#DejaVuSans-30" transform="translate(190.869141 0)"/>
       <use xlink:href="#DejaVuSans-30" transform="translate(254.492188 0)"/>
      </g>
     </g>
    </g>
    <g id="ytick_12">
     <g id="line2d_53">
      <path d="M 544.775 217.972992 
L 961.2 217.972992 
" clip-path="url(#pf6e9cf2753)" style="fill: none; stroke: #b0b0b0; stroke-opacity: 0.25; stroke-width: 0.8; stroke-linecap: square"/>
     </g>
     <g id="line2d_54">
      <g>
       <use xlink:href="#me3b7ce15cc" x="544.775" y="217.972992" style="stroke: #000000; stroke-width: 0.8"/>
      </g>
     </g>
     <g id="text_32">
      <!-- 30000 -->
      <g transform="translate(505.9625 221.772211) scale(0.1 -0.1)">
       <use xlink:href="#DejaVuSans-33"/>
       <use xlink:href="#DejaVuSans-30" transform="translate(63.623047 0)"/>
       <use xlink:href="#DejaVuSans-30" transform="translate(127.246094 0)"/>
       <use xlink:href="#DejaVuSans-30" transform="translate(190.869141 0)"/>
       <use xlink:href="#DejaVuSans-30" transform="translate(254.492188 0)"/>
      </g>
     </g>
    </g>
    <g id="ytick_13">
     <g id="line2d_55">
      <path d="M 544.775 181.498273 
L 961.2 181.498273 
" clip-path="url(#pf6e9cf2753)" style="fill: none; stroke: #b0b0b0; stroke-opacity: 0.25; stroke-width: 0.8; stroke-linecap: square"/>
     </g>
     <g id="line2d_56">
      <g>
       <use xlink:href="#me3b7ce15cc" x="544.775" y="181.498273" style="stroke: #000000; stroke-width: 0.8"/>
      </g>
     </g>
     <g id="text_33">
      <!-- 40000 -->
      <g transform="translate(505.9625 185.297491) scale(0.1 -0.1)">
       <use xlink:href="#DejaVuSans-34"/>
       <use xlink:href="#DejaVuSans-30" transform="translate(63.623047 0)"/>
       <use xlink:href="#DejaVuSans-30" transform="translate(127.246094 0)"/>
       <use xlink:href="#DejaVuSans-30" transform="translate(190.869141 0)"/>
       <use xlink:href="#DejaVuSans-30" transform="translate(254.492188 0)"/>
      </g>
     </g>
    </g>
    <g id="ytick_14">
     <g id="line2d_57">
      <path d="M 544.775 145.023553 
L 961.2 145.023553 
" clip-path="url(#pf6e9cf2753)" style="fill: none; stroke: #b0b0b0; stroke-opacity: 0.25; stroke-width: 0.8; stroke-linecap: square"/>
     </g>
     <g id="line2d_58">
      <g>
       <use xlink:href="#me3b7ce15cc" x="544.775" y="145.023553" style="stroke: #000000; stroke-width: 0.8"/>
      </g>
     </g>
     <g id="text_34">
      <!-- 50000 -->
      <g transform="translate(505.9625 148.822772) scale(0.1 -0.1)">
       <use xlink:href="#DejaVuSans-35"/>
       <use xlink:href="#DejaVuSans-30" transform="translate(63.623047 0)"/>
       <use xlink:href="#DejaVuSans-30" transform="translate(127.246094 0)"/>
       <use xlink:href="#DejaVuSans-30" transform="translate(190.869141 0)"/>
       <use xlink:href="#DejaVuSans-30" transform="translate(254.492188 0)"/>
      </g>
     </g>
    </g>
    <g id="ytick_15">
     <g id="line2d_59">
      <path d="M 544.775 108.548834 
L 961.2 108.548834 
" clip-path="url(#pf6e9cf2753)" style="fill: none; stroke: #b0b0b0; stroke-opacity: 0.25; stroke-width: 0.8; stroke-linecap: square"/>
     </g>
     <g id="line2d_60">
      <g>
       <use xlink:href="#me3b7ce15cc" x="544.775" y="108.548834" style="stroke: #000000; stroke-width: 0.8"/>
      </g>
     </g>
     <g id="text_35">
      <!-- 60000 -->
      <g transform="translate(505.9625 112.348053) scale(0.1 -0.1)">
       <use xlink:href="#DejaVuSans-36"/>
       <use xlink:href="#DejaVuSans-30" transform="translate(63.623047 0)"/>
       <use xlink:href="#DejaVuSans-30" transform="translate(127.246094 0)"/>
       <use xlink:href="#DejaVuSans-30" transform="translate(190.869141 0)"/>
       <use xlink:href="#DejaVuSans-30" transform="translate(254.492188 0)"/>
      </g>
     </g>
    </g>
    <g id="ytick_16">
     <g id="line2d_61">
      <path d="M 544.775 72.074115 
L 961.2 72.074115 
" clip-path="url(#pf6e9cf2753)" style="fill: none; stroke: #b0b0b0; stroke-opacity: 0.25; stroke-width: 0.8; stroke-linecap: square"/>
     </g>
     <g id="line2d_62">
      <g>
       <use xlink:href="#me3b7ce15cc" x="544.775" y="72.074115" style="stroke: #000000; stroke-width: 0.8"/>
      </g>
     </g>
     <g id="text_36">
      <!-- 70000 -->
      <g transform="translate(505.9625 75.873334) scale(0.1 -0.1)">
       <use xlink:href="#DejaVuSans-37"/>
       <use xlink:href="#DejaVuSans-30" transform="translate(63.623047 0)"/>
       <use xlink:href="#DejaVuSans-30" transform="translate(127.246094 0)"/>
       <use xlink:href="#DejaVuSans-30" transform="translate(190.869141 0)"/>
       <use xlink:href="#DejaVuSans-30" transform="translate(254.492188 0)"/>
      </g>
     </g>
    </g>
    <g id="text_37">
     <!-- Memory (MB) -->
     <g transform="translate(499.882812 230.928887) rotate(-90) scale(0.1 -0.1)">
      <use xlink:href="#DejaVuSans-4d"/>
      <use xlink:href="#DejaVuSans-65" transform="translate(86.279297 0)"/>
      <use xlink:href="#DejaVuSans-6d" transform="translate(147.802734 0)"/>
      <use xlink:href="#DejaVuSans-6f" transform="translate(245.214844 0)"/>
      <use xlink:href="#DejaVuSans-72" transform="translate(306.396484 0)"/>
      <use xlink:href="#DejaVuSans-79" transform="translate(347.509766 0)"/>
      <use xlink:href="#DejaVuSans-20" transform="translate(406.689453 0)"/>
      <use xlink:href="#DejaVuSans-28" transform="translate(438.476562 0)"/>
      <use xlink:href="#DejaVuSans-4d" transform="translate(477.490234 0)"/>
      <use xlink:href="#DejaVuSans-42" transform="translate(563.769531 0)"/>
      <use xlink:href="#DejaVuSans-29" transform="translate(632.373047 0)"/>
     </g>
    </g>
   </g>
   <g id="patch_17">
    <path d="M 544.775 327.39715 
L 544.775 67.32 
" style="fill: none; stroke: #000000; stroke-width: 0.8; stroke-linejoin: miter; stroke-linecap: square"/>
   </g>
   <g id="patch_18">
    <path d="M 961.2 327.39715 
L 961.2 67.32 
" style="fill: none; stroke: #000000; stroke-width: 0.8; stroke-linejoin: miter; stroke-linecap: square"/>
   </g>
   <g id="patch_19">
    <path d="M 544.775 327.39715 
L 961.2 327.39715 
" style="fill: none; stroke: #000000; stroke-width: 0.8; stroke-linejoin: miter; stroke-linecap: square"/>
   </g>
   <g id="patch_20">
    <path d="M 544.775 67.32 
L 961.2 67.32 
" style="fill: none; stroke: #000000; stroke-width: 0.8; stroke-linejoin: miter; stroke-linecap: square"/>
   </g>
   <g id="text_38">
    <!-- 65663 -->
    <g transform="translate(569.296224 83.229232) scale(0.08 -0.08)">
     <use xlink:href="#DejaVuSans-36"/>
     <use xlink:href="#DejaVuSans-35" transform="translate(63.623047 0)"/>
     <use xlink:href="#DejaVuSans-36" transform="translate(127.246094 0)"/>
     <use xlink:href="#DejaVuSans-36" transform="translate(190.869141 0)"/>
     <use xlink:href="#DejaVuSans-33" transform="translate(254.492188 0)"/>
    </g>
   </g>
   <g id="text_39">
    <!-- 67908 -->
    <g transform="translate(671.061865 75.040876) scale(0.08 -0.08)">
     <defs>
      <path id="DejaVuSans-39" d="M 703 97 
L 703 672 
Q 941 559 1184 500 
Q 1428 441 1663 441 
Q 2288 441 2617 861 
Q 2947 1281 2994 2138 
Q 2813 1869 2534 1725 
Q 2256 1581 1919 1581 
Q 1219 1581 811 2004 
Q 403 2428 403 3163 
Q 403 3881 828 4315 
Q 1253 4750 1959 4750 
Q 2769 4750 3195 4129 
Q 3622 3509 3622 2328 
Q 3622 1225 3098 567 
Q 2575 -91 1691 -91 
Q 1453 -91 1209 -44 
Q 966 3 703 97 
z
M 1959 2075 
Q 2384 2075 2632 2365 
Q 2881 2656 2881 3163 
Q 2881 3666 2632 3958 
Q 2384 4250 1959 4250 
Q 1534 4250 1286 3958 
Q 1038 3666 1038 3163 
Q 1038 2656 1286 2365 
Q 1534 2075 1959 2075 
z
" transform="scale(0.015625)"/>
      <path id="DejaVuSans-38" d="M 2034 2216 
Q 1584 2216 1326 1975 
Q 1069 1734 1069 1313 
Q 1069 891 1326 650 
Q 1584 409 2034 409 
Q 2484 409 2743 651 
Q 3003 894 3003 1313 
Q 3003 1734 2745 1975 
Q 2488 2216 2034 2216 
z
M 1403 2484 
Q 997 2584 770 2862 
Q 544 3141 544 3541 
Q 544 4100 942 4425 
Q 1341 4750 2034 4750 
Q 2731 4750 3128 4425 
Q 3525 4100 3525 3541 
Q 3525 3141 3298 2862 
Q 3072 2584 2669 2484 
Q 3125 2378 3379 2068 
Q 3634 1759 3634 1313 
Q 3634 634 3220 271 
Q 2806 -91 2034 -91 
Q 1263 -91 848 271 
Q 434 634 434 1313 
Q 434 1759 690 2068 
Q 947 2378 1403 2484 
z
M 1172 3481 
Q 1172 3119 1398 2916 
Q 1625 2713 2034 2713 
Q 2441 2713 2670 2916 
Q 2900 3119 2900 3481 
Q 2900 3844 2670 4047 
Q 2441 4250 2034 4250 
Q 1625 4250 1398 4047 
Q 1172 3844 1172 3481 
z
" transform="scale(0.015625)"/>
     </defs>
     <use xlink:href="#DejaVuSans-36"/>
     <use xlink:href="#DejaVuSans-37" transform="translate(63.623047 0)"/>
     <use xlink:href="#DejaVuSans-39" transform="translate(127.246094 0)"/>
     <use xlink:href="#DejaVuSans-30" transform="translate(190.869141 0)"/>
     <use xlink:href="#DejaVuSans-38" transform="translate(254.492188 0)"/>
    </g>
   </g>
   <g id="text_40">
    <!-- 59919 -->
    <g transform="translate(772.827505 104.179139) scale(0.08 -0.08)">
     <use xlink:href="#DejaVuSans-35"/>
     <use xlink:href="#DejaVuSans-39" transform="translate(63.623047 0)"/>
     <use xlink:href="#DejaVuSans-39" transform="translate(127.246094 0)"/>
     <use xlink:href="#DejaVuSans-31" transform="translate(190.869141 0)"/>
     <use xlink:href="#DejaVuSans-39" transform="translate(254.492188 0)"/>
    </g>
   </g>
   <g id="text_41">
    <!-- 64299 -->
    <g transform="translate(874.593145 88.203241) scale(0.08 -0.08)">
     <use xlink:href="#DejaVuSans-36"/>
     <use xlink:href="#DejaVuSans-34" transform="translate(63.623047 0)"/>
     <use xlink:href="#DejaVuSans-32" transform="translate(127.246094 0)"/>
     <use xlink:href="#DejaVuSans-39" transform="translate(190.869141 0)"/>
     <use xlink:href="#DejaVuSans-39" transform="translate(254.492188 0)"/>
    </g>
   </g>
   <g id="text_42">
    <!-- 58433 -->
    <g transform="translate(605.931855 109.601621) scale(0.08 -0.08)">
     <use xlink:href="#DejaVuSans-35"/>
     <use xlink:href="#DejaVuSans-38" transform="translate(63.623047 0)"/>
     <use xlink:href="#DejaVuSans-34" transform="translate(127.246094 0)"/>
     <use xlink:href="#DejaVuSans-33" transform="translate(190.869141 0)"/>
     <use xlink:href="#DejaVuSans-33" transform="translate(254.492188 0)"/>
    </g>
   </g>
   <g id="text_43">
    <!-- 60396 -->
    <g transform="translate(707.697495 102.440685) scale(0.08 -0.08)">
     <use xlink:href="#DejaVuSans-36"/>
     <use xlink:href="#DejaVuSans-30" transform="translate(63.623047 0)"/>
     <use xlink:href="#DejaVuSans-33" transform="translate(127.246094 0)"/>
     <use xlink:href="#DejaVuSans-39" transform="translate(190.869141 0)"/>
     <use xlink:href="#DejaVuSans-36" transform="translate(254.492188 0)"/>
    </g>
   </g>
   <g id="text_44">
    <!-- 44517 -->
    <g transform="translate(809.463135 160.357433) scale(0.08 -0.08)">
     <use xlink:href="#DejaVuSans-34"/>
     <use xlink:href="#DejaVuSans-34" transform="translate(63.623047 0)"/>
     <use xlink:href="#DejaVuSans-35" transform="translate(127.246094 0)"/>
     <use xlink:href="#DejaVuSans-31" transform="translate(190.869141 0)"/>
     <use xlink:href="#DejaVuSans-37" transform="translate(254.492188 0)"/>
    </g>
   </g>
   <g id="text_45">
    <!-- 55950 -->
    <g transform="translate(911.228776 118.656839) scale(0.08 -0.08)">
     <use xlink:href="#DejaVuSans-35"/>
     <use xlink:href="#DejaVuSans-35" transform="translate(63.623047 0)"/>
     <use xlink:href="#DejaVuSans-39" transform="translate(127.246094 0)"/>
     <use xlink:href="#DejaVuSans-35" transform="translate(190.869141 0)"/>
     <use xlink:href="#DejaVuSans-30" transform="translate(254.492188 0)"/>
    </g>
   </g>
   <g id="text_46">
    <!-- 0.89x -->
    <g style="fill: #333333" transform="translate(614.28029 91.439148) scale(0.08 -0.08)">
     <defs>
      <path id="DejaVuSans-2e" d="M 684 794 
L 1344 794 
L 1344 0 
L 684 0 
L 684 794 
z
" transform="scale(0.015625)"/>
      <path id="DejaVuSans-25" d="M 4653 2053 
Q 4381 2053 4226 1822 
Q 4072 1591 4072 1178 
Q 4072 772 4226 539 
Q 4381 306 4653 306 
Q 4919 306 5073 539 
Q 5228 772 5228 1178 
Q 5228 1588 5073 1820 
Q 4919 2053 4653 2053 
z
M 4653 2450 
Q 5147 2450 5437 2106 
Q 5728 1763 5728 1178 
Q 5728 594 5436 251 
Q 5144 -91 4653 -91 
Q 4153 -91 3862 251 
Q 3572 594 3572 1178 
Q 3572 1766 3864 2108 
Q 4156 2450 4653 2450 
z
M 1428 4353 
Q 1159 4353 1004 4120 
Q 850 3888 850 3481 
Q 850 3069 1003 2837 
Q 1156 2606 1428 2606 
Q 1700 2606 1854 2837 
Q 2009 3069 2009 3481 
Q 2009 3884 1853 4118 
Q 1697 4353 1428 4353 
z
M 4250 4750 
L 4750 4750 
L 1831 -91 
L 1331 -91 
L 4250 4750 
z
M 1428 4750 
Q 1922 4750 2215 4408 
Q 2509 4066 2509 3481 
Q 2509 2891 2217 2550 
Q 1925 2209 1428 2209 
Q 931 2209 642 2551 
Q 353 2894 353 3481 
Q 353 4063 643 4406 
Q 934 4750 1428 4750 
z
" transform="scale(0.015625)"/>
      <path id="DejaVuSans-78" d="M 3513 3500 
L 2247 1797 
L 3578 0 
L 2900 0 
L 1881 1375 
L 863 0 
L 184 0 
L 1544 1831 
L 300 3500 
L 978 3500 
L 1906 2253 
L 2834 3500 
L 3513 3500 
z
" transform="scale(0.015625)"/>
     </defs>
     <use xlink:href="#DejaVuSans-30"/>
     <use xlink:href="#DejaVuSans-2e" transform="translate(63.623047 0)"/>
     <use xlink:href="#DejaVuSans-38" transform="translate(95.410156 0)"/>
     <use xlink:href="#DejaVuSans-39" transform="translate(159.033203 0)"/>
     <use xlink:href="#DejaVuSans-78" transform="translate(222.65625 0)"/>
    </g>
   </g>
   <g id="text_47">
    <!-- 0.89x -->
    <g style="fill: #333333" transform="translate(716.04593 83.087026) scale(0.08 -0.08)">
     <use xlink:href="#DejaVuSans-30"/>
     <use xlink:href="#DejaVuSans-2e" transform="translate(63.623047 0)"/>
     <use xlink:href="#DejaVuSans-38" transform="translate(95.410156 0)"/>
     <use xlink:href="#DejaVuSans-39" transform="translate(159.033203 0)"/>
     <use xlink:href="#DejaVuSans-78" transform="translate(222.65625 0)"/>
    </g>
   </g>
   <g id="text_48">
    <!-- 0.74x -->
    <g style="fill: #333333" transform="translate(817.81157 112.808054) scale(0.08 -0.08)">
     <use xlink:href="#DejaVuSans-30"/>
     <use xlink:href="#DejaVuSans-2e" transform="translate(63.623047 0)"/>
     <use xlink:href="#DejaVuSans-37" transform="translate(95.410156 0)"/>
     <use xlink:href="#DejaVuSans-34" transform="translate(159.033203 0)"/>
     <use xlink:href="#DejaVuSans-78" transform="translate(222.65625 0)"/>
    </g>
   </g>
   <g id="text_49">
    <!-- 0.87x -->
    <g style="fill: #333333" transform="translate(919.57721 96.512637) scale(0.08 -0.08)">
     <use xlink:href="#DejaVuSans-30"/>
     <use xlink:href="#DejaVuSans-2e" transform="translate(63.623047 0)"/>
     <use xlink:href="#DejaVuSans-38" transform="translate(95.410156 0)"/>
     <use xlink:href="#DejaVuSans-37" transform="translate(159.033203 0)"/>
     <use xlink:href="#DejaVuSans-78" transform="translate(222.65625 0)"/>
    </g>
   </g>
   <g id="text_50">
    <!-- Peak and Average (warmup+bench) -->
    <g transform="translate(644.579687 61.32) scale(0.12 -0.12)">
     <use xlink:href="#DejaVuSans-50"/>
     <use xlink:href="#DejaVuSans-65" transform="translate(56.677734 0)"/>
     <use xlink:href="#DejaVuSans-61" transform="translate(118.201172 0)"/>
     <use xlink:href="#DejaVuSans-6b" transform="translate(179.480469 0)"/>
     <use xlink:href="#DejaVuSans-20" transform="translate(237.390625 0)"/>
     <use xlink:href="#DejaVuSans-61" transform="translate(269.177734 0)"/>
     <use xlink:href="#DejaVuSans-6e" transform="translate(330.457031 0)"/>
     <use xlink:href="#DejaVuSans-64" transform="translate(393.835938 0)"/>
     <use xlink:href="#DejaVuSans-20" transform="translate(457.3125 0)"/>
     <use xlink:href="#DejaVuSans-41" transform="translate(489.099609 0)"/>
     <use xlink:href="#DejaVuSans-76" transform="translate(551.632812 0)"/>
     <use xlink:href="#DejaVuSans-65" transform="translate(610.8125 0)"/>
     <use xlink:href="#DejaVuSans-72" transform="translate(672.335938 0)"/>
     <use xlink:href="#DejaVuSans-61" transform="translate(713.449219 0)"/>
     <use xlink:href="#DejaVuSans-67" transform="translate(774.728516 0)"/>
     <use xlink:href="#DejaVuSans-65" transform="translate(838.205078 0)"/>
     <use xlink:href="#DejaVuSans-20" transform="translate(899.728516 0)"/>
     <use xlink:href="#DejaVuSans-28" transform="translate(931.515625 0)"/>
     <use xlink:href="#DejaVuSans-77" transform="translate(970.529297 0)"/>
     <use xlink:href="#DejaVuSans-61" transform="translate(1052.316406 0)"/>
     <use xlink:href="#DejaVuSans-72" transform="translate(1113.595703 0)"/>
     <use xlink:href="#DejaVuSans-6d" transform="translate(1152.958984 0)"/>
     <use xlink:href="#DejaVuSans-75" transform="translate(1250.371094 0)"/>
     <use xlink:href="#DejaVuSans-70" transform="translate(1313.75 0)"/>
     <use xlink:href="#DejaVuSans-2b" transform="translate(1377.226562 0)"/>
     <use xlink:href="#DejaVuSans-62" transform="translate(1461.015625 0)"/>
     <use xlink:href="#DejaVuSans-65" transform="translate(1524.492188 0)"/>
     <use xlink:href="#DejaVuSans-6e" transform="translate(1586.015625 0)"/>
     <use xlink:href="#DejaVuSans-63" transform="translate(1649.394531 0)"/>
     <use xlink:href="#DejaVuSans-68" transform="translate(1704.375 0)"/>
     <use xlink:href="#DejaVuSans-29" transform="translate(1767.753906 0)"/>
    </g>
   </g>
   <g id="legend_2">
    <g id="patch_21">
     <path d="M 551.075 322.89715 
L 618.033594 322.89715 
Q 619.833594 322.89715 619.833594 321.09715 
L 619.833594 295.576525 
Q 619.833594 293.776525 618.033594 293.776525 
L 551.075 293.776525 
Q 549.275 293.776525 549.275 295.576525 
L 549.275 321.09715 
Q 549.275 322.89715 551.075 322.89715 
z
" style="fill: #ffffff; opacity: 0.8; stroke: #cccccc; stroke-linejoin: miter"/>
    </g>
    <g id="patch_22">
     <path d="M 552.875 304.215119 
L 570.875 304.215119 
L 570.875 297.915119 
L 552.875 297.915119 
z
" style="fill: #d62728; opacity: 0.9"/>
    </g>
    <g id="text_51">
     <!-- Baseline -->
     <g transform="translate(578.075 304.215119) scale(0.09 -0.09)">
      <use xlink:href="#DejaVuSans-42"/>
      <use xlink:href="#DejaVuSans-61" transform="translate(68.603516 0)"/>
      <use xlink:href="#DejaVuSans-73" transform="translate(129.882812 0)"/>
      <use xlink:href="#DejaVuSans-65" transform="translate(181.982422 0)"/>
      <use xlink:href="#DejaVuSans-6c" transform="translate(243.505859 0)"/>
      <use xlink:href="#DejaVuSans-69" transform="translate(271.289062 0)"/>
      <use xlink:href="#DejaVuSans-6e" transform="translate(299.072266 0)"/>
      <use xlink:href="#DejaVuSans-65" transform="translate(362.451172 0)"/>
     </g>
    </g>
    <g id="patch_23">
     <path d="M 552.875 317.425431 
L 570.875 317.425431 
L 570.875 311.125431 
L 552.875 311.125431 
z
" style="fill: #1f77b4; opacity: 0.9"/>
    </g>
    <g id="text_52">
     <!-- LiteLinear -->
     <g transform="translate(578.075 317.425431) scale(0.09 -0.09)">
      <use xlink:href="#DejaVuSans-4c"/>
      <use xlink:href="#DejaVuSans-69" transform="translate(55.712891 0)"/>
      <use xlink:href="#DejaVuSans-74" transform="translate(83.496094 0)"/>
      <use xlink:href="#DejaVuSans-65" transform="translate(122.705078 0)"/>
      <use xlink:href="#DejaVuSans-4c" transform="translate(184.228516 0)"/>
      <use xlink:href="#DejaVuSans-69" transform="translate(239.941407 0)"/>
      <use xlink:href="#DejaVuSans-6e" transform="translate(267.724610 0)"/>
      <use xlink:href="#DejaVuSans-65" transform="translate(331.103516 0)"/>
      <use xlink:href="#DejaVuSans-61" transform="translate(392.626953 0)"/>
      <use xlink:href="#DejaVuSans-72" transform="translate(453.906250 0)"/>
     </g>
    </g>
   </g>
  </g>
  <g id="text_53">
  <!-- LTX-2 VRAM Comparison: Baseline vs LiteLinear -->
   <g transform="translate(331.6772 17.365969) scale(0.13 -0.13)">
    <defs>
     <path id="DejaVuSans-58" d="M 403 4666 
L 1081 4666 
L 2241 2931 
L 3406 4666 
L 4084 4666 
L 2584 2425 
L 4184 0 
L 3506 0 
L 2194 1984 
L 872 0 
L 191 0 
L 1856 2491 
L 403 4666 
z
" transform="scale(0.015625)"/>
     <path id="DejaVuSans-2d" d="M 313 2009 
L 1997 2009 
L 1997 1497 
L 313 1497 
L 313 2009 
z
" transform="scale(0.015625)"/>
     <path id="DejaVuSans-43" d="M 4122 4306 
L 4122 3641 
Q 3803 3938 3442 4084 
Q 3081 4231 2675 4231 
Q 1875 4231 1450 3742 
Q 1025 3253 1025 2328 
Q 1025 1406 1450 917 
Q 1875 428 2675 428 
Q 3081 428 3442 575 
Q 3803 722 4122 1019 
L 4122 359 
Q 3791 134 3420 21 
Q 3050 -91 2638 -91 
Q 1578 -91 968 557 
Q 359 1206 359 2328 
Q 359 3453 968 4101 
Q 1578 4750 2638 4750 
Q 3056 4750 3426 4639 
Q 3797 4528 4122 4306 
z
" transform="scale(0.015625)"/>
     <path id="DejaVuSans-3a" d="M 750 794 
L 1409 794 
L 1409 0 
L 750 0 
L 750 794 
z
M 750 3309 
L 1409 3309 
L 1409 2516 
L 750 2516 
L 750 3309 
z
" transform="scale(0.015625)"/>
    </defs>
    <use xlink:href="#DejaVuSans-4c"/>
    <use xlink:href="#DejaVuSans-54" transform="translate(41.962891 0)"/>
    <use xlink:href="#DejaVuSans-58" transform="translate(103.046875 0)"/>
    <use xlink:href="#DejaVuSans-2d" transform="translate(166.552734 0)"/>
    <use xlink:href="#DejaVuSans-32" transform="translate(202.636719 0)"/>
    <use xlink:href="#DejaVuSans-20" transform="translate(266.259766 0)"/>
    <use xlink:href="#DejaVuSans-56" transform="translate(298.046875 0)"/>
    <use xlink:href="#DejaVuSans-52" transform="translate(366.455078 0)"/>
    <use xlink:href="#DejaVuSans-41" transform="translate(431.9375 0)"/>
    <use xlink:href="#DejaVuSans-4d" transform="translate(500.345703 0)"/>
    <use xlink:href="#DejaVuSans-20" transform="translate(586.625 0)"/>
    <use xlink:href="#DejaVuSans-43" transform="translate(618.412109 0)"/>
    <use xlink:href="#DejaVuSans-6f" transform="translate(688.236328 0)"/>
    <use xlink:href="#DejaVuSans-6d" transform="translate(749.417969 0)"/>
    <use xlink:href="#DejaVuSans-70" transform="translate(846.830078 0)"/>
    <use xlink:href="#DejaVuSans-61" transform="translate(910.306641 0)"/>
    <use xlink:href="#DejaVuSans-72" transform="translate(971.585938 0)"/>
    <use xlink:href="#DejaVuSans-69" transform="translate(1012.699219 0)"/>
    <use xlink:href="#DejaVuSans-73" transform="translate(1040.482422 0)"/>
    <use xlink:href="#DejaVuSans-6f" transform="translate(1092.582031 0)"/>
    <use xlink:href="#DejaVuSans-6e" transform="translate(1153.763672 0)"/>
    <use xlink:href="#DejaVuSans-3a" transform="translate(1217.142578 0)"/>
    <use xlink:href="#DejaVuSans-20" transform="translate(1250.833984 0)"/>
    <use xlink:href="#DejaVuSans-42" transform="translate(1282.621094 0)"/>
    <use xlink:href="#DejaVuSans-61" transform="translate(1351.224609 0)"/>
    <use xlink:href="#DejaVuSans-73" transform="translate(1412.503906 0)"/>
    <use xlink:href="#DejaVuSans-65" transform="translate(1464.603516 0)"/>
    <use xlink:href="#DejaVuSans-6c" transform="translate(1526.126953 0)"/>
    <use xlink:href="#DejaVuSans-69" transform="translate(1553.910156 0)"/>
    <use xlink:href="#DejaVuSans-6e" transform="translate(1581.693359 0)"/>
    <use xlink:href="#DejaVuSans-65" transform="translate(1645.072266 0)"/>
    <use xlink:href="#DejaVuSans-20" transform="translate(1706.595703 0)"/>
    <use xlink:href="#DejaVuSans-76" transform="translate(1738.382812 0)"/>
    <use xlink:href="#DejaVuSans-73" transform="translate(1797.5625 0)"/>
    <use xlink:href="#DejaVuSans-20" transform="translate(1849.662109 0)"/>
    <use xlink:href="#DejaVuSans-4c" transform="translate(1881.449219 0)"/>
    <use xlink:href="#DejaVuSans-69" transform="translate(1937.162109 0)"/>
    <use xlink:href="#DejaVuSans-74" transform="translate(1964.945312 0)"/>
    <use xlink:href="#DejaVuSans-65" transform="translate(2004.154297 0)"/>
    <use xlink:href="#DejaVuSans-4c" transform="translate(2065.677734 0)"/>
    <use xlink:href="#DejaVuSans-69" transform="translate(2121.390625 0)"/>
    <use xlink:href="#DejaVuSans-6e" transform="translate(2149.173828 0)"/>
    <use xlink:href="#DejaVuSans-65" transform="translate(2212.552734 0)"/>
    <use xlink:href="#DejaVuSans-61" transform="translate(2274.076172 0)"/>
    <use xlink:href="#DejaVuSans-72" transform="translate(2335.355468 0)"/>
   </g>
  </g>
 </g>
 <defs>
  <clipPath id="p72886df63a">
   <rect x="64.175" y="67.32" width="416.425" height="260.07715"/>
  </clipPath>
  <clipPath id="pf6e9cf2753">
   <rect x="544.775" y="67.32" width="416.425" height="260.07715"/>
  </clipPath>
 </defs>
</svg>
