<svg xmlns="http://www.w3.org/2000/svg" width="872" height="565" viewBox="0 0 872 565" role="img" aria-labelledby="title desc">
  <title id="title">LTX-Video FFN shape benchmark grouped by shape</title>
  <desc id="desc">Each shape is one group; color encodes implementation (Lin, TE, LiteLinear CUDA). Each bar is 12pt wide.</desc>
  <rect width="100%" height="100%" fill="white"/>
  <text x="436.0" y="30" text-anchor="middle" font-family="Arial, sans-serif" font-size="18" font-weight="600">Performance Benchmark on shapes captured from LTX-Video</text>
  <line x1="72" y1="95" x2="72" y2="435" stroke="#333" stroke-width="1"/>
  <line x1="72" y1="435" x2="846" y2="435" stroke="#333" stroke-width="1"/>
  <line x1="68" y1="435.00" x2="846" y2="435.00" stroke="#e6e6e6" stroke-width="1"/>
  <text x="64" y="439.00" text-anchor="end" font-family="Arial, sans-serif" font-size="11" fill="#555">0</text>
  <line x1="68" y1="401.00" x2="846" y2="401.00" stroke="#e6e6e6" stroke-width="1"/>
  <text x="64" y="405.00" text-anchor="end" font-family="Arial, sans-serif" font-size="11" fill="#555">1000</text>
  <line x1="68" y1="367.00" x2="846" y2="367.00" stroke="#e6e6e6" stroke-width="1"/>
  <text x="64" y="371.00" text-anchor="end" font-family="Arial, sans-serif" font-size="11" fill="#555">2000</text>
  <line x1="68" y1="333.00" x2="846" y2="333.00" stroke="#e6e6e6" stroke-width="1"/>
  <text x="64" y="337.00" text-anchor="end" font-family="Arial, sans-serif" font-size="11" fill="#555">3000</text>
  <line x1="68" y1="299.00" x2="846" y2="299.00" stroke="#e6e6e6" stroke-width="1"/>
  <text x="64" y="303.00" text-anchor="end" font-family="Arial, sans-serif" font-size="11" fill="#555">4000</text>
  <line x1="68" y1="265.00" x2="846" y2="265.00" stroke="#e6e6e6" stroke-width="1"/>
  <text x="64" y="269.00" text-anchor="end" font-family="Arial, sans-serif" font-size="11" fill="#555">5000</text>
  <line x1="68" y1="231.00" x2="846" y2="231.00" stroke="#e6e6e6" stroke-width="1"/>
  <text x="64" y="235.00" text-anchor="end" font-family="Arial, sans-serif" font-size="11" fill="#555">6000</text>
  <line x1="68" y1="197.00" x2="846" y2="197.00" stroke="#e6e6e6" stroke-width="1"/>
  <text x="64" y="201.00" text-anchor="end" font-family="Arial, sans-serif" font-size="11" fill="#555">7000</text>
  <line x1="68" y1="163.00" x2="846" y2="163.00" stroke="#e6e6e6" stroke-width="1"/>
  <text x="64" y="167.00" text-anchor="end" font-family="Arial, sans-serif" font-size="11" fill="#555">8000</text>
  <line x1="68" y1="129.00" x2="846" y2="129.00" stroke="#e6e6e6" stroke-width="1"/>
  <text x="64" y="133.00" text-anchor="end" font-family="Arial, sans-serif" font-size="11" fill="#555">9000</text>
  <line x1="68" y1="95.00" x2="846" y2="95.00" stroke="#e6e6e6" stroke-width="1"/>
  <text x="64" y="99.00" text-anchor="end" font-family="Arial, sans-serif" font-size="11" fill="#555">10000</text>
  <rect x="72.00" y="421.67" width="12" height="13.33" fill="#4e79a7"/>
  <rect x="84.00" y="426.16" width="12" height="8.84" fill="#f28e2b"/>
  <rect x="96.00" y="428.68" width="12" height="6.32" fill="#59a14f"/>
  <line x1="90.00" y1="435" x2="90.00" y2="439" stroke="#333" stroke-width="1"/>
  <text transform="translate(90.00,455) rotate(45)" text-anchor="start" font-family="Arial, sans-serif" font-size="10" fill="#333">w2-1400</text>
  <rect x="128.00" y="422.15" width="12" height="12.85" fill="#4e79a7"/>
  <rect x="140.00" y="425.72" width="12" height="9.28" fill="#f28e2b"/>
  <rect x="152.00" y="428.81" width="12" height="6.19" fill="#59a14f"/>
  <line x1="146.00" y1="435" x2="146.00" y2="439" stroke="#333" stroke-width="1"/>
  <text transform="translate(146.00,455) rotate(45)" text-anchor="start" font-family="Arial, sans-serif" font-size="10" fill="#333">w1-1400</text>
  <rect x="184.00" y="414.70" width="12" height="20.30" fill="#4e79a7"/>
  <rect x="196.00" y="420.14" width="12" height="14.86" fill="#f28e2b"/>
  <rect x="208.00" y="424.22" width="12" height="10.78" fill="#59a14f"/>
  <line x1="202.00" y1="435" x2="202.00" y2="439" stroke="#333" stroke-width="1"/>
  <text transform="translate(202.00,455) rotate(45)" text-anchor="start" font-family="Arial, sans-serif" font-size="10" fill="#333">w2-2450</text>
  <rect x="240.00" y="415.89" width="12" height="19.11" fill="#4e79a7"/>
  <rect x="252.00" y="419.53" width="12" height="15.47" fill="#f28e2b"/>
  <rect x="264.00" y="424.73" width="12" height="10.27" fill="#59a14f"/>
  <line x1="258.00" y1="435" x2="258.00" y2="439" stroke="#333" stroke-width="1"/>
  <text transform="translate(258.00,455) rotate(45)" text-anchor="start" font-family="Arial, sans-serif" font-size="10" fill="#333">w1-2450</text>
  <rect x="296.00" y="393.76" width="12" height="41.24" fill="#4e79a7"/>
  <rect x="308.00" y="401.20" width="12" height="33.80" fill="#f28e2b"/>
  <rect x="320.00" y="409.09" width="12" height="25.91" fill="#59a14f"/>
  <line x1="314.00" y1="435" x2="314.00" y2="439" stroke="#333" stroke-width="1"/>
  <text transform="translate(314.00,455) rotate(45)" text-anchor="start" font-family="Arial, sans-serif" font-size="10" fill="#333">w2-5600</text>
  <rect x="352.00" y="396.21" width="12" height="38.79" fill="#4e79a7"/>
  <rect x="364.00" y="397.70" width="12" height="37.30" fill="#f28e2b"/>
  <rect x="376.00" y="410.79" width="12" height="24.21" fill="#59a14f"/>
  <line x1="370.00" y1="435" x2="370.00" y2="439" stroke="#333" stroke-width="1"/>
  <text transform="translate(370.00,455) rotate(45)" text-anchor="start" font-family="Arial, sans-serif" font-size="10" fill="#333">w1-5600</text>
  <rect x="408.00" y="366.73" width="12" height="68.27" fill="#4e79a7"/>
  <rect x="420.00" y="375.06" width="12" height="59.94" fill="#f28e2b"/>
  <rect x="432.00" y="392.13" width="12" height="42.87" fill="#59a14f"/>
  <line x1="426.00" y1="435" x2="426.00" y2="439" stroke="#333" stroke-width="1"/>
  <text transform="translate(426.00,455) rotate(45)" text-anchor="start" font-family="Arial, sans-serif" font-size="10" fill="#333">w2-9800</text>
  <rect x="464.00" y="368.84" width="12" height="66.16" fill="#4e79a7"/>
  <rect x="476.00" y="371.49" width="12" height="63.51" fill="#f28e2b"/>
  <rect x="488.00" y="394.13" width="12" height="40.87" fill="#59a14f"/>
  <line x1="482.00" y1="435" x2="482.00" y2="439" stroke="#333" stroke-width="1"/>
  <text transform="translate(482.00,455) rotate(45)" text-anchor="start" font-family="Arial, sans-serif" font-size="10" fill="#333">w1-9800</text>
  <rect x="520.00" y="357.58" width="12" height="77.42" fill="#4e79a7"/>
  <rect x="532.00" y="363.26" width="12" height="71.74" fill="#f28e2b"/>
  <rect x="544.00" y="387.57" width="12" height="47.43" fill="#59a14f"/>
  <line x1="538.00" y1="435" x2="538.00" y2="439" stroke="#333" stroke-width="1"/>
  <text transform="translate(538.00,455) rotate(45)" text-anchor="start" font-family="Arial, sans-serif" font-size="10" fill="#333">w2-10850</text>
  <rect x="576.00" y="365.81" width="12" height="69.19" fill="#4e79a7"/>
  <rect x="588.00" y="361.70" width="12" height="73.30" fill="#f28e2b"/>
  <rect x="600.00" y="389.98" width="12" height="45.02" fill="#59a14f"/>
  <line x1="594.00" y1="435" x2="594.00" y2="439" stroke="#333" stroke-width="1"/>
  <text transform="translate(594.00,455) rotate(45)" text-anchor="start" font-family="Arial, sans-serif" font-size="10" fill="#333">w1-10850</text>
  <rect x="632.00" y="268.77" width="12" height="166.23" fill="#4e79a7"/>
  <rect x="644.00" y="281.80" width="12" height="153.20" fill="#f28e2b"/>
  <rect x="656.00" y="332.39" width="12" height="102.61" fill="#59a14f"/>
  <line x1="650.00" y1="435" x2="650.00" y2="439" stroke="#333" stroke-width="1"/>
  <text transform="translate(650.00,455) rotate(45)" text-anchor="start" font-family="Arial, sans-serif" font-size="10" fill="#333">w2-22400</text>
  <rect x="688.00" y="274.72" width="12" height="160.28" fill="#4e79a7"/>
  <rect x="700.00" y="279.25" width="12" height="155.75" fill="#f28e2b"/>
  <rect x="712.00" y="339.63" width="12" height="95.37" fill="#59a14f"/>
  <line x1="706.00" y1="435" x2="706.00" y2="439" stroke="#333" stroke-width="1"/>
  <text transform="translate(706.00,455) rotate(45)" text-anchor="start" font-family="Arial, sans-serif" font-size="10" fill="#333">w1-22400</text>
  <rect x="744.00" y="119.65" width="12" height="315.35" fill="#4e79a7"/>
  <rect x="756.00" y="153.31" width="12" height="281.69" fill="#f28e2b"/>
  <rect x="768.00" y="238.75" width="12" height="196.25" fill="#59a14f"/>
  <line x1="762.00" y1="435" x2="762.00" y2="439" stroke="#333" stroke-width="1"/>
  <text transform="translate(762.00,455) rotate(45)" text-anchor="start" font-family="Arial, sans-serif" font-size="10" fill="#333">w2-43400</text>
  <rect x="800.00" y="134.20" width="12" height="300.80" fill="#4e79a7"/>
  <rect x="812.00" y="147.36" width="12" height="287.64" fill="#f28e2b"/>
  <rect x="824.00" y="253.85" width="12" height="181.15" fill="#59a14f"/>
  <line x1="818.00" y1="435" x2="818.00" y2="439" stroke="#333" stroke-width="1"/>
  <text transform="translate(818.00,455) rotate(45)" text-anchor="start" font-family="Arial, sans-serif" font-size="10" fill="#333">w1-43400</text>
  <rect x="78" y="100" width="640" height="72" fill="white" fill-opacity="0.95"/>
  <text x="84" y="112" font-family="Arial, sans-serif" font-size="12" fill="#444">Grouped by shape; color by implementation. Units: us</text>
  <rect x="96" y="126" width="12" height="12" fill="#4e79a7"/>
  <text x="114" y="137" font-family="Arial, sans-serif" font-size="14" fill="#222">torch.nn.Linear</text>
  <rect x="286" y="126" width="12" height="12" fill="#f28e2b"/>
  <text x="304" y="137" font-family="Arial, sans-serif" font-size="14" fill="#222">NVIDIA Transformer Engine</text>
  <rect x="560" y="126" width="12" height="12" fill="#59a14f"/>
  <text x="578" y="137" font-family="Arial, sans-serif" font-size="14" fill="#222">LiteLinear CUDA</text>
  <text x="459" y="548" text-anchor="middle" font-family="Arial, sans-serif" font-size="12" fill="#444">TOTAL (count-weighted, ms): Lin 7.788 | TE 7.158 (1.088x) | LiteLinear CUDA 4.744 (1.642x)</text>
</svg>
