<svg xmlns="http://www.w3.org/2000/svg" width="872" height="565" viewBox="0 0 872 565" role="img" aria-labelledby="title desc">
  <title id="title">LTX-Video FFN shape benchmark grouped by shape</title>
  <desc id="desc">Each shape is one group; color encodes implementation (Lin, TE, PT, LL). Each bar is 10pt wide.</desc>
  <rect width="100%" height="100%" fill="white"/>
  <text x="436.0" y="30" text-anchor="middle" font-family="Arial, sans-serif" font-size="18" font-weight="600">Performance Benchmark on shapes captured from LTX-Video</text>
  <line x1="72" y1="95" x2="72" y2="435" stroke="#333" stroke-width="1"/>
  <line x1="72" y1="435" x2="846" y2="435" stroke="#333" stroke-width="1"/>
  <line x1="68" y1="435.00" x2="846" y2="435.00" stroke="#e6e6e6" stroke-width="1"/>
  <text x="64" y="439.00" text-anchor="end" font-family="Arial, sans-serif" font-size="11" fill="#555">0</text>
  <line x1="68" y1="401.00" x2="846" y2="401.00" stroke="#e6e6e6" stroke-width="1"/>
  <text x="64" y="405.00" text-anchor="end" font-family="Arial, sans-serif" font-size="11" fill="#555">1000</text>
  <line x1="68" y1="367.00" x2="846" y2="367.00" stroke="#e6e6e6" stroke-width="1"/>
  <text x="64" y="371.00" text-anchor="end" font-family="Arial, sans-serif" font-size="11" fill="#555">2000</text>
  <line x1="68" y1="333.00" x2="846" y2="333.00" stroke="#e6e6e6" stroke-width="1"/>
  <text x="64" y="337.00" text-anchor="end" font-family="Arial, sans-serif" font-size="11" fill="#555">3000</text>
  <line x1="68" y1="299.00" x2="846" y2="299.00" stroke="#e6e6e6" stroke-width="1"/>
  <text x="64" y="303.00" text-anchor="end" font-family="Arial, sans-serif" font-size="11" fill="#555">4000</text>
  <line x1="68" y1="265.00" x2="846" y2="265.00" stroke="#e6e6e6" stroke-width="1"/>
  <text x="64" y="269.00" text-anchor="end" font-family="Arial, sans-serif" font-size="11" fill="#555">5000</text>
  <line x1="68" y1="231.00" x2="846" y2="231.00" stroke="#e6e6e6" stroke-width="1"/>
  <text x="64" y="235.00" text-anchor="end" font-family="Arial, sans-serif" font-size="11" fill="#555">6000</text>
  <line x1="68" y1="197.00" x2="846" y2="197.00" stroke="#e6e6e6" stroke-width="1"/>
  <text x="64" y="201.00" text-anchor="end" font-family="Arial, sans-serif" font-size="11" fill="#555">7000</text>
  <line x1="68" y1="163.00" x2="846" y2="163.00" stroke="#e6e6e6" stroke-width="1"/>
  <text x="64" y="167.00" text-anchor="end" font-family="Arial, sans-serif" font-size="11" fill="#555">8000</text>
  <line x1="68" y1="129.00" x2="846" y2="129.00" stroke="#e6e6e6" stroke-width="1"/>
  <text x="64" y="133.00" text-anchor="end" font-family="Arial, sans-serif" font-size="11" fill="#555">9000</text>
  <line x1="68" y1="95.00" x2="846" y2="95.00" stroke="#e6e6e6" stroke-width="1"/>
  <text x="64" y="99.00" text-anchor="end" font-family="Arial, sans-serif" font-size="11" fill="#555">10000</text>
  <rect x="72.00" y="421.67" width="10" height="13.33" fill="#4e79a7"/>
  <rect x="84.00" y="426.16" width="10" height="8.84" fill="#f28e2b"/>
  <rect x="96.00" y="424.87" width="10" height="10.13" fill="#59a14f"/>
  <rect x="108.00" y="428.68" width="10" height="6.32" fill="#e15759"/>
  <line x1="95.00" y1="435" x2="95.00" y2="439" stroke="#333" stroke-width="1"/>
  <text transform="translate(95.00,455) rotate(45)" text-anchor="start" font-family="Arial, sans-serif" font-size="10" fill="#333">w2-1400</text>
  <rect x="128.00" y="422.15" width="10" height="12.85" fill="#4e79a7"/>
  <rect x="140.00" y="425.72" width="10" height="9.28" fill="#f28e2b"/>
  <rect x="152.00" y="424.77" width="10" height="10.23" fill="#59a14f"/>
  <rect x="164.00" y="428.81" width="10" height="6.19" fill="#e15759"/>
  <line x1="151.00" y1="435" x2="151.00" y2="439" stroke="#333" stroke-width="1"/>
  <text transform="translate(151.00,455) rotate(45)" text-anchor="start" font-family="Arial, sans-serif" font-size="10" fill="#333">w1-1400</text>
  <rect x="184.00" y="414.70" width="10" height="20.30" fill="#4e79a7"/>
  <rect x="196.00" y="420.14" width="10" height="14.86" fill="#f28e2b"/>
  <rect x="208.00" y="417.97" width="10" height="17.03" fill="#59a14f"/>
  <rect x="220.00" y="424.22" width="10" height="10.78" fill="#e15759"/>
  <line x1="207.00" y1="435" x2="207.00" y2="439" stroke="#333" stroke-width="1"/>
  <text transform="translate(207.00,455) rotate(45)" text-anchor="start" font-family="Arial, sans-serif" font-size="10" fill="#333">w2-2450</text>
  <rect x="240.00" y="415.89" width="10" height="19.11" fill="#4e79a7"/>
  <rect x="252.00" y="419.53" width="10" height="15.47" fill="#f28e2b"/>
  <rect x="264.00" y="417.63" width="10" height="17.37" fill="#59a14f"/>
  <rect x="276.00" y="424.73" width="10" height="10.27" fill="#e15759"/>
  <line x1="263.00" y1="435" x2="263.00" y2="439" stroke="#333" stroke-width="1"/>
  <text transform="translate(263.00,455) rotate(45)" text-anchor="start" font-family="Arial, sans-serif" font-size="10" fill="#333">w1-2450</text>
  <rect x="296.00" y="393.76" width="10" height="41.24" fill="#4e79a7"/>
  <rect x="308.00" y="401.20" width="10" height="33.80" fill="#f28e2b"/>
  <rect x="320.00" y="393.69" width="10" height="41.31" fill="#59a14f"/>
  <rect x="332.00" y="409.09" width="10" height="25.91" fill="#e15759"/>
  <line x1="319.00" y1="435" x2="319.00" y2="439" stroke="#333" stroke-width="1"/>
  <text transform="translate(319.00,455) rotate(45)" text-anchor="start" font-family="Arial, sans-serif" font-size="10" fill="#333">w2-5600</text>
  <rect x="352.00" y="396.21" width="10" height="38.79" fill="#4e79a7"/>
  <rect x="364.00" y="397.70" width="10" height="37.30" fill="#f28e2b"/>
  <rect x="376.00" y="394.27" width="10" height="40.73" fill="#59a14f"/>
  <rect x="388.00" y="410.79" width="10" height="24.21" fill="#e15759"/>
  <line x1="375.00" y1="435" x2="375.00" y2="439" stroke="#333" stroke-width="1"/>
  <text transform="translate(375.00,455) rotate(45)" text-anchor="start" font-family="Arial, sans-serif" font-size="10" fill="#333">w1-5600</text>
  <rect x="408.00" y="366.73" width="10" height="68.27" fill="#4e79a7"/>
  <rect x="420.00" y="375.06" width="10" height="59.94" fill="#f28e2b"/>
  <rect x="432.00" y="364.48" width="10" height="70.52" fill="#59a14f"/>
  <rect x="444.00" y="392.13" width="10" height="42.87" fill="#e15759"/>
  <line x1="431.00" y1="435" x2="431.00" y2="439" stroke="#333" stroke-width="1"/>
  <text transform="translate(431.00,455) rotate(45)" text-anchor="start" font-family="Arial, sans-serif" font-size="10" fill="#333">w2-9800</text>
  <rect x="464.00" y="368.84" width="10" height="66.16" fill="#4e79a7"/>
  <rect x="476.00" y="371.49" width="10" height="63.51" fill="#f28e2b"/>
  <rect x="488.00" y="365.57" width="10" height="69.43" fill="#59a14f"/>
  <rect x="500.00" y="394.13" width="10" height="40.87" fill="#e15759"/>
  <line x1="487.00" y1="435" x2="487.00" y2="439" stroke="#333" stroke-width="1"/>
  <text transform="translate(487.00,455) rotate(45)" text-anchor="start" font-family="Arial, sans-serif" font-size="10" fill="#333">w1-9800</text>
  <rect x="520.00" y="357.58" width="10" height="77.42" fill="#4e79a7"/>
  <rect x="532.00" y="363.26" width="10" height="71.74" fill="#f28e2b"/>
  <rect x="544.00" y="357.45" width="10" height="77.55" fill="#59a14f"/>
  <rect x="556.00" y="387.57" width="10" height="47.43" fill="#e15759"/>
  <line x1="543.00" y1="435" x2="543.00" y2="439" stroke="#333" stroke-width="1"/>
  <text transform="translate(543.00,455) rotate(45)" text-anchor="start" font-family="Arial, sans-serif" font-size="10" fill="#333">w2-10850</text>
  <rect x="576.00" y="365.81" width="10" height="69.19" fill="#4e79a7"/>
  <rect x="588.00" y="361.70" width="10" height="73.30" fill="#f28e2b"/>
  <rect x="600.00" y="359.69" width="10" height="75.31" fill="#59a14f"/>
  <rect x="612.00" y="389.98" width="10" height="45.02" fill="#e15759"/>
  <line x1="599.00" y1="435" x2="599.00" y2="439" stroke="#333" stroke-width="1"/>
  <text transform="translate(599.00,455) rotate(45)" text-anchor="start" font-family="Arial, sans-serif" font-size="10" fill="#333">w1-10850</text>
  <rect x="632.00" y="268.77" width="10" height="166.23" fill="#4e79a7"/>
  <rect x="644.00" y="281.80" width="10" height="153.20" fill="#f28e2b"/>
  <rect x="656.00" y="278.74" width="10" height="156.26" fill="#59a14f"/>
  <rect x="668.00" y="332.39" width="10" height="102.61" fill="#e15759"/>
  <line x1="655.00" y1="435" x2="655.00" y2="439" stroke="#333" stroke-width="1"/>
  <text transform="translate(655.00,455) rotate(45)" text-anchor="start" font-family="Arial, sans-serif" font-size="10" fill="#333">w2-22400</text>
  <rect x="688.00" y="274.72" width="10" height="160.28" fill="#4e79a7"/>
  <rect x="700.00" y="279.25" width="10" height="155.75" fill="#f28e2b"/>
  <rect x="712.00" y="282.99" width="10" height="152.01" fill="#59a14f"/>
  <rect x="724.00" y="339.63" width="10" height="95.37" fill="#e15759"/>
  <line x1="711.00" y1="435" x2="711.00" y2="439" stroke="#333" stroke-width="1"/>
  <text transform="translate(711.00,455) rotate(45)" text-anchor="start" font-family="Arial, sans-serif" font-size="10" fill="#333">w1-22400</text>
  <rect x="744.00" y="119.65" width="10" height="315.35" fill="#4e79a7"/>
  <rect x="756.00" y="153.31" width="10" height="281.69" fill="#f28e2b"/>
  <rect x="768.00" y="134.27" width="10" height="300.73" fill="#59a14f"/>
  <rect x="780.00" y="238.75" width="10" height="196.25" fill="#e15759"/>
  <line x1="767.00" y1="435" x2="767.00" y2="439" stroke="#333" stroke-width="1"/>
  <text transform="translate(767.00,455) rotate(45)" text-anchor="start" font-family="Arial, sans-serif" font-size="10" fill="#333">w2-43400</text>
  <rect x="800.00" y="134.20" width="10" height="300.80" fill="#4e79a7"/>
  <rect x="812.00" y="147.36" width="10" height="287.64" fill="#f28e2b"/>
  <rect x="824.00" y="140.25" width="10" height="294.75" fill="#59a14f"/>
  <rect x="836.00" y="253.85" width="10" height="181.15" fill="#e15759"/>
  <line x1="823.00" y1="435" x2="823.00" y2="439" stroke="#333" stroke-width="1"/>
  <text transform="translate(823.00,455) rotate(45)" text-anchor="start" font-family="Arial, sans-serif" font-size="10" fill="#333">w1-43400</text>
  <rect x="78" y="100" width="640" height="72" fill="white" fill-opacity="0.95"/>
  <text x="84" y="112" font-family="Arial, sans-serif" font-size="12" fill="#444">Grouped by shape; color by implementation. Units: us</text>
  <rect x="120" y="126" width="12" height="12" fill="#4e79a7"/>
  <text x="138" y="137" font-family="Arial, sans-serif" font-size="14" fill="#222">torch.nn.Linear</text>
  <rect x="410" y="126" width="12" height="12" fill="#f28e2b"/>
  <text x="428" y="137" font-family="Arial, sans-serif" font-size="14" fill="#222">NVIDIA Transformer Engine</text>
  <rect x="120" y="150" width="12" height="12" fill="#59a14f"/>
  <text x="138" y="161" font-family="Arial, sans-serif" font-size="14" fill="#222">LiteLinear PT</text>
  <rect x="410" y="150" width="12" height="12" fill="#e15759"/>
  <text x="428" y="161" font-family="Arial, sans-serif" font-size="14" fill="#222">LiteLinear CUDA</text>
  <text x="459" y="548" text-anchor="middle" font-family="Arial, sans-serif" font-size="12" fill="#444">TOTAL (count-weighted, ms): Lin 7.788 | TE 7.158 (1.088x) | PT 7.631 (1.021x) | LL 4.744 (1.642x)</text>
</svg>
